<svg width="232" height="40" viewBox="0 0 232 40" fill="none" xmlns="http://www.w3.org/2000/svg">
<rect width="232" height="40" rx="5" fill="#00BAFC"/>
<path d="M26.6719 26H23.9062L21.25 21.6797L18.5938 26H16L19.7891 20.1094L16.2422 14.5781H18.9141L21.375 18.6875L23.7891 14.5781H26.3984L22.8125 20.2422L26.6719 26ZM27.8203 15.0078C27.8203 14.2318 28.2526 13.8438 29.1172 13.8438C29.9818 13.8438 30.4141 14.2318 30.4141 15.0078C30.4141 15.3776 30.3047 15.6667 30.0859 15.875C29.8724 16.0781 29.5495 16.1797 29.1172 16.1797C28.2526 16.1797 27.8203 15.7891 27.8203 15.0078ZM30.3047 26H27.9219V17.2656H30.3047V26ZM38.8906 26H31.9922V24.5938L36.0391 19.0859H32.2344V17.2656H38.75V18.8125L34.8125 24.1797H38.8906V26ZM48.4453 26H46.0625V20.8984C46.0625 20.2682 45.9557 19.7969 45.7422 19.4844C45.5339 19.1667 45.2031 19.0078 44.75 19.0078C44.1406 19.0078 43.6979 19.2318 43.4219 19.6797C43.1458 20.1276 43.0078 20.8646 43.0078 21.8906V26H40.625V17.2656H42.4453L42.7656 18.3828H42.8984C43.1328 17.9818 43.4714 17.6693 43.9141 17.4453C44.3568 17.2161 44.8646 17.1016 45.4375 17.1016C46.7448 17.1016 47.6302 17.5286 48.0938 18.3828H48.3047C48.5391 17.9766 48.8828 17.6615 49.3359 17.4375C49.7943 17.2135 50.3099 17.1016 50.8828 17.1016C51.8724 17.1016 52.6198 17.3568 53.125 17.8672C53.6354 18.3724 53.8906 19.1849 53.8906 20.3047V26H51.5V20.8984C51.5 20.2682 51.3932 19.7969 51.1797 19.4844C50.9714 19.1667 50.6406 19.0078 50.1875 19.0078C49.6042 19.0078 49.1667 19.2161 48.875 19.6328C48.5885 20.0495 48.4453 20.7109 48.4453 21.6172V26ZM61.8906 26L61.4297 24.8125H61.3672C60.9661 25.3177 60.5521 25.6693 60.125 25.8672C59.7031 26.0599 59.151 26.1562 58.4688 26.1562C57.6302 26.1562 56.9688 25.9167 56.4844 25.4375C56.0052 24.9583 55.7656 24.276 55.7656 23.3906C55.7656 22.4635 56.0885 21.7812 56.7344 21.3438C57.3854 20.901 58.3646 20.6562 59.6719 20.6094L61.1875 20.5625V20.1797C61.1875 19.2943 60.7344 18.8516 59.8281 18.8516C59.1302 18.8516 58.3099 19.0625 57.3672 19.4844L56.5781 17.875C57.5833 17.349 58.6979 17.0859 59.9219 17.0859C61.0938 17.0859 61.9922 17.3411 62.6172 17.8516C63.2422 18.362 63.5547 19.138 63.5547 20.1797V26H61.8906ZM61.1875 21.9531L60.2656 21.9844C59.5729 22.0052 59.0573 22.1302 58.7188 22.3594C58.3802 22.5885 58.2109 22.9375 58.2109 23.4062C58.2109 24.0781 58.5964 24.4141 59.3672 24.4141C59.9193 24.4141 60.3594 24.2552 60.6875 23.9375C61.0208 23.6198 61.1875 23.1979 61.1875 22.6719V21.9531ZM69.6953 24.2578C70.112 24.2578 70.612 24.1667 71.1953 23.9844V25.7578C70.6016 26.0234 69.8724 26.1562 69.0078 26.1562C68.0547 26.1562 67.3594 25.9167 66.9219 25.4375C66.4896 24.9531 66.2734 24.2292 66.2734 23.2656V19.0547H65.1328V18.0469L66.4453 17.25L67.1328 15.4062H68.6562V17.2656H71.1016V19.0547H68.6562V23.2656C68.6562 23.6042 68.75 23.8542 68.9375 24.0156C69.1302 24.1771 69.3828 24.2578 69.6953 24.2578ZM75.3516 26H72.9688V13.8438H75.3516V26ZM83.4062 26L82.9453 24.8125H82.8828C82.4818 25.3177 82.0677 25.6693 81.6406 25.8672C81.2188 26.0599 80.6667 26.1562 79.9844 26.1562C79.1458 26.1562 78.4844 25.9167 78 25.4375C77.5208 24.9583 77.2812 24.276 77.2812 23.3906C77.2812 22.4635 77.6042 21.7812 78.25 21.3438C78.901 20.901 79.8802 20.6562 81.1875 20.6094L82.7031 20.5625V20.1797C82.7031 19.2943 82.25 18.8516 81.3438 18.8516C80.6458 18.8516 79.8255 19.0625 78.8828 19.4844L78.0938 17.875C79.099 17.349 80.2135 17.0859 81.4375 17.0859C82.6094 17.0859 83.5078 17.3411 84.1328 17.8516C84.7578 18.362 85.0703 19.138 85.0703 20.1797V26H83.4062ZM82.7031 21.9531L81.7812 21.9844C81.0885 22.0052 80.5729 22.1302 80.2344 22.3594C79.8958 22.5885 79.7266 22.9375 79.7266 23.4062C79.7266 24.0781 80.112 24.4141 80.8828 24.4141C81.4349 24.4141 81.875 24.2552 82.2031 23.9375C82.5365 23.6198 82.7031 23.1979 82.7031 22.6719V21.9531ZM92.4062 17.1016C92.7292 17.1016 92.9974 17.125 93.2109 17.1719L93.0312 19.4062C92.8385 19.3542 92.6042 19.3281 92.3281 19.3281C91.5677 19.3281 90.974 19.5234 90.5469 19.9141C90.125 20.3047 89.9141 20.8516 89.9141 21.5547V26H87.5312V17.2656H89.3359L89.6875 18.7344H89.8047C90.0755 18.2448 90.4401 17.8516 90.8984 17.5547C91.362 17.2526 91.8646 17.1016 92.4062 17.1016ZM103.812 17.1016C104.844 17.1016 105.651 17.5052 106.234 18.3125C106.818 19.1146 107.109 20.2161 107.109 21.6172C107.109 23.0599 106.807 24.1771 106.203 24.9688C105.604 25.7604 104.786 26.1562 103.75 26.1562C102.724 26.1562 101.919 25.7839 101.336 25.0391H101.172L100.773 26H98.9531V13.8438H101.336V16.6719C101.336 17.0312 101.305 17.6068 101.242 18.3984H101.336C101.893 17.5339 102.719 17.1016 103.812 17.1016ZM103.047 19.0078C102.458 19.0078 102.029 19.1901 101.758 19.5547C101.487 19.9141 101.346 20.5104 101.336 21.3438V21.6016C101.336 22.5391 101.474 23.2109 101.75 23.6172C102.031 24.0234 102.474 24.2266 103.078 24.2266C103.568 24.2266 103.956 24.0026 104.242 23.5547C104.534 23.1016 104.68 22.4453 104.68 21.5859C104.68 20.7266 104.534 20.0833 104.242 19.6562C103.951 19.224 103.552 19.0078 103.047 19.0078ZM108.977 15.0078C108.977 14.2318 109.409 13.8438 110.273 13.8438C111.138 13.8438 111.57 14.2318 111.57 15.0078C111.57 15.3776 111.461 15.6667 111.242 15.875C111.029 16.0781 110.706 16.1797 110.273 16.1797C109.409 16.1797 108.977 15.7891 108.977 15.0078ZM111.461 26H109.078V17.2656H111.461V26ZM116.352 26H113.969V13.8438H116.352V26ZM124.406 26L123.945 24.8125H123.883C123.482 25.3177 123.068 25.6693 122.641 25.8672C122.219 26.0599 121.667 26.1562 120.984 26.1562C120.146 26.1562 119.484 25.9167 119 25.4375C118.521 24.9583 118.281 24.276 118.281 23.3906C118.281 22.4635 118.604 21.7812 119.25 21.3438C119.901 20.901 120.88 20.6562 122.188 20.6094L123.703 20.5625V20.1797C123.703 19.2943 123.25 18.8516 122.344 18.8516C121.646 18.8516 120.826 19.0625 119.883 19.4844L119.094 17.875C120.099 17.349 121.214 17.0859 122.438 17.0859C123.609 17.0859 124.508 17.3411 125.133 17.8516C125.758 18.362 126.07 19.138 126.07 20.1797V26H124.406ZM123.703 21.9531L122.781 21.9844C122.089 22.0052 121.573 22.1302 121.234 22.3594C120.896 22.5885 120.727 22.9375 120.727 23.4062C120.727 24.0781 121.112 24.4141 121.883 24.4141C122.435 24.4141 122.875 24.2552 123.203 23.9375C123.536 23.6198 123.703 23.1979 123.703 22.6719V21.9531ZM136.594 26H134.211V20.8984C134.211 20.2682 134.099 19.7969 133.875 19.4844C133.651 19.1667 133.294 19.0078 132.805 19.0078C132.138 19.0078 131.656 19.2318 131.359 19.6797C131.062 20.1224 130.914 20.8594 130.914 21.8906V26H128.531V17.2656H130.352L130.672 18.3828H130.805C131.07 17.9609 131.435 17.6432 131.898 17.4297C132.367 17.2109 132.898 17.1016 133.492 17.1016C134.508 17.1016 135.279 17.3776 135.805 17.9297C136.331 18.4766 136.594 19.2682 136.594 20.3047V26ZM146.883 24.2578C147.299 24.2578 147.799 24.1667 148.383 23.9844V25.7578C147.789 26.0234 147.06 26.1562 146.195 26.1562C145.242 26.1562 144.547 25.9167 144.109 25.4375C143.677 24.9531 143.461 24.2292 143.461 23.2656V19.0547H142.32V18.0469L143.633 17.25L144.32 15.4062H145.844V17.2656H148.289V19.0547H145.844V23.2656C145.844 23.6042 145.938 23.8542 146.125 24.0156C146.318 24.1771 146.57 24.2578 146.883 24.2578ZM155.703 26L155.242 24.8125H155.18C154.779 25.3177 154.365 25.6693 153.938 25.8672C153.516 26.0599 152.964 26.1562 152.281 26.1562C151.443 26.1562 150.781 25.9167 150.297 25.4375C149.818 24.9583 149.578 24.276 149.578 23.3906C149.578 22.4635 149.901 21.7812 150.547 21.3438C151.198 20.901 152.177 20.6562 153.484 20.6094L155 20.5625V20.1797C155 19.2943 154.547 18.8516 153.641 18.8516C152.943 18.8516 152.122 19.0625 151.18 19.4844L150.391 17.875C151.396 17.349 152.51 17.0859 153.734 17.0859C154.906 17.0859 155.805 17.3411 156.43 17.8516C157.055 18.362 157.367 19.138 157.367 20.1797V26H155.703ZM155 21.9531L154.078 21.9844C153.385 22.0052 152.87 22.1302 152.531 22.3594C152.193 22.5885 152.023 22.9375 152.023 23.4062C152.023 24.0781 152.409 24.4141 153.18 24.4141C153.732 24.4141 154.172 24.2552 154.5 23.9375C154.833 23.6198 155 23.1979 155 22.6719V21.9531ZM167.891 26H165.508V20.8984C165.508 20.2682 165.396 19.7969 165.172 19.4844C164.948 19.1667 164.591 19.0078 164.102 19.0078C163.435 19.0078 162.953 19.2318 162.656 19.6797C162.359 20.1224 162.211 20.8594 162.211 21.8906V26H159.828V17.2656H161.648L161.969 18.3828H162.102C162.367 17.9609 162.732 17.6432 163.195 17.4297C163.664 17.2109 164.195 17.1016 164.789 17.1016C165.805 17.1016 166.576 17.3776 167.102 17.9297C167.628 18.4766 167.891 19.2682 167.891 20.3047V26ZM170.242 15.0078C170.242 14.2318 170.674 13.8438 171.539 13.8438C172.404 13.8438 172.836 14.2318 172.836 15.0078C172.836 15.3776 172.727 15.6667 172.508 15.875C172.294 16.0781 171.971 16.1797 171.539 16.1797C170.674 16.1797 170.242 15.7891 170.242 15.0078ZM172.727 26H170.344V17.2656H172.727V26ZM181.328 23.4062C181.328 24.3021 181.016 24.9844 180.391 25.4531C179.771 25.9219 178.841 26.1562 177.602 26.1562C176.966 26.1562 176.424 26.112 175.977 26.0234C175.529 25.9401 175.109 25.8151 174.719 25.6484V23.6797C175.161 23.888 175.659 24.0625 176.211 24.2031C176.768 24.3438 177.258 24.4141 177.68 24.4141C178.544 24.4141 178.977 24.1641 178.977 23.6641C178.977 23.4766 178.919 23.3255 178.805 23.2109C178.69 23.0911 178.492 22.9583 178.211 22.8125C177.93 22.6615 177.555 22.487 177.086 22.2891C176.414 22.0078 175.919 21.7474 175.602 21.5078C175.289 21.2682 175.06 20.9948 174.914 20.6875C174.773 20.375 174.703 19.9922 174.703 19.5391C174.703 18.763 175.003 18.1641 175.602 17.7422C176.206 17.3151 177.06 17.1016 178.164 17.1016C179.216 17.1016 180.24 17.3307 181.234 17.7891L180.516 19.5078C180.078 19.3203 179.669 19.1667 179.289 19.0469C178.909 18.9271 178.521 18.8672 178.125 18.8672C177.422 18.8672 177.07 19.0573 177.07 19.4375C177.07 19.651 177.182 19.8359 177.406 19.9922C177.635 20.1484 178.133 20.3802 178.898 20.6875C179.581 20.9635 180.081 21.2214 180.398 21.4609C180.716 21.7005 180.951 21.9766 181.102 22.2891C181.253 22.6016 181.328 22.974 181.328 23.4062ZM191.25 26H188.867V20.8984C188.867 19.638 188.398 19.0078 187.461 19.0078C186.794 19.0078 186.312 19.2344 186.016 19.6875C185.719 20.1406 185.57 20.875 185.57 21.8906V26H183.188V13.8438H185.57V16.3203C185.57 16.513 185.552 16.9661 185.516 17.6797L185.461 18.3828H185.586C186.117 17.5286 186.961 17.1016 188.117 17.1016C189.143 17.1016 189.922 17.3776 190.453 17.9297C190.984 18.4818 191.25 19.2734 191.25 20.3047V26ZM193.602 15.0078C193.602 14.2318 194.034 13.8438 194.898 13.8438C195.763 13.8438 196.195 14.2318 196.195 15.0078C196.195 15.3776 196.086 15.6667 195.867 15.875C195.654 16.0781 195.331 16.1797 194.898 16.1797C194.034 16.1797 193.602 15.7891 193.602 15.0078ZM196.086 26H193.703V17.2656H196.086V26ZM204.688 23.4062C204.688 24.3021 204.375 24.9844 203.75 25.4531C203.13 25.9219 202.201 26.1562 200.961 26.1562C200.326 26.1562 199.784 26.112 199.336 26.0234C198.888 25.9401 198.469 25.8151 198.078 25.6484V23.6797C198.521 23.888 199.018 24.0625 199.57 24.2031C200.128 24.3438 200.617 24.4141 201.039 24.4141C201.904 24.4141 202.336 24.1641 202.336 23.6641C202.336 23.4766 202.279 23.3255 202.164 23.2109C202.049 23.0911 201.852 22.9583 201.57 22.8125C201.289 22.6615 200.914 22.487 200.445 22.2891C199.773 22.0078 199.279 21.7474 198.961 21.5078C198.648 21.2682 198.419 20.9948 198.273 20.6875C198.133 20.375 198.062 19.9922 198.062 19.5391C198.062 18.763 198.362 18.1641 198.961 17.7422C199.565 17.3151 200.419 17.1016 201.523 17.1016C202.576 17.1016 203.599 17.3307 204.594 17.7891L203.875 19.5078C203.438 19.3203 203.029 19.1667 202.648 19.0469C202.268 18.9271 201.88 18.8672 201.484 18.8672C200.781 18.8672 200.43 19.0573 200.43 19.4375C200.43 19.651 200.542 19.8359 200.766 19.9922C200.995 20.1484 201.492 20.3802 202.258 20.6875C202.94 20.9635 203.44 21.2214 203.758 21.4609C204.076 21.7005 204.31 21.9766 204.461 22.2891C204.612 22.6016 204.688 22.974 204.688 23.4062ZM214.609 26H212.227V20.8984C212.227 19.638 211.758 19.0078 210.82 19.0078C210.154 19.0078 209.672 19.2344 209.375 19.6875C209.078 20.1406 208.93 20.875 208.93 21.8906V26H206.547V13.8438H208.93V16.3203C208.93 16.513 208.911 16.9661 208.875 17.6797L208.82 18.3828H208.945C209.477 17.5286 210.32 17.1016 211.477 17.1016C212.503 17.1016 213.281 17.3776 213.812 17.9297C214.344 18.4818 214.609 19.2734 214.609 20.3047V26Z" fill="white"/>
</svg>
