<svg width="344" height="65" viewBox="0 0 344 65" fill="none" xmlns="http://www.w3.org/2000/svg">
<g clip-path="url(#clip0_14_635)">
<rect x="88" y="24.8086" width="167" height="40" rx="5" fill="#00BAFC"/>
<path d="M105.438 39.3867H108.992C110.612 39.3867 111.786 39.6185 112.516 40.082C113.25 40.5404 113.617 41.2721 113.617 42.2773C113.617 42.9596 113.456 43.5195 113.133 43.957C112.815 44.3945 112.391 44.6576 111.859 44.7461V44.8242C112.583 44.9857 113.104 45.2878 113.422 45.7305C113.745 46.1732 113.906 46.7617 113.906 47.4961C113.906 48.5378 113.529 49.3503 112.773 49.9336C112.023 50.5169 111.003 50.8086 109.711 50.8086H105.438V39.3867ZM107.859 43.9102H109.266C109.922 43.9102 110.396 43.8086 110.688 43.6055C110.984 43.4023 111.133 43.0664 111.133 42.5977C111.133 42.1602 110.971 41.8477 110.648 41.6602C110.331 41.4674 109.826 41.3711 109.133 41.3711H107.859V43.9102ZM107.859 45.832V48.8086H109.438C110.104 48.8086 110.596 48.681 110.914 48.4258C111.232 48.1706 111.391 47.7799 111.391 47.2539C111.391 46.306 110.714 45.832 109.359 45.832H107.859ZM122.188 50.8086L121.867 49.6914H121.742C121.487 50.0977 121.125 50.4128 120.656 50.6367C120.188 50.8555 119.654 50.9648 119.055 50.9648C118.029 50.9648 117.255 50.6914 116.734 50.1445C116.214 49.5924 115.953 48.8008 115.953 47.7695V42.0742H118.336V47.1758C118.336 47.806 118.448 48.2799 118.672 48.5977C118.896 48.9102 119.253 49.0664 119.742 49.0664C120.409 49.0664 120.891 48.8451 121.188 48.4023C121.484 47.9544 121.633 47.2148 121.633 46.1836V42.0742H124.016V50.8086H122.188ZM125.266 42.0742H127.875L129.523 46.9883C129.664 47.4154 129.76 47.9206 129.812 48.5039H129.859C129.917 47.9674 130.029 47.4622 130.195 46.9883L131.812 42.0742H134.367L130.672 51.9258C130.333 52.8372 129.849 53.5195 129.219 53.9727C128.594 54.4258 127.862 54.6523 127.023 54.6523C126.612 54.6523 126.208 54.6081 125.812 54.5195V52.6289C126.099 52.6966 126.411 52.7305 126.75 52.7305C127.172 52.7305 127.539 52.6003 127.852 52.3398C128.169 52.0846 128.417 51.6966 128.594 51.1758L128.734 50.7461L125.266 42.0742ZM141.812 50.8086L141.492 49.6914H141.367C141.112 50.0977 140.75 50.4128 140.281 50.6367C139.812 50.8555 139.279 50.9648 138.68 50.9648C137.654 50.9648 136.88 50.6914 136.359 50.1445C135.839 49.5924 135.578 48.8008 135.578 47.7695V42.0742H137.961V47.1758C137.961 47.806 138.073 48.2799 138.297 48.5977C138.521 48.9102 138.878 49.0664 139.367 49.0664C140.034 49.0664 140.516 48.8451 140.812 48.4023C141.109 47.9544 141.258 47.2148 141.258 46.1836V42.0742H143.641V50.8086H141.812ZM151.016 41.9102C151.339 41.9102 151.607 41.9336 151.82 41.9805L151.641 44.2148C151.448 44.1628 151.214 44.1367 150.938 44.1367C150.177 44.1367 149.583 44.332 149.156 44.7227C148.734 45.1133 148.523 45.6602 148.523 46.3633V50.8086H146.141V42.0742H147.945L148.297 43.543H148.414C148.685 43.0534 149.049 42.6602 149.508 42.3633C149.971 42.0612 150.474 41.9102 151.016 41.9102ZM157.086 49.0664C157.503 49.0664 158.003 48.9753 158.586 48.793V50.5664C157.992 50.832 157.263 50.9648 156.398 50.9648C155.445 50.9648 154.75 50.7253 154.312 50.2461C153.88 49.7617 153.664 49.0378 153.664 48.0742V43.8633H152.523V42.8555L153.836 42.0586L154.523 40.2148H156.047V42.0742H158.492V43.8633H156.047V48.0742C156.047 48.4128 156.141 48.6628 156.328 48.8242C156.521 48.9857 156.773 49.0664 157.086 49.0664ZM168.18 50.8086H165.797V45.707C165.797 45.0768 165.69 44.6055 165.477 44.293C165.268 43.9753 164.938 43.8164 164.484 43.8164C163.875 43.8164 163.432 44.0404 163.156 44.4883C162.88 44.9362 162.742 45.6732 162.742 46.6992V50.8086H160.359V42.0742H162.18L162.5 43.1914H162.633C162.867 42.7904 163.206 42.4779 163.648 42.2539C164.091 42.0247 164.599 41.9102 165.172 41.9102C166.479 41.9102 167.365 42.3372 167.828 43.1914H168.039C168.273 42.7852 168.617 42.4701 169.07 42.2461C169.529 42.0221 170.044 41.9102 170.617 41.9102C171.607 41.9102 172.354 42.1654 172.859 42.6758C173.37 43.181 173.625 43.9935 173.625 45.1133V50.8086H171.234V45.707C171.234 45.0768 171.128 44.6055 170.914 44.293C170.706 43.9753 170.375 43.8164 169.922 43.8164C169.339 43.8164 168.901 44.0247 168.609 44.4414C168.323 44.8581 168.18 45.5195 168.18 46.4258V50.8086ZM181.625 50.8086L181.164 49.6211H181.102C180.701 50.1263 180.286 50.4779 179.859 50.6758C179.438 50.8685 178.885 50.9648 178.203 50.9648C177.365 50.9648 176.703 50.7253 176.219 50.2461C175.74 49.7669 175.5 49.0846 175.5 48.1992C175.5 47.2721 175.823 46.5898 176.469 46.1523C177.12 45.7096 178.099 45.4648 179.406 45.418L180.922 45.3711V44.9883C180.922 44.1029 180.469 43.6602 179.562 43.6602C178.865 43.6602 178.044 43.8711 177.102 44.293L176.312 42.6836C177.318 42.1576 178.432 41.8945 179.656 41.8945C180.828 41.8945 181.727 42.1497 182.352 42.6602C182.977 43.1706 183.289 43.9466 183.289 44.9883V50.8086H181.625ZM180.922 46.7617L180 46.793C179.307 46.8138 178.792 46.9388 178.453 47.168C178.115 47.3971 177.945 47.7461 177.945 48.2148C177.945 48.8867 178.331 49.2227 179.102 49.2227C179.654 49.2227 180.094 49.0638 180.422 48.7461C180.755 48.4284 180.922 48.0065 180.922 47.4805V46.7617ZM194.766 41.9102C195.797 41.9102 196.604 42.3138 197.188 43.1211C197.771 43.9232 198.062 45.0247 198.062 46.4258C198.062 47.8685 197.76 48.9857 197.156 49.7773C196.557 50.569 195.74 50.9648 194.703 50.9648C193.677 50.9648 192.872 50.5924 192.289 49.8477H192.125L191.727 50.8086H189.906V38.6523H192.289V41.4805C192.289 41.8398 192.258 42.4154 192.195 43.207H192.289C192.846 42.3424 193.672 41.9102 194.766 41.9102ZM194 43.8164C193.411 43.8164 192.982 43.9987 192.711 44.3633C192.44 44.7227 192.299 45.319 192.289 46.1523V46.4102C192.289 47.3477 192.427 48.0195 192.703 48.4258C192.984 48.832 193.427 49.0352 194.031 49.0352C194.521 49.0352 194.909 48.8112 195.195 48.3633C195.487 47.9102 195.633 47.2539 195.633 46.3945C195.633 45.5352 195.487 44.8919 195.195 44.4648C194.904 44.0326 194.505 43.8164 194 43.8164ZM203.648 43.6055C203.143 43.6055 202.747 43.7669 202.461 44.0898C202.174 44.4076 202.01 44.8607 201.969 45.4492H205.312C205.302 44.8607 205.148 44.4076 204.852 44.0898C204.555 43.7669 204.154 43.6055 203.648 43.6055ZM203.984 50.9648C202.578 50.9648 201.479 50.5768 200.688 49.8008C199.896 49.0247 199.5 47.9258 199.5 46.5039C199.5 45.0404 199.865 43.9102 200.594 43.1133C201.328 42.3112 202.341 41.9102 203.633 41.9102C204.867 41.9102 205.828 42.2617 206.516 42.9648C207.203 43.668 207.547 44.6393 207.547 45.8789V47.0352H201.914C201.94 47.7122 202.141 48.2409 202.516 48.6211C202.891 49.0013 203.417 49.1914 204.094 49.1914C204.62 49.1914 205.117 49.1367 205.586 49.0273C206.055 48.918 206.544 48.7435 207.055 48.5039V50.3477C206.638 50.556 206.193 50.7096 205.719 50.8086C205.245 50.9128 204.667 50.9648 203.984 50.9648ZM214.359 41.9102C214.682 41.9102 214.951 41.9336 215.164 41.9805L214.984 44.2148C214.792 44.1628 214.557 44.1367 214.281 44.1367C213.521 44.1367 212.927 44.332 212.5 44.7227C212.078 45.1133 211.867 45.6602 211.867 46.3633V50.8086H209.484V42.0742H211.289L211.641 43.543H211.758C212.029 43.0534 212.393 42.6602 212.852 42.3633C213.315 42.0612 213.818 41.9102 214.359 41.9102ZM216.648 39.8164C216.648 39.0404 217.081 38.6523 217.945 38.6523C218.81 38.6523 219.242 39.0404 219.242 39.8164C219.242 40.1862 219.133 40.4753 218.914 40.6836C218.701 40.8867 218.378 40.9883 217.945 40.9883C217.081 40.9883 216.648 40.5977 216.648 39.8164ZM219.133 50.8086H216.75V42.0742H219.133V50.8086ZM227.734 48.2148C227.734 49.1107 227.422 49.793 226.797 50.2617C226.177 50.7305 225.247 50.9648 224.008 50.9648C223.372 50.9648 222.831 50.9206 222.383 50.832C221.935 50.7487 221.516 50.6237 221.125 50.457V48.4883C221.568 48.6966 222.065 48.8711 222.617 49.0117C223.174 49.1523 223.664 49.2227 224.086 49.2227C224.951 49.2227 225.383 48.9727 225.383 48.4727C225.383 48.2852 225.326 48.1341 225.211 48.0195C225.096 47.8997 224.898 47.7669 224.617 47.6211C224.336 47.4701 223.961 47.2956 223.492 47.0977C222.82 46.8164 222.326 46.556 222.008 46.3164C221.695 46.0768 221.466 45.8034 221.32 45.4961C221.18 45.1836 221.109 44.8008 221.109 44.3477C221.109 43.5716 221.409 42.9727 222.008 42.5508C222.612 42.1237 223.466 41.9102 224.57 41.9102C225.622 41.9102 226.646 42.1393 227.641 42.5977L226.922 44.3164C226.484 44.1289 226.076 43.9753 225.695 43.8555C225.315 43.7357 224.927 43.6758 224.531 43.6758C223.828 43.6758 223.477 43.8659 223.477 44.2461C223.477 44.4596 223.589 44.6445 223.812 44.8008C224.042 44.957 224.539 45.1888 225.305 45.4961C225.987 45.7721 226.487 46.0299 226.805 46.2695C227.122 46.5091 227.357 46.7852 227.508 47.0977C227.659 47.4102 227.734 47.7826 227.734 48.2148ZM237.656 50.8086H235.273V45.707C235.273 44.4466 234.805 43.8164 233.867 43.8164C233.201 43.8164 232.719 44.043 232.422 44.4961C232.125 44.9492 231.977 45.6836 231.977 46.6992V50.8086H229.594V38.6523H231.977V41.1289C231.977 41.3216 231.958 41.7747 231.922 42.4883L231.867 43.1914H231.992C232.523 42.3372 233.367 41.9102 234.523 41.9102C235.549 41.9102 236.328 42.1862 236.859 42.7383C237.391 43.2904 237.656 44.082 237.656 45.1133V50.8086Z" fill="white"/>
</g>
<defs>
<clipPath id="clip0_14_635">
<rect width="344" height="64" fill="white" transform="translate(0 0.808594)"/>
</clipPath>
</defs>
</svg>
