<svg width="79" height="13" viewBox="0 0 79 13" fill="none" xmlns="http://www.w3.org/2000/svg">
<path d="M0.472168 1.29199H3.49707C4.91797 1.29199 5.9458 1.50439 6.58057 1.9292C7.21533 2.354 7.53271 3.02539 7.53271 3.94336C7.53271 4.57812 7.35449 5.10303 6.99805 5.51807C6.64648 5.92822 6.13135 6.19434 5.45264 6.31641V6.38965C7.07861 6.66797 7.8916 7.52246 7.8916 8.95312C7.8916 9.91016 7.56689 10.6572 6.91748 11.1943C6.27295 11.7314 5.36963 12 4.20752 12H0.472168V1.29199ZM1.71729 5.87695H3.76807C4.64697 5.87695 5.2793 5.74023 5.66504 5.4668C6.05078 5.18848 6.24365 4.72217 6.24365 4.06787C6.24365 3.46729 6.02881 3.03516 5.59912 2.77148C5.16943 2.50293 4.48584 2.36865 3.54834 2.36865H1.71729V5.87695ZM1.71729 6.93164V10.938H3.95117C4.81543 10.938 5.46484 10.772 5.89941 10.4399C6.33887 10.103 6.55859 9.57812 6.55859 8.86523C6.55859 8.20117 6.33398 7.71289 5.88477 7.40039C5.44043 7.08789 4.76172 6.93164 3.84863 6.93164H1.71729ZM16.9443 7.979C16.9443 9.2876 16.6147 10.3105 15.9556 11.0479C15.2964 11.7803 14.3857 12.1465 13.2236 12.1465C12.5059 12.1465 11.8687 11.978 11.312 11.6411C10.7554 11.3042 10.3257 10.8208 10.0229 10.1909C9.72021 9.56104 9.56885 8.82373 9.56885 7.979C9.56885 6.67041 9.896 5.65234 10.5503 4.9248C11.2046 4.19238 12.1128 3.82617 13.2749 3.82617C14.3979 3.82617 15.2891 4.19971 15.9482 4.94678C16.6123 5.69385 16.9443 6.70459 16.9443 7.979ZM10.8286 7.979C10.8286 9.00439 11.0337 9.78564 11.4438 10.3228C11.854 10.8599 12.457 11.1284 13.2529 11.1284C14.0488 11.1284 14.6519 10.8623 15.062 10.3301C15.4771 9.79297 15.6846 9.00928 15.6846 7.979C15.6846 6.9585 15.4771 6.18457 15.062 5.65723C14.6519 5.125 14.0439 4.85889 13.2383 4.85889C12.4424 4.85889 11.8418 5.12012 11.4365 5.64258C11.0312 6.16504 10.8286 6.94385 10.8286 7.979ZM24.2612 9.81006C24.2612 10.5571 23.9829 11.1333 23.4263 11.5386C22.8696 11.9438 22.0884 12.1465 21.0825 12.1465C20.0181 12.1465 19.188 11.978 18.5923 11.6411V10.5132C18.978 10.7085 19.3906 10.8623 19.8301 10.9746C20.2744 11.0869 20.7017 11.1431 21.1118 11.1431C21.7466 11.1431 22.2349 11.043 22.5767 10.8428C22.9185 10.6377 23.0894 10.3276 23.0894 9.9126C23.0894 9.6001 22.9526 9.33398 22.6792 9.11426C22.4106 8.88965 21.8833 8.62598 21.0972 8.32324C20.3501 8.04492 19.8179 7.80322 19.5005 7.59814C19.188 7.38818 18.9536 7.15137 18.7974 6.8877C18.646 6.62402 18.5703 6.30908 18.5703 5.94287C18.5703 5.28857 18.8364 4.77344 19.3687 4.39746C19.9009 4.0166 20.6309 3.82617 21.5586 3.82617C22.4229 3.82617 23.2676 4.00195 24.0928 4.35352L23.6606 5.34229C22.855 5.01025 22.125 4.84424 21.4707 4.84424C20.8945 4.84424 20.46 4.93457 20.167 5.11523C19.874 5.2959 19.7275 5.54492 19.7275 5.8623C19.7275 6.07715 19.7812 6.26025 19.8887 6.41162C20.001 6.56299 20.1792 6.70703 20.4233 6.84375C20.6675 6.98047 21.1362 7.17822 21.8296 7.43701C22.7817 7.78369 23.4238 8.13281 23.7559 8.48438C24.0928 8.83594 24.2612 9.27783 24.2612 9.81006ZM31.7393 12V6.80713C31.7393 6.15283 31.5903 5.66455 31.2925 5.34229C30.9946 5.02002 30.5283 4.85889 29.8936 4.85889C29.0488 4.85889 28.4312 5.08838 28.0405 5.54736C27.6548 6.00635 27.4619 6.7583 27.4619 7.80322V12H26.2461V0.603516H27.4619V4.05322C27.4619 4.46826 27.4424 4.8125 27.4033 5.08594H27.4766C27.7158 4.7002 28.0552 4.39746 28.4946 4.17773C28.939 3.95312 29.4443 3.84082 30.0107 3.84082C30.9922 3.84082 31.7271 4.0752 32.2153 4.54395C32.7085 5.00781 32.9551 5.74756 32.9551 6.76318V12H31.7393ZM44.5347 9.81006C44.5347 10.5571 44.2563 11.1333 43.6997 11.5386C43.1431 11.9438 42.3618 12.1465 41.356 12.1465C40.2915 12.1465 39.4614 11.978 38.8657 11.6411V10.5132C39.2515 10.7085 39.6641 10.8623 40.1035 10.9746C40.5479 11.0869 40.9751 11.1431 41.3853 11.1431C42.02 11.1431 42.5083 11.043 42.8501 10.8428C43.1919 10.6377 43.3628 10.3276 43.3628 9.9126C43.3628 9.6001 43.2261 9.33398 42.9526 9.11426C42.6841 8.88965 42.1567 8.62598 41.3706 8.32324C40.6235 8.04492 40.0913 7.80322 39.7739 7.59814C39.4614 7.38818 39.2271 7.15137 39.0708 6.8877C38.9194 6.62402 38.8438 6.30908 38.8438 5.94287C38.8438 5.28857 39.1099 4.77344 39.6421 4.39746C40.1743 4.0166 40.9043 3.82617 41.832 3.82617C42.6963 3.82617 43.541 4.00195 44.3662 4.35352L43.9341 5.34229C43.1284 5.01025 42.3984 4.84424 41.7441 4.84424C41.168 4.84424 40.7334 4.93457 40.4404 5.11523C40.1475 5.2959 40.001 5.54492 40.001 5.8623C40.001 6.07715 40.0547 6.26025 40.1621 6.41162C40.2744 6.56299 40.4526 6.70703 40.6968 6.84375C40.9409 6.98047 41.4097 7.17822 42.103 7.43701C43.0552 7.78369 43.6973 8.13281 44.0293 8.48438C44.3662 8.83594 44.5347 9.27783 44.5347 9.81006ZM51.4561 12L51.2144 10.8574H51.1558C50.7554 11.3604 50.355 11.7021 49.9546 11.8828C49.5591 12.0586 49.0635 12.1465 48.4678 12.1465C47.6719 12.1465 47.0469 11.9414 46.5928 11.5312C46.1436 11.1211 45.9189 10.5376 45.9189 9.78076C45.9189 8.15967 47.2153 7.31006 49.8081 7.23193L51.1704 7.18799V6.68994C51.1704 6.06006 51.0337 5.59619 50.7603 5.29834C50.4917 4.99561 50.0596 4.84424 49.4639 4.84424C48.7949 4.84424 48.0381 5.04932 47.1934 5.45947L46.8198 4.5293C47.2153 4.31445 47.6475 4.146 48.1162 4.02393C48.5898 3.90186 49.0635 3.84082 49.5371 3.84082C50.4941 3.84082 51.2021 4.05322 51.6611 4.47803C52.125 4.90283 52.3569 5.58398 52.3569 6.52148V12H51.4561ZM48.7095 11.1431C49.4663 11.1431 50.0596 10.9355 50.4893 10.5205C50.9238 10.1055 51.1411 9.52441 51.1411 8.77734V8.05225L49.9253 8.10352C48.9585 8.1377 48.2603 8.28906 47.8306 8.55762C47.4058 8.82129 47.1934 9.23389 47.1934 9.79541C47.1934 10.2349 47.3252 10.5693 47.5889 10.7988C47.8574 11.0283 48.231 11.1431 48.7095 11.1431ZM60.3623 12V6.80713C60.3623 6.15283 60.2134 5.66455 59.9155 5.34229C59.6177 5.02002 59.1514 4.85889 58.5166 4.85889C57.6719 4.85889 57.0542 5.08838 56.6636 5.54736C56.2778 6.00635 56.085 6.7583 56.085 7.80322V12H54.8691V0.603516H56.085V4.05322C56.085 4.46826 56.0654 4.8125 56.0264 5.08594H56.0996C56.3389 4.7002 56.6782 4.39746 57.1177 4.17773C57.562 3.95312 58.0674 3.84082 58.6338 3.84082C59.6152 3.84082 60.3501 4.0752 60.8384 4.54395C61.3315 5.00781 61.5781 5.74756 61.5781 6.76318V12H60.3623ZM65.2988 12H64.083V3.97266H65.2988V12ZM63.9805 1.79736C63.9805 1.51904 64.0488 1.31641 64.1855 1.18945C64.3223 1.05762 64.4932 0.991699 64.6982 0.991699C64.8936 0.991699 65.062 1.05762 65.2036 1.18945C65.3452 1.32129 65.416 1.52393 65.416 1.79736C65.416 2.0708 65.3452 2.27588 65.2036 2.4126C65.062 2.54443 64.8936 2.61035 64.6982 2.61035C64.4932 2.61035 64.3223 2.54443 64.1855 2.4126C64.0488 2.27588 63.9805 2.0708 63.9805 1.79736ZM71.4951 4.91748H69.4517V12H68.2358V4.91748H66.8003V4.36816L68.2358 3.92871V3.48193C68.2358 1.50928 69.0977 0.522949 70.8213 0.522949C71.2461 0.522949 71.7441 0.608398 72.3154 0.779297L72.0005 1.75342C71.5317 1.60205 71.1313 1.52637 70.7993 1.52637C70.3403 1.52637 70.001 1.68018 69.7812 1.98779C69.5615 2.29053 69.4517 2.77881 69.4517 3.45264V3.97266H71.4951V4.91748ZM77.8965 12L77.6548 10.8574H77.5962C77.1958 11.3604 76.7954 11.7021 76.395 11.8828C75.9995 12.0586 75.5039 12.1465 74.9082 12.1465C74.1123 12.1465 73.4873 11.9414 73.0332 11.5312C72.584 11.1211 72.3594 10.5376 72.3594 9.78076C72.3594 8.15967 73.6558 7.31006 76.2485 7.23193L77.6108 7.18799V6.68994C77.6108 6.06006 77.4741 5.59619 77.2007 5.29834C76.9321 4.99561 76.5 4.84424 75.9043 4.84424C75.2354 4.84424 74.4785 5.04932 73.6338 5.45947L73.2603 4.5293C73.6558 4.31445 74.0879 4.146 74.5566 4.02393C75.0303 3.90186 75.5039 3.84082 75.9775 3.84082C76.9346 3.84082 77.6426 4.05322 78.1016 4.47803C78.5654 4.90283 78.7974 5.58398 78.7974 6.52148V12H77.8965ZM75.1499 11.1431C75.9067 11.1431 76.5 10.9355 76.9297 10.5205C77.3643 10.1055 77.5815 9.52441 77.5815 8.77734V8.05225L76.3657 8.10352C75.3989 8.1377 74.7007 8.28906 74.271 8.55762C73.8462 8.82129 73.6338 9.23389 73.6338 9.79541C73.6338 10.2349 73.7656 10.5693 74.0293 10.7988C74.2979 11.0283 74.6714 11.1431 75.1499 11.1431Z" fill="black"/>
</svg>
