<svg width="467" height="70" viewBox="0 0 467 70" fill="none" xmlns="http://www.w3.org/2000/svg">
<path d="M1.69531 1.58398H8.36035C11.3975 1.58398 13.5996 2.01855 14.9668 2.8877C16.3438 3.74707 17.0322 5.11914 17.0322 7.00391C17.0322 8.2832 16.7295 9.33301 16.124 10.1533C15.5283 10.9736 14.7324 11.4668 13.7363 11.6328V11.7793C15.0938 12.082 16.0703 12.6484 16.666 13.4785C17.2715 14.3086 17.5742 15.4121 17.5742 16.7891C17.5742 18.7422 16.8662 20.2656 15.4502 21.3594C14.0439 22.4531 12.1299 23 9.70801 23H1.69531V1.58398ZM6.23633 10.0654H8.87305C10.1035 10.0654 10.9922 9.875 11.5391 9.49414C12.0957 9.11328 12.374 8.4834 12.374 7.60449C12.374 6.78418 12.0713 6.19824 11.4658 5.84668C10.8701 5.48535 9.92285 5.30469 8.62402 5.30469H6.23633V10.0654ZM6.23633 13.6689V19.25H9.19531C10.4453 19.25 11.3682 19.0107 11.9639 18.5322C12.5596 18.0537 12.8574 17.3213 12.8574 16.335C12.8574 14.5576 11.5879 13.6689 9.04883 13.6689H6.23633ZM21.3096 2.38965C21.3096 0.93457 22.1201 0.207031 23.7412 0.207031C25.3623 0.207031 26.1729 0.93457 26.1729 2.38965C26.1729 3.08301 25.9678 3.625 25.5576 4.01562C25.1572 4.39648 24.5518 4.58691 23.7412 4.58691C22.1201 4.58691 21.3096 3.85449 21.3096 2.38965ZM25.9678 23H21.5V6.62305H25.9678V23ZM42.0664 23H29.1318V20.3633L36.7197 10.0361H29.5859V6.62305H41.8027V9.52344L34.4199 19.5869H42.0664V23ZM60.4355 23H55.9678V13.4346C55.9678 12.2529 55.7578 11.3691 55.3379 10.7832C54.918 10.1875 54.249 9.88965 53.3311 9.88965C52.0811 9.88965 51.1777 10.3096 50.6211 11.1494C50.0645 11.9795 49.7861 13.3613 49.7861 15.2949V23H45.3184V6.62305H48.7314L49.332 8.71777H49.5811C50.0791 7.92676 50.7627 7.33105 51.6318 6.93066C52.5107 6.52051 53.5068 6.31543 54.6201 6.31543C56.5244 6.31543 57.9697 6.83301 58.9561 7.86816C59.9424 8.89355 60.4355 10.3779 60.4355 12.3213V23ZM71.8174 9.49414C70.8701 9.49414 70.1279 9.79688 69.5908 10.4023C69.0537 10.998 68.7461 11.8477 68.668 12.9512H74.9375C74.918 11.8477 74.6299 10.998 74.0732 10.4023C73.5166 9.79688 72.7646 9.49414 71.8174 9.49414ZM72.4473 23.293C69.8105 23.293 67.75 22.5654 66.2656 21.1104C64.7812 19.6553 64.0391 17.5947 64.0391 14.9287C64.0391 12.1846 64.7227 10.0654 66.0898 8.57129C67.4668 7.06738 69.3662 6.31543 71.7881 6.31543C74.1025 6.31543 75.9043 6.97461 77.1934 8.29297C78.4824 9.61133 79.127 11.4326 79.127 13.7568V15.9248H68.5654C68.6143 17.1943 68.9902 18.1855 69.6934 18.8984C70.3965 19.6113 71.3828 19.9678 72.6523 19.9678C73.6387 19.9678 74.5713 19.8652 75.4502 19.6602C76.3291 19.4551 77.2471 19.1279 78.2041 18.6787V22.1357C77.4229 22.5264 76.5879 22.8145 75.6992 23C74.8105 23.1953 73.7266 23.293 72.4473 23.293ZM94.1855 18.1367C94.1855 19.8164 93.5996 21.0957 92.4277 21.9746C91.2656 22.8535 89.5225 23.293 87.1982 23.293C86.0068 23.293 84.9912 23.21 84.1514 23.0439C83.3115 22.8877 82.5254 22.6533 81.793 22.3408V18.6494C82.623 19.04 83.5557 19.3672 84.5908 19.6309C85.6357 19.8945 86.5537 20.0264 87.3447 20.0264C88.9658 20.0264 89.7764 19.5576 89.7764 18.6201C89.7764 18.2686 89.6689 17.9854 89.4541 17.7705C89.2393 17.5459 88.8682 17.2969 88.3408 17.0234C87.8135 16.7402 87.1104 16.4131 86.2314 16.042C84.9717 15.5146 84.0439 15.0264 83.4482 14.5771C82.8623 14.1279 82.4326 13.6152 82.1592 13.0391C81.8955 12.4531 81.7637 11.7354 81.7637 10.8857C81.7637 9.43066 82.3252 8.30762 83.4482 7.5166C84.5811 6.71582 86.1826 6.31543 88.2529 6.31543C90.2256 6.31543 92.1445 6.74512 94.0098 7.60449L92.6621 10.8271C91.8418 10.4756 91.0752 10.1875 90.3623 9.96289C89.6494 9.73828 88.9219 9.62598 88.1797 9.62598C86.8613 9.62598 86.2021 9.98242 86.2021 10.6953C86.2021 11.0957 86.4121 11.4424 86.832 11.7354C87.2617 12.0283 88.1943 12.4629 89.6299 13.0391C90.9092 13.5566 91.8467 14.04 92.4424 14.4893C93.0381 14.9385 93.4775 15.4561 93.7607 16.042C94.0439 16.6279 94.1855 17.3262 94.1855 18.1367ZM97.4814 2.38965C97.4814 0.93457 98.292 0.207031 99.9131 0.207031C101.534 0.207031 102.345 0.93457 102.345 2.38965C102.345 3.08301 102.14 3.625 101.729 4.01562C101.329 4.39648 100.724 4.58691 99.9131 4.58691C98.292 4.58691 97.4814 3.85449 97.4814 2.38965ZM102.14 23H97.6719V6.62305H102.14V23ZM121.959 23H117.491V13.4346C117.491 12.2529 117.281 11.3691 116.861 10.7832C116.441 10.1875 115.772 9.88965 114.854 9.88965C113.604 9.88965 112.701 10.3096 112.145 11.1494C111.588 11.9795 111.31 13.3613 111.31 15.2949V23H106.842V6.62305H110.255L110.855 8.71777H111.104C111.603 7.92676 112.286 7.33105 113.155 6.93066C114.034 6.52051 115.03 6.31543 116.144 6.31543C118.048 6.31543 119.493 6.83301 120.479 7.86816C121.466 8.89355 121.959 10.3779 121.959 12.3213V23ZM140.812 6.62305V8.89355L138.248 9.55273C138.717 10.2852 138.951 11.1055 138.951 12.0137C138.951 13.7715 138.336 15.1436 137.105 16.1299C135.885 17.1064 134.186 17.5947 132.008 17.5947L131.202 17.5508L130.543 17.4775C130.084 17.8291 129.854 18.2197 129.854 18.6494C129.854 19.2939 130.675 19.6162 132.315 19.6162H135.099C136.896 19.6162 138.263 20.002 139.2 20.7734C140.147 21.5449 140.621 22.6777 140.621 24.1719C140.621 26.0859 139.82 27.5703 138.219 28.625C136.627 29.6797 134.337 30.207 131.349 30.207C129.063 30.207 127.315 29.8066 126.104 29.0059C124.903 28.2148 124.303 27.1016 124.303 25.666C124.303 24.6797 124.61 23.8545 125.226 23.1904C125.841 22.5264 126.744 22.0527 127.936 21.7695C127.477 21.5742 127.076 21.2568 126.734 20.8174C126.393 20.3682 126.222 19.8945 126.222 19.3965C126.222 18.7715 126.402 18.2539 126.764 17.8438C127.125 17.4238 127.647 17.0137 128.331 16.6133C127.472 16.2422 126.788 15.6465 126.28 14.8262C125.782 14.0059 125.533 13.0391 125.533 11.9258C125.533 10.1387 126.114 8.75684 127.276 7.78027C128.438 6.80371 130.099 6.31543 132.257 6.31543C132.716 6.31543 133.258 6.35938 133.883 6.44727C134.518 6.52539 134.923 6.58398 135.099 6.62305H140.812ZM128.17 25.3145C128.17 25.9297 128.463 26.4131 129.049 26.7646C129.645 27.1162 130.475 27.292 131.539 27.292C133.141 27.292 134.396 27.0723 135.304 26.6328C136.212 26.1934 136.666 25.5928 136.666 24.8311C136.666 24.2158 136.397 23.791 135.86 23.5566C135.323 23.3223 134.493 23.2051 133.37 23.2051H131.056C130.235 23.2051 129.547 23.3955 128.99 23.7764C128.443 24.167 128.17 24.6797 128.17 25.3145ZM129.796 11.9844C129.796 12.873 129.996 13.5762 130.396 14.0938C130.807 14.6113 131.427 14.8701 132.257 14.8701C133.097 14.8701 133.712 14.6113 134.103 14.0938C134.493 13.5762 134.688 12.873 134.688 11.9844C134.688 10.0117 133.878 9.02539 132.257 9.02539C130.616 9.02539 129.796 10.0117 129.796 11.9844ZM143.331 2.38965C143.331 0.93457 144.142 0.207031 145.763 0.207031C147.384 0.207031 148.194 0.93457 148.194 2.38965C148.194 3.08301 147.989 3.625 147.579 4.01562C147.179 4.39648 146.573 4.58691 145.763 4.58691C144.142 4.58691 143.331 3.85449 143.331 2.38965ZM147.989 23H143.521V6.62305H147.989V23ZM164.088 23H151.153V20.3633L158.741 10.0361H151.607V6.62305H163.824V9.52344L156.441 19.5869H164.088V23ZM182.457 23H177.989V13.4346C177.989 12.2529 177.779 11.3691 177.359 10.7832C176.939 10.1875 176.271 9.88965 175.353 9.88965C174.103 9.88965 173.199 10.3096 172.643 11.1494C172.086 11.9795 171.808 13.3613 171.808 15.2949V23H167.34V6.62305H170.753L171.354 8.71777H171.603C172.101 7.92676 172.784 7.33105 173.653 6.93066C174.532 6.52051 175.528 6.31543 176.642 6.31543C178.546 6.31543 179.991 6.83301 180.978 7.86816C181.964 8.89355 182.457 10.3779 182.457 12.3213V23ZM186.866 2.38965C186.866 0.93457 187.677 0.207031 189.298 0.207031C190.919 0.207031 191.729 0.93457 191.729 2.38965C191.729 3.08301 191.524 3.625 191.114 4.01562C190.714 4.39648 190.108 4.58691 189.298 4.58691C187.677 4.58691 186.866 3.85449 186.866 2.38965ZM191.524 23H187.057V6.62305H191.524V23ZM208.312 14.0938L210.26 11.6035L214.845 6.62305H219.884L213.38 13.7275L220.279 23H215.123L210.406 16.3643L208.487 17.9023V23H204.02V0.207031H208.487V10.373L208.253 14.0938H208.312ZM229.405 9.49414C228.458 9.49414 227.716 9.79688 227.179 10.4023C226.642 10.998 226.334 11.8477 226.256 12.9512H232.525C232.506 11.8477 232.218 10.998 231.661 10.4023C231.104 9.79688 230.353 9.49414 229.405 9.49414ZM230.035 23.293C227.398 23.293 225.338 22.5654 223.854 21.1104C222.369 19.6553 221.627 17.5947 221.627 14.9287C221.627 12.1846 222.311 10.0654 223.678 8.57129C225.055 7.06738 226.954 6.31543 229.376 6.31543C231.69 6.31543 233.492 6.97461 234.781 8.29297C236.07 9.61133 236.715 11.4326 236.715 13.7568V15.9248H226.153C226.202 17.1943 226.578 18.1855 227.281 18.8984C227.984 19.6113 228.971 19.9678 230.24 19.9678C231.227 19.9678 232.159 19.8652 233.038 19.6602C233.917 19.4551 234.835 19.1279 235.792 18.6787V22.1357C235.011 22.5264 234.176 22.8145 233.287 23C232.398 23.1953 231.314 23.293 230.035 23.293ZM238.004 6.62305H242.896L245.987 15.8369C246.251 16.6377 246.432 17.585 246.529 18.6787H246.617C246.725 17.6729 246.935 16.7256 247.247 15.8369L250.279 6.62305H255.069L248.141 25.0947C247.506 26.8037 246.598 28.083 245.416 28.9326C244.244 29.7822 242.872 30.207 241.3 30.207C240.528 30.207 239.771 30.124 239.029 29.958V26.4131C239.566 26.54 240.152 26.6035 240.787 26.6035C241.578 26.6035 242.267 26.3594 242.853 25.8711C243.448 25.3926 243.912 24.665 244.244 23.6885L244.508 22.8828L238.004 6.62305ZM257.237 2.38965C257.237 0.93457 258.048 0.207031 259.669 0.207031C261.29 0.207031 262.101 0.93457 262.101 2.38965C262.101 3.08301 261.896 3.625 261.485 4.01562C261.085 4.39648 260.479 4.58691 259.669 4.58691C258.048 4.58691 257.237 3.85449 257.237 2.38965ZM261.896 23H257.428V6.62305H261.896V23ZM281.715 23H277.247V13.4346C277.247 12.2529 277.037 11.3691 276.617 10.7832C276.197 10.1875 275.528 9.88965 274.61 9.88965C273.36 9.88965 272.457 10.3096 271.9 11.1494C271.344 11.9795 271.065 13.3613 271.065 15.2949V23H266.598V6.62305H270.011L270.611 8.71777H270.86C271.358 7.92676 272.042 7.33105 272.911 6.93066C273.79 6.52051 274.786 6.31543 275.899 6.31543C277.804 6.31543 279.249 6.83301 280.235 7.86816C281.222 8.89355 281.715 10.3779 281.715 12.3213V23ZM300.567 6.62305V8.89355L298.004 9.55273C298.473 10.2852 298.707 11.1055 298.707 12.0137C298.707 13.7715 298.092 15.1436 296.861 16.1299C295.641 17.1064 293.941 17.5947 291.764 17.5947L290.958 17.5508L290.299 17.4775C289.84 17.8291 289.61 18.2197 289.61 18.6494C289.61 19.2939 290.431 19.6162 292.071 19.6162H294.854C296.651 19.6162 298.019 20.002 298.956 20.7734C299.903 21.5449 300.377 22.6777 300.377 24.1719C300.377 26.0859 299.576 27.5703 297.975 28.625C296.383 29.6797 294.093 30.207 291.104 30.207C288.819 30.207 287.071 29.8066 285.86 29.0059C284.659 28.2148 284.059 27.1016 284.059 25.666C284.059 24.6797 284.366 23.8545 284.981 23.1904C285.597 22.5264 286.5 22.0527 287.691 21.7695C287.232 21.5742 286.832 21.2568 286.49 20.8174C286.148 20.3682 285.978 19.8945 285.978 19.3965C285.978 18.7715 286.158 18.2539 286.52 17.8438C286.881 17.4238 287.403 17.0137 288.087 16.6133C287.228 16.2422 286.544 15.6465 286.036 14.8262C285.538 14.0059 285.289 13.0391 285.289 11.9258C285.289 10.1387 285.87 8.75684 287.032 7.78027C288.194 6.80371 289.854 6.31543 292.013 6.31543C292.472 6.31543 293.014 6.35938 293.639 6.44727C294.273 6.52539 294.679 6.58398 294.854 6.62305H300.567ZM287.926 25.3145C287.926 25.9297 288.219 26.4131 288.805 26.7646C289.4 27.1162 290.23 27.292 291.295 27.292C292.896 27.292 294.151 27.0723 295.06 26.6328C295.968 26.1934 296.422 25.5928 296.422 24.8311C296.422 24.2158 296.153 23.791 295.616 23.5566C295.079 23.3223 294.249 23.2051 293.126 23.2051H290.812C289.991 23.2051 289.303 23.3955 288.746 23.7764C288.199 24.167 287.926 24.6797 287.926 25.3145ZM289.552 11.9844C289.552 12.873 289.752 13.5762 290.152 14.0938C290.562 14.6113 291.183 14.8701 292.013 14.8701C292.853 14.8701 293.468 14.6113 293.858 14.0938C294.249 13.5762 294.444 12.873 294.444 11.9844C294.444 10.0117 293.634 9.02539 292.013 9.02539C290.372 9.02539 289.552 10.0117 289.552 11.9844ZM303.087 2.38965C303.087 0.93457 303.897 0.207031 305.519 0.207031C307.14 0.207031 307.95 0.93457 307.95 2.38965C307.95 3.08301 307.745 3.625 307.335 4.01562C306.935 4.39648 306.329 4.58691 305.519 4.58691C303.897 4.58691 303.087 3.85449 303.087 2.38965ZM307.745 23H303.277V6.62305H307.745V23ZM329.352 6.31543C331.285 6.31543 332.799 7.07227 333.893 8.58594C334.986 10.0898 335.533 12.1553 335.533 14.7822C335.533 17.4873 334.967 19.582 333.834 21.0664C332.711 22.5508 331.178 23.293 329.234 23.293C327.311 23.293 325.802 22.5947 324.708 21.1982H324.4L323.653 23H320.24V0.207031H324.708V5.50977C324.708 6.18359 324.649 7.2627 324.532 8.74707H324.708C325.753 7.12598 327.301 6.31543 329.352 6.31543ZM327.916 9.88965C326.812 9.88965 326.007 10.2314 325.499 10.915C324.991 11.5889 324.728 12.707 324.708 14.2695V14.7529C324.708 16.5107 324.967 17.7705 325.484 18.5322C326.012 19.2939 326.842 19.6748 327.975 19.6748C328.893 19.6748 329.62 19.2549 330.157 18.415C330.704 17.5654 330.978 16.335 330.978 14.7236C330.978 13.1123 330.704 11.9062 330.157 11.1055C329.61 10.2949 328.863 9.88965 327.916 9.88965ZM342.784 14.7822C342.784 16.4033 343.048 17.6289 343.575 18.459C344.112 19.2891 344.981 19.7041 346.183 19.7041C347.374 19.7041 348.229 19.2939 348.746 18.4736C349.273 17.6436 349.537 16.4131 349.537 14.7822C349.537 13.1611 349.273 11.9453 348.746 11.1348C348.219 10.3242 347.354 9.91895 346.153 9.91895C344.962 9.91895 344.103 10.3242 343.575 11.1348C343.048 11.9355 342.784 13.1514 342.784 14.7822ZM354.107 14.7822C354.107 17.4482 353.404 19.5332 351.998 21.0371C350.592 22.541 348.634 23.293 346.124 23.293C344.552 23.293 343.165 22.9512 341.964 22.2676C340.763 21.5742 339.84 20.583 339.195 19.2939C338.551 18.0049 338.229 16.501 338.229 14.7822C338.229 12.1064 338.927 10.0264 340.323 8.54199C341.72 7.05762 343.683 6.31543 346.212 6.31543C347.784 6.31543 349.171 6.65723 350.372 7.34082C351.573 8.02441 352.496 9.00586 353.141 10.2852C353.785 11.5645 354.107 13.0635 354.107 14.7822ZM369.225 18.1367C369.225 19.8164 368.639 21.0957 367.467 21.9746C366.305 22.8535 364.562 23.293 362.237 23.293C361.046 23.293 360.03 23.21 359.19 23.0439C358.351 22.8877 357.564 22.6533 356.832 22.3408V18.6494C357.662 19.04 358.595 19.3672 359.63 19.6309C360.675 19.8945 361.593 20.0264 362.384 20.0264C364.005 20.0264 364.815 19.5576 364.815 18.6201C364.815 18.2686 364.708 17.9854 364.493 17.7705C364.278 17.5459 363.907 17.2969 363.38 17.0234C362.853 16.7402 362.149 16.4131 361.271 16.042C360.011 15.5146 359.083 15.0264 358.487 14.5771C357.901 14.1279 357.472 13.6152 357.198 13.0391C356.935 12.4531 356.803 11.7354 356.803 10.8857C356.803 9.43066 357.364 8.30762 358.487 7.5166C359.62 6.71582 361.222 6.31543 363.292 6.31543C365.265 6.31543 367.184 6.74512 369.049 7.60449L367.701 10.8271C366.881 10.4756 366.114 10.1875 365.401 9.96289C364.688 9.73828 363.961 9.62598 363.219 9.62598C361.9 9.62598 361.241 9.98242 361.241 10.6953C361.241 11.0957 361.451 11.4424 361.871 11.7354C362.301 12.0283 363.233 12.4629 364.669 13.0391C365.948 13.5566 366.886 14.04 367.481 14.4893C368.077 14.9385 368.517 15.4561 368.8 16.042C369.083 16.6279 369.225 17.3262 369.225 18.1367ZM379.493 19.792C380.626 19.792 381.456 19.4697 381.983 18.8252C382.511 18.1709 382.799 17.0332 382.848 15.4121V14.8701C382.848 13.1123 382.574 11.8525 382.027 11.0908C381.49 10.3291 380.621 9.94824 379.42 9.94824C377.32 9.94824 376.271 11.5986 376.271 14.8994C376.271 16.54 376.529 17.7656 377.047 18.5762C377.574 19.3867 378.39 19.792 379.493 19.792ZM377.896 23.293C375.963 23.293 374.449 22.5508 373.355 21.0664C372.262 19.5723 371.715 17.4971 371.715 14.8408C371.715 12.165 372.271 10.0752 373.385 8.57129C374.508 7.06738 376.041 6.31543 377.984 6.31543C379.02 6.31543 379.923 6.51074 380.694 6.90137C381.466 7.29199 382.145 7.89746 382.73 8.71777H382.848L383.243 6.62305H387.022V30.207H382.54V23.3369C382.54 22.7412 382.604 21.9209 382.73 20.876H382.54C382.062 21.667 381.427 22.2676 380.636 22.6777C379.845 23.0879 378.932 23.293 377.896 23.293ZM391.505 2.38965C391.505 0.93457 392.315 0.207031 393.937 0.207031C395.558 0.207031 396.368 0.93457 396.368 2.38965C396.368 3.08301 396.163 3.625 395.753 4.01562C395.353 4.39648 394.747 4.58691 393.937 4.58691C392.315 4.58691 391.505 3.85449 391.505 2.38965ZM396.163 23H391.695V6.62305H396.163V23ZM407.516 23.293C402.418 23.293 399.869 20.4951 399.869 14.8994C399.869 12.1162 400.562 9.99219 401.949 8.52734C403.336 7.05273 405.323 6.31543 407.911 6.31543C409.806 6.31543 411.505 6.68652 413.009 7.42871L411.69 10.8857C410.987 10.6025 410.333 10.373 409.728 10.1973C409.122 10.0117 408.517 9.91895 407.911 9.91895C405.587 9.91895 404.425 11.5693 404.425 14.8701C404.425 18.0732 405.587 19.6748 407.911 19.6748C408.771 19.6748 409.566 19.5625 410.299 19.3379C411.031 19.1035 411.764 18.7422 412.496 18.2539V22.0771C411.773 22.5361 411.041 22.8535 410.299 23.0293C409.566 23.2051 408.639 23.293 407.516 23.293ZM431.422 23H426.954V13.4346C426.954 11.0713 426.075 9.88965 424.317 9.88965C423.067 9.88965 422.164 10.3145 421.607 11.1641C421.051 12.0137 420.772 13.3906 420.772 15.2949V23H416.305V0.207031H420.772V4.85059C420.772 5.21191 420.738 6.06152 420.67 7.39941L420.567 8.71777H420.802C421.798 7.11621 423.38 6.31543 425.548 6.31543C427.472 6.31543 428.932 6.83301 429.928 7.86816C430.924 8.90332 431.422 10.3877 431.422 12.3213V23ZM450.274 6.62305V8.89355L447.711 9.55273C448.18 10.2852 448.414 11.1055 448.414 12.0137C448.414 13.7715 447.799 15.1436 446.568 16.1299C445.348 17.1064 443.648 17.5947 441.471 17.5947L440.665 17.5508L440.006 17.4775C439.547 17.8291 439.317 18.2197 439.317 18.6494C439.317 19.2939 440.138 19.6162 441.778 19.6162H444.562C446.358 19.6162 447.726 20.002 448.663 20.7734C449.61 21.5449 450.084 22.6777 450.084 24.1719C450.084 26.0859 449.283 27.5703 447.682 28.625C446.09 29.6797 443.8 30.207 440.812 30.207C438.526 30.207 436.778 29.8066 435.567 29.0059C434.366 28.2148 433.766 27.1016 433.766 25.666C433.766 24.6797 434.073 23.8545 434.688 23.1904C435.304 22.5264 436.207 22.0527 437.398 21.7695C436.939 21.5742 436.539 21.2568 436.197 20.8174C435.855 20.3682 435.685 19.8945 435.685 19.3965C435.685 18.7715 435.865 18.2539 436.227 17.8438C436.588 17.4238 437.11 17.0137 437.794 16.6133C436.935 16.2422 436.251 15.6465 435.743 14.8262C435.245 14.0059 434.996 13.0391 434.996 11.9258C434.996 10.1387 435.577 8.75684 436.739 7.78027C437.901 6.80371 439.562 6.31543 441.72 6.31543C442.179 6.31543 442.721 6.35938 443.346 6.44727C443.98 6.52539 444.386 6.58398 444.562 6.62305H450.274ZM437.633 25.3145C437.633 25.9297 437.926 26.4131 438.512 26.7646C439.107 27.1162 439.938 27.292 441.002 27.292C442.604 27.292 443.858 27.0723 444.767 26.6328C445.675 26.1934 446.129 25.5928 446.129 24.8311C446.129 24.2158 445.86 23.791 445.323 23.5566C444.786 23.3223 443.956 23.2051 442.833 23.2051H440.519C439.698 23.2051 439.01 23.3955 438.453 23.7764C437.906 24.167 437.633 24.6797 437.633 25.3145ZM439.259 11.9844C439.259 12.873 439.459 13.5762 439.859 14.0938C440.27 14.6113 440.89 14.8701 441.72 14.8701C442.56 14.8701 443.175 14.6113 443.565 14.0938C443.956 13.5762 444.151 12.873 444.151 11.9844C444.151 10.0117 443.341 9.02539 441.72 9.02539C440.079 9.02539 439.259 10.0117 439.259 11.9844ZM463.385 23L462.521 20.7734H462.403C461.651 21.7207 460.875 22.3799 460.074 22.751C459.283 23.1123 458.248 23.293 456.969 23.293C455.396 23.293 454.156 22.8438 453.248 21.9453C452.35 21.0469 451.9 19.7676 451.9 18.1074C451.9 16.3691 452.506 15.0898 453.717 14.2695C454.938 13.4395 456.773 12.9805 459.225 12.8926L462.066 12.8047V12.0869C462.066 10.4268 461.217 9.59668 459.518 9.59668C458.209 9.59668 456.671 9.99219 454.903 10.7832L453.424 7.76562C455.309 6.7793 457.398 6.28613 459.693 6.28613C461.891 6.28613 463.575 6.76465 464.747 7.72168C465.919 8.67871 466.505 10.1338 466.505 12.0869V23H463.385ZM462.066 15.4121L460.338 15.4707C459.039 15.5098 458.072 15.7441 457.438 16.1738C456.803 16.6035 456.485 17.2578 456.485 18.1367C456.485 19.3965 457.208 20.0264 458.653 20.0264C459.688 20.0264 460.514 19.7285 461.129 19.1328C461.754 18.5371 462.066 17.7461 462.066 16.7598V15.4121ZM4.90332 53.7822C4.90332 55.4033 5.16699 56.6289 5.69434 57.459C6.23145 58.2891 7.10059 58.7041 8.30176 58.7041C9.49316 58.7041 10.3477 58.2939 10.8652 57.4736C11.3926 56.6436 11.6562 55.4131 11.6562 53.7822C11.6562 52.1611 11.3926 50.9453 10.8652 50.1348C10.3379 49.3242 9.47363 48.9189 8.27246 48.9189C7.08105 48.9189 6.22168 49.3242 5.69434 50.1348C5.16699 50.9355 4.90332 52.1514 4.90332 53.7822ZM16.2266 53.7822C16.2266 56.4482 15.5234 58.5332 14.1172 60.0371C12.7109 61.541 10.7529 62.293 8.24316 62.293C6.6709 62.293 5.28418 61.9512 4.08301 61.2676C2.88184 60.5742 1.95898 59.583 1.31445 58.2939C0.669922 57.0049 0.347656 55.501 0.347656 53.7822C0.347656 51.1064 1.0459 49.0264 2.44238 47.542C3.83887 46.0576 5.80176 45.3154 8.33105 45.3154C9.90332 45.3154 11.29 45.6572 12.4912 46.3408C13.6924 47.0244 14.6152 48.0059 15.2598 49.2852C15.9043 50.5645 16.2266 52.0635 16.2266 53.7822ZM24.3857 62H19.918V39.207H24.3857V62ZM28.8975 41.3896C28.8975 39.9346 29.708 39.207 31.3291 39.207C32.9502 39.207 33.7607 39.9346 33.7607 41.3896C33.7607 42.083 33.5557 42.625 33.1455 43.0156C32.7451 43.3965 32.1396 43.5869 31.3291 43.5869C29.708 43.5869 28.8975 42.8545 28.8975 41.3896ZM33.5557 62H29.0879V45.623H33.5557V62ZM47.3691 45.3154C49.3027 45.3154 50.8164 46.0723 51.9102 47.5859C53.0039 49.0898 53.5508 51.1553 53.5508 53.7822C53.5508 56.4873 52.9844 58.582 51.8516 60.0664C50.7285 61.5508 49.1953 62.293 47.252 62.293C45.3281 62.293 43.8193 61.5947 42.7256 60.1982H42.418L41.6709 62H38.2578V39.207H42.7256V44.5098C42.7256 45.1836 42.667 46.2627 42.5498 47.7471H42.7256C43.7705 46.126 45.3184 45.3154 47.3691 45.3154ZM45.9336 48.8896C44.8301 48.8896 44.0244 49.2314 43.5166 49.915C43.0088 50.5889 42.7451 51.707 42.7256 53.2695V53.7529C42.7256 55.5107 42.9844 56.7705 43.502 57.5322C44.0293 58.2939 44.8594 58.6748 45.9922 58.6748C46.9102 58.6748 47.6377 58.2549 48.1748 57.415C48.7217 56.5654 48.9951 55.335 48.9951 53.7236C48.9951 52.1123 48.7217 50.9062 48.1748 50.1055C47.6279 49.2949 46.8809 48.8896 45.9336 48.8896ZM71.6855 62.293C66.5879 62.293 64.0391 59.4951 64.0391 53.8994C64.0391 51.1162 64.7324 48.9922 66.1191 47.5273C67.5059 46.0527 69.4932 45.3154 72.0811 45.3154C73.9756 45.3154 75.6748 45.6865 77.1787 46.4287L75.8604 49.8857C75.1572 49.6025 74.5029 49.373 73.8975 49.1973C73.292 49.0117 72.6865 48.9189 72.0811 48.9189C69.7568 48.9189 68.5947 50.5693 68.5947 53.8701C68.5947 57.0732 69.7568 58.6748 72.0811 58.6748C72.9404 58.6748 73.7363 58.5625 74.4688 58.3379C75.2012 58.1035 75.9336 57.7422 76.666 57.2539V61.0771C75.9434 61.5361 75.2109 61.8535 74.4688 62.0293C73.7363 62.2051 72.8086 62.293 71.6855 62.293ZM95.5918 62H91.124V52.4346C91.124 50.0713 90.2451 48.8896 88.4873 48.8896C87.2373 48.8896 86.334 49.3145 85.7773 50.1641C85.2207 51.0137 84.9424 52.3906 84.9424 54.2949V62H80.4746V39.207H84.9424V43.8506C84.9424 44.2119 84.9082 45.0615 84.8398 46.3994L84.7373 47.7178H84.9717C85.9678 46.1162 87.5498 45.3154 89.7178 45.3154C91.6416 45.3154 93.1016 45.833 94.0977 46.8682C95.0938 47.9033 95.5918 49.3877 95.5918 51.3213V62ZM100.001 41.3896C100.001 39.9346 100.812 39.207 102.433 39.207C104.054 39.207 104.864 39.9346 104.864 41.3896C104.864 42.083 104.659 42.625 104.249 43.0156C103.849 43.3965 103.243 43.5869 102.433 43.5869C100.812 43.5869 100.001 42.8545 100.001 41.3896ZM104.659 62H100.191V45.623H104.659V62ZM116.144 58.792C117.276 58.792 118.106 58.4697 118.634 57.8252C119.161 57.1709 119.449 56.0332 119.498 54.4121V53.8701C119.498 52.1123 119.225 50.8525 118.678 50.0908C118.141 49.3291 117.271 48.9482 116.07 48.9482C113.971 48.9482 112.921 50.5986 112.921 53.8994C112.921 55.54 113.18 56.7656 113.697 57.5762C114.225 58.3867 115.04 58.792 116.144 58.792ZM114.547 62.293C112.613 62.293 111.1 61.5508 110.006 60.0664C108.912 58.5723 108.365 56.4971 108.365 53.8408C108.365 51.165 108.922 49.0752 110.035 47.5713C111.158 46.0674 112.691 45.3154 114.635 45.3154C115.67 45.3154 116.573 45.5107 117.345 45.9014C118.116 46.292 118.795 46.8975 119.381 47.7178H119.498L119.894 45.623H123.673V69.207H119.19V62.3369C119.19 61.7412 119.254 60.9209 119.381 59.876H119.19C118.712 60.667 118.077 61.2676 117.286 61.6777C116.495 62.0879 115.582 62.293 114.547 62.293ZM128.155 41.3896C128.155 39.9346 128.966 39.207 130.587 39.207C132.208 39.207 133.019 39.9346 133.019 41.3896C133.019 42.083 132.813 42.625 132.403 43.0156C132.003 43.3965 131.397 43.5869 130.587 43.5869C128.966 43.5869 128.155 42.8545 128.155 41.3896ZM132.813 62H128.346V45.623H132.813V62ZM152.633 62H148.165V52.4346C148.165 51.2529 147.955 50.3691 147.535 49.7832C147.115 49.1875 146.446 48.8896 145.528 48.8896C144.278 48.8896 143.375 49.3096 142.818 50.1494C142.262 50.9795 141.983 52.3613 141.983 54.2949V62H137.516V45.623H140.929L141.529 47.7178H141.778C142.276 46.9268 142.96 46.3311 143.829 45.9307C144.708 45.5205 145.704 45.3154 146.817 45.3154C148.722 45.3154 150.167 45.833 151.153 46.8682C152.14 47.8936 152.633 49.3779 152.633 51.3213V62ZM171.485 45.623V47.8936L168.922 48.5527C169.391 49.2852 169.625 50.1055 169.625 51.0137C169.625 52.7715 169.01 54.1436 167.779 55.1299C166.559 56.1064 164.859 56.5947 162.682 56.5947L161.876 56.5508L161.217 56.4775C160.758 56.8291 160.528 57.2197 160.528 57.6494C160.528 58.2939 161.349 58.6162 162.989 58.6162H165.772C167.569 58.6162 168.937 59.002 169.874 59.7734C170.821 60.5449 171.295 61.6777 171.295 63.1719C171.295 65.0859 170.494 66.5703 168.893 67.625C167.301 68.6797 165.011 69.207 162.022 69.207C159.737 69.207 157.989 68.8066 156.778 68.0059C155.577 67.2148 154.977 66.1016 154.977 64.666C154.977 63.6797 155.284 62.8545 155.899 62.1904C156.515 61.5264 157.418 61.0527 158.609 60.7695C158.15 60.5742 157.75 60.2568 157.408 59.8174C157.066 59.3682 156.896 58.8945 156.896 58.3965C156.896 57.7715 157.076 57.2539 157.438 56.8438C157.799 56.4238 158.321 56.0137 159.005 55.6133C158.146 55.2422 157.462 54.6465 156.954 53.8262C156.456 53.0059 156.207 52.0391 156.207 50.9258C156.207 49.1387 156.788 47.7568 157.95 46.7803C159.112 45.8037 160.772 45.3154 162.931 45.3154C163.39 45.3154 163.932 45.3594 164.557 45.4473C165.191 45.5254 165.597 45.584 165.772 45.623H171.485ZM158.844 64.3145C158.844 64.9297 159.137 65.4131 159.723 65.7646C160.318 66.1162 161.148 66.292 162.213 66.292C163.814 66.292 165.069 66.0723 165.978 65.6328C166.886 65.1934 167.34 64.5928 167.34 63.8311C167.34 63.2158 167.071 62.791 166.534 62.5566C165.997 62.3223 165.167 62.2051 164.044 62.2051H161.729C160.909 62.2051 160.221 62.3955 159.664 62.7764C159.117 63.167 158.844 63.6797 158.844 64.3145ZM160.47 50.9844C160.47 51.873 160.67 52.5762 161.07 53.0938C161.48 53.6113 162.101 53.8701 162.931 53.8701C163.771 53.8701 164.386 53.6113 164.776 53.0938C165.167 52.5762 165.362 51.873 165.362 50.9844C165.362 49.0117 164.552 48.0254 162.931 48.0254C161.29 48.0254 160.47 49.0117 160.47 50.9844Z" fill="black"/>
</svg>
