<svg width="460" height="65" viewBox="0 0 460 65" fill="none" xmlns="http://www.w3.org/2000/svg">
<path d="M9.99219 13H8.47656L2.23438 3.41406H2.17188C2.25521 4.53906 2.29688 5.57031 2.29688 6.50781V13H1.07031V1.57812H2.57031L8.79688 11.125H8.85938C8.84896 10.9844 8.82552 10.5339 8.78906 9.77344C8.7526 9.00781 8.73958 8.46094 8.75 8.13281V1.57812H9.99219V13ZM14.1562 4.4375V9.99219C14.1562 10.6901 14.3151 11.2109 14.6328 11.5547C14.9505 11.8984 15.4479 12.0703 16.125 12.0703C17.0208 12.0703 17.6745 11.8255 18.0859 11.3359C18.5026 10.8464 18.7109 10.0469 18.7109 8.9375V4.4375H20.0078V13H18.9375L18.75 11.8516H18.6797C18.4141 12.2734 18.0443 12.5964 17.5703 12.8203C17.1016 13.0443 16.5651 13.1562 15.9609 13.1562C14.9193 13.1562 14.138 12.9089 13.6172 12.4141C13.1016 11.9193 12.8438 11.1276 12.8438 10.0391V4.4375H14.1562ZM24.0625 13H22.7656V0.84375H24.0625V13ZM28.1094 13H26.8125V0.84375H28.1094V13ZM36.125 13L35.8672 11.7812H35.8047C35.3776 12.3177 34.9505 12.6823 34.5234 12.875C34.1016 13.0625 33.5729 13.1562 32.9375 13.1562C32.0885 13.1562 31.4219 12.9375 30.9375 12.5C30.4583 12.0625 30.2188 11.4401 30.2188 10.6328C30.2188 8.90365 31.6016 7.9974 34.3672 7.91406L35.8203 7.86719V7.33594C35.8203 6.66406 35.6745 6.16927 35.3828 5.85156C35.0964 5.52865 34.6354 5.36719 34 5.36719C33.2865 5.36719 32.4792 5.58594 31.5781 6.02344L31.1797 5.03125C31.6016 4.80208 32.0625 4.6224 32.5625 4.49219C33.0677 4.36198 33.5729 4.29688 34.0781 4.29688C35.099 4.29688 35.8542 4.52344 36.3438 4.97656C36.8385 5.42969 37.0859 6.15625 37.0859 7.15625V13H36.125ZM33.1953 12.0859C34.0026 12.0859 34.6354 11.8646 35.0938 11.4219C35.5573 10.9792 35.7891 10.3594 35.7891 9.5625V8.78906L34.4922 8.84375C33.4609 8.88021 32.7161 9.04167 32.2578 9.32812C31.8047 9.60938 31.5781 10.0495 31.5781 10.6484C31.5781 11.1172 31.7188 11.474 32 11.7188C32.2865 11.9635 32.6849 12.0859 33.1953 12.0859ZM50.6797 13V7.42969C50.6797 6.7474 50.5339 6.23698 50.2422 5.89844C49.9505 5.55469 49.4974 5.38281 48.8828 5.38281C48.0755 5.38281 47.4792 5.61458 47.0938 6.07812C46.7083 6.54167 46.5156 7.25521 46.5156 8.21875V13H45.2188V7.42969C45.2188 6.7474 45.0729 6.23698 44.7812 5.89844C44.4896 5.55469 44.0339 5.38281 43.4141 5.38281C42.6016 5.38281 42.0052 5.6276 41.625 6.11719C41.25 6.60156 41.0625 7.39844 41.0625 8.50781V13H39.7656V4.4375H40.8203L41.0312 5.60938H41.0938C41.3385 5.19271 41.6823 4.86719 42.125 4.63281C42.5729 4.39844 43.0729 4.28125 43.625 4.28125C44.9635 4.28125 45.8385 4.76562 46.25 5.73438H46.3125C46.5677 5.28646 46.9375 4.93229 47.4219 4.67188C47.9062 4.41146 48.4583 4.28125 49.0781 4.28125C50.0469 4.28125 50.7708 4.53125 51.25 5.03125C51.7344 5.52604 51.9766 6.32031 51.9766 7.41406V13H50.6797ZM60.1094 13H58.8125V0.84375H60.1094V13ZM68.125 13L67.8672 11.7812H67.8047C67.3776 12.3177 66.9505 12.6823 66.5234 12.875C66.1016 13.0625 65.5729 13.1562 64.9375 13.1562C64.0885 13.1562 63.4219 12.9375 62.9375 12.5C62.4583 12.0625 62.2188 11.4401 62.2188 10.6328C62.2188 8.90365 63.6016 7.9974 66.3672 7.91406L67.8203 7.86719V7.33594C67.8203 6.66406 67.6745 6.16927 67.3828 5.85156C67.0964 5.52865 66.6354 5.36719 66 5.36719C65.2865 5.36719 64.4792 5.58594 63.5781 6.02344L63.1797 5.03125C63.6016 4.80208 64.0625 4.6224 64.5625 4.49219C65.0677 4.36198 65.5729 4.29688 66.0781 4.29688C67.099 4.29688 67.8542 4.52344 68.3438 4.97656C68.8385 5.42969 69.0859 6.15625 69.0859 7.15625V13H68.125ZM65.1953 12.0859C66.0026 12.0859 66.6354 11.8646 67.0938 11.4219C67.5573 10.9792 67.7891 10.3594 67.7891 9.5625V8.78906L66.4922 8.84375C65.4609 8.88021 64.7161 9.04167 64.2578 9.32812C63.8047 9.60938 63.5781 10.0495 63.5781 10.6484C63.5781 11.1172 63.7188 11.474 64 11.7188C64.2865 11.9635 64.6849 12.0859 65.1953 12.0859ZM79.1562 8.71094C79.1562 10.1068 78.8047 11.1979 78.1016 11.9844C77.3984 12.7656 76.4271 13.1562 75.1875 13.1562C74.4219 13.1562 73.7422 12.9766 73.1484 12.6172C72.5547 12.2578 72.0964 11.7422 71.7734 11.0703C71.4505 10.3984 71.2891 9.61198 71.2891 8.71094C71.2891 7.3151 71.638 6.22917 72.3359 5.45312C73.0339 4.67188 74.0026 4.28125 75.2422 4.28125C76.4401 4.28125 77.3906 4.67969 78.0938 5.47656C78.8021 6.27344 79.1562 7.35156 79.1562 8.71094ZM72.6328 8.71094C72.6328 9.80469 72.8516 10.638 73.2891 11.2109C73.7266 11.7839 74.3698 12.0703 75.2188 12.0703C76.0677 12.0703 76.7109 11.7865 77.1484 11.2188C77.5911 10.6458 77.8125 9.8099 77.8125 8.71094C77.8125 7.6224 77.5911 6.79688 77.1484 6.23438C76.7109 5.66667 76.0625 5.38281 75.2031 5.38281C74.3542 5.38281 73.7135 5.66146 73.2812 6.21875C72.849 6.77604 72.6328 7.60677 72.6328 8.71094ZM85.3438 4.28125C85.724 4.28125 86.0651 4.3125 86.3672 4.375L86.1875 5.57812C85.8333 5.5 85.5208 5.46094 85.25 5.46094C84.5573 5.46094 83.9635 5.74219 83.4688 6.30469C82.9792 6.86719 82.7344 7.56771 82.7344 8.40625V13H81.4375V4.4375H82.5078L82.6562 6.02344H82.7188C83.0365 5.46615 83.4193 5.03646 83.8672 4.73438C84.3151 4.43229 84.8073 4.28125 85.3438 4.28125ZM91.5859 13.1562C90.3203 13.1562 89.3203 12.7708 88.5859 12C87.8568 11.2292 87.4922 10.1589 87.4922 8.78906C87.4922 7.40885 87.8307 6.3125 88.5078 5.5C89.1901 4.6875 90.1042 4.28125 91.25 4.28125C92.3229 4.28125 93.1719 4.63542 93.7969 5.34375C94.4219 6.04688 94.7344 6.97656 94.7344 8.13281V8.95312H88.8359C88.862 9.95833 89.1146 10.7214 89.5938 11.2422C90.0781 11.763 90.7578 12.0234 91.6328 12.0234C92.5547 12.0234 93.4661 11.8307 94.3672 11.4453V12.6016C93.9089 12.7995 93.474 12.9401 93.0625 13.0234C92.6562 13.112 92.1641 13.1562 91.5859 13.1562ZM91.2344 5.36719C90.5469 5.36719 89.9974 5.59115 89.5859 6.03906C89.1797 6.48698 88.9401 7.10677 88.8672 7.89844H93.3438C93.3438 7.08073 93.1615 6.45573 92.7969 6.02344C92.4323 5.58594 91.9115 5.36719 91.2344 5.36719ZM100.57 13.1562C99.3047 13.1562 98.3047 12.7708 97.5703 12C96.8411 11.2292 96.4766 10.1589 96.4766 8.78906C96.4766 7.40885 96.8151 6.3125 97.4922 5.5C98.1745 4.6875 99.0885 4.28125 100.234 4.28125C101.307 4.28125 102.156 4.63542 102.781 5.34375C103.406 6.04688 103.719 6.97656 103.719 8.13281V8.95312H97.8203C97.8464 9.95833 98.099 10.7214 98.5781 11.2422C99.0625 11.763 99.7422 12.0234 100.617 12.0234C101.539 12.0234 102.451 11.8307 103.352 11.4453V12.6016C102.893 12.7995 102.458 12.9401 102.047 13.0234C101.641 13.112 101.148 13.1562 100.57 13.1562ZM100.219 5.36719C99.5312 5.36719 98.9818 5.59115 98.5703 6.03906C98.1641 6.48698 97.9245 7.10677 97.8516 7.89844H102.328C102.328 7.08073 102.146 6.45573 101.781 6.02344C101.417 5.58594 100.896 5.36719 100.219 5.36719ZM108.703 12.0859C108.932 12.0859 109.154 12.0703 109.367 12.0391C109.581 12.0026 109.75 11.9661 109.875 11.9297V12.9219C109.734 12.9896 109.526 13.0443 109.25 13.0859C108.979 13.1328 108.734 13.1562 108.516 13.1562C106.859 13.1562 106.031 12.2839 106.031 10.5391V5.44531H104.805V4.82031L106.031 4.28125L106.578 2.45312H107.328V4.4375H109.812V5.44531H107.328V10.4844C107.328 11 107.451 11.3958 107.695 11.6719C107.94 11.9479 108.276 12.0859 108.703 12.0859ZM121.609 13V7.46094C121.609 6.76302 121.451 6.24219 121.133 5.89844C120.815 5.55469 120.318 5.38281 119.641 5.38281C118.745 5.38281 118.089 5.625 117.672 6.10938C117.255 6.59375 117.047 7.39323 117.047 8.50781V13H115.75V4.4375H116.805L117.016 5.60938H117.078C117.344 5.1875 117.716 4.86198 118.195 4.63281C118.674 4.39844 119.208 4.28125 119.797 4.28125C120.828 4.28125 121.604 4.53125 122.125 5.03125C122.646 5.52604 122.906 6.32031 122.906 7.41406V13H121.609ZM129.195 13.1562C127.93 13.1562 126.93 12.7708 126.195 12C125.466 11.2292 125.102 10.1589 125.102 8.78906C125.102 7.40885 125.44 6.3125 126.117 5.5C126.799 4.6875 127.714 4.28125 128.859 4.28125C129.932 4.28125 130.781 4.63542 131.406 5.34375C132.031 6.04688 132.344 6.97656 132.344 8.13281V8.95312H126.445C126.471 9.95833 126.724 10.7214 127.203 11.2422C127.688 11.763 128.367 12.0234 129.242 12.0234C130.164 12.0234 131.076 11.8307 131.977 11.4453V12.6016C131.518 12.7995 131.083 12.9401 130.672 13.0234C130.266 13.112 129.773 13.1562 129.195 13.1562ZM128.844 5.36719C128.156 5.36719 127.607 5.59115 127.195 6.03906C126.789 6.48698 126.549 7.10677 126.477 7.89844H130.953C130.953 7.08073 130.771 6.45573 130.406 6.02344C130.042 5.58594 129.521 5.36719 128.844 5.36719ZM137.984 13.1562C136.745 13.1562 135.784 12.776 135.102 12.0156C134.424 11.25 134.086 10.1693 134.086 8.77344C134.086 7.34115 134.43 6.23438 135.117 5.45312C135.81 4.67188 136.794 4.28125 138.07 4.28125C138.482 4.28125 138.893 4.32552 139.305 4.41406C139.716 4.5026 140.039 4.60677 140.273 4.72656L139.875 5.82812C139.589 5.71354 139.276 5.61979 138.938 5.54688C138.599 5.46875 138.299 5.42969 138.039 5.42969C136.299 5.42969 135.43 6.53906 135.43 8.75781C135.43 9.8099 135.641 10.6172 136.062 11.1797C136.49 11.7422 137.12 12.0234 137.953 12.0234C138.667 12.0234 139.398 11.8698 140.148 11.5625V12.7109C139.576 13.0078 138.854 13.1562 137.984 13.1562ZM149.109 12.0859C149.339 12.0859 149.56 12.0703 149.773 12.0391C149.987 12.0026 150.156 11.9661 150.281 11.9297V12.9219C150.141 12.9896 149.932 13.0443 149.656 13.0859C149.385 13.1328 149.141 13.1562 148.922 13.1562C147.266 13.1562 146.438 12.2839 146.438 10.5391V5.44531H145.211V4.82031L146.438 4.28125L146.984 2.45312H147.734V4.4375H150.219V5.44531H147.734V10.4844C147.734 11 147.857 11.3958 148.102 11.6719C148.346 11.9479 148.682 12.0859 149.109 12.0859ZM153.219 4.4375V9.99219C153.219 10.6901 153.378 11.2109 153.695 11.5547C154.013 11.8984 154.51 12.0703 155.188 12.0703C156.083 12.0703 156.737 11.8255 157.148 11.3359C157.565 10.8464 157.773 10.0469 157.773 8.9375V4.4375H159.07V13H158L157.812 11.8516H157.742C157.477 12.2734 157.107 12.5964 156.633 12.8203C156.164 13.0443 155.628 13.1562 155.023 13.1562C153.982 13.1562 153.201 12.9089 152.68 12.4141C152.164 11.9193 151.906 11.1276 151.906 10.0391V4.4375H153.219ZM165.734 4.28125C166.115 4.28125 166.456 4.3125 166.758 4.375L166.578 5.57812C166.224 5.5 165.911 5.46094 165.641 5.46094C164.948 5.46094 164.354 5.74219 163.859 6.30469C163.37 6.86719 163.125 7.56771 163.125 8.40625V13H161.828V4.4375H162.898L163.047 6.02344H163.109C163.427 5.46615 163.81 5.03646 164.258 4.73438C164.706 4.43229 165.198 4.28125 165.734 4.28125ZM172.344 13.1562C171.786 13.1562 171.276 13.0547 170.812 12.8516C170.354 12.6432 169.969 12.3255 169.656 11.8984H169.562C169.625 12.3984 169.656 12.8724 169.656 13.3203V16.8438H168.359V4.4375H169.414L169.594 5.60938H169.656C169.99 5.14062 170.378 4.80208 170.82 4.59375C171.263 4.38542 171.771 4.28125 172.344 4.28125C173.479 4.28125 174.354 4.66927 174.969 5.44531C175.589 6.22135 175.898 7.3099 175.898 8.71094C175.898 10.1172 175.583 11.2109 174.953 11.9922C174.328 12.7682 173.458 13.1562 172.344 13.1562ZM172.156 5.38281C171.281 5.38281 170.648 5.625 170.258 6.10938C169.867 6.59375 169.667 7.36458 169.656 8.42188V8.71094C169.656 9.91406 169.857 10.776 170.258 11.2969C170.659 11.8125 171.302 12.0703 172.188 12.0703C172.927 12.0703 173.505 11.7708 173.922 11.1719C174.344 10.5729 174.555 9.7474 174.555 8.69531C174.555 7.6276 174.344 6.8099 173.922 6.24219C173.505 5.66927 172.917 5.38281 172.156 5.38281ZM179.469 13H178.172V4.4375H179.469V13ZM178.062 2.11719C178.062 1.82031 178.135 1.60417 178.281 1.46875C178.427 1.32812 178.609 1.25781 178.828 1.25781C179.036 1.25781 179.216 1.32812 179.367 1.46875C179.518 1.60938 179.594 1.82552 179.594 2.11719C179.594 2.40885 179.518 2.6276 179.367 2.77344C179.216 2.91406 179.036 2.98438 178.828 2.98438C178.609 2.98438 178.427 2.91406 178.281 2.77344C178.135 2.6276 178.062 2.40885 178.062 2.11719ZM187.742 10.6641C187.742 11.4609 187.445 12.0755 186.852 12.5078C186.258 12.9401 185.424 13.1562 184.352 13.1562C183.216 13.1562 182.331 12.9766 181.695 12.6172V11.4141C182.107 11.6224 182.547 11.7865 183.016 11.9062C183.49 12.026 183.945 12.0859 184.383 12.0859C185.06 12.0859 185.581 11.9792 185.945 11.7656C186.31 11.5469 186.492 11.2161 186.492 10.7734C186.492 10.4401 186.346 10.1562 186.055 9.92188C185.768 9.68229 185.206 9.40104 184.367 9.07812C183.57 8.78125 183.003 8.52344 182.664 8.30469C182.331 8.08073 182.081 7.82812 181.914 7.54688C181.753 7.26562 181.672 6.92969 181.672 6.53906C181.672 5.84115 181.956 5.29167 182.523 4.89062C183.091 4.48438 183.87 4.28125 184.859 4.28125C185.781 4.28125 186.682 4.46875 187.562 4.84375L187.102 5.89844C186.242 5.54427 185.464 5.36719 184.766 5.36719C184.151 5.36719 183.688 5.46354 183.375 5.65625C183.062 5.84896 182.906 6.11458 182.906 6.45312C182.906 6.68229 182.964 6.8776 183.078 7.03906C183.198 7.20052 183.388 7.35417 183.648 7.5C183.909 7.64583 184.409 7.85677 185.148 8.13281C186.164 8.5026 186.849 8.875 187.203 9.25C187.562 9.625 187.742 10.0964 187.742 10.6641ZM197.633 13.1562C196.367 13.1562 195.367 12.7708 194.633 12C193.904 11.2292 193.539 10.1589 193.539 8.78906C193.539 7.40885 193.878 6.3125 194.555 5.5C195.237 4.6875 196.151 4.28125 197.297 4.28125C198.37 4.28125 199.219 4.63542 199.844 5.34375C200.469 6.04688 200.781 6.97656 200.781 8.13281V8.95312H194.883C194.909 9.95833 195.161 10.7214 195.641 11.2422C196.125 11.763 196.805 12.0234 197.68 12.0234C198.602 12.0234 199.513 11.8307 200.414 11.4453V12.6016C199.956 12.7995 199.521 12.9401 199.109 13.0234C198.703 13.112 198.211 13.1562 197.633 13.1562ZM197.281 5.36719C196.594 5.36719 196.044 5.59115 195.633 6.03906C195.227 6.48698 194.987 7.10677 194.914 7.89844H199.391C199.391 7.08073 199.208 6.45573 198.844 6.02344C198.479 5.58594 197.958 5.36719 197.281 5.36719ZM205.766 12.0859C205.995 12.0859 206.216 12.0703 206.43 12.0391C206.643 12.0026 206.812 11.9661 206.938 11.9297V12.9219C206.797 12.9896 206.589 13.0443 206.312 13.0859C206.042 13.1328 205.797 13.1562 205.578 13.1562C203.922 13.1562 203.094 12.2839 203.094 10.5391V5.44531H201.867V4.82031L203.094 4.28125L203.641 2.45312H204.391V4.4375H206.875V5.44531H204.391V10.4844C204.391 11 204.513 11.3958 204.758 11.6719C205.003 11.9479 205.339 12.0859 205.766 12.0859ZM214.031 4.4375V9.99219C214.031 10.6901 214.19 11.2109 214.508 11.5547C214.826 11.8984 215.323 12.0703 216 12.0703C216.896 12.0703 217.549 11.8255 217.961 11.3359C218.378 10.8464 218.586 10.0469 218.586 8.9375V4.4375H219.883V13H218.812L218.625 11.8516H218.555C218.289 12.2734 217.919 12.5964 217.445 12.8203C216.977 13.0443 216.44 13.1562 215.836 13.1562C214.794 13.1562 214.013 12.9089 213.492 12.4141C212.977 11.9193 212.719 11.1276 212.719 10.0391V4.4375H214.031ZM223.938 13H222.641V0.84375H223.938V13ZM229.453 12.0859C229.682 12.0859 229.904 12.0703 230.117 12.0391C230.331 12.0026 230.5 11.9661 230.625 11.9297V12.9219C230.484 12.9896 230.276 13.0443 230 13.0859C229.729 13.1328 229.484 13.1562 229.266 13.1562C227.609 13.1562 226.781 12.2839 226.781 10.5391V5.44531H225.555V4.82031L226.781 4.28125L227.328 2.45312H228.078V4.4375H230.562V5.44531H228.078V10.4844C228.078 11 228.201 11.3958 228.445 11.6719C228.69 11.9479 229.026 12.0859 229.453 12.0859ZM236.25 4.28125C236.63 4.28125 236.971 4.3125 237.273 4.375L237.094 5.57812C236.74 5.5 236.427 5.46094 236.156 5.46094C235.464 5.46094 234.87 5.74219 234.375 6.30469C233.885 6.86719 233.641 7.56771 233.641 8.40625V13H232.344V4.4375H233.414L233.562 6.02344H233.625C233.943 5.46615 234.326 5.03646 234.773 4.73438C235.221 4.43229 235.714 4.28125 236.25 4.28125ZM240.172 13H238.875V4.4375H240.172V13ZM238.766 2.11719C238.766 1.82031 238.839 1.60417 238.984 1.46875C239.13 1.32812 239.312 1.25781 239.531 1.25781C239.74 1.25781 239.919 1.32812 240.07 1.46875C240.221 1.60938 240.297 1.82552 240.297 2.11719C240.297 2.40885 240.221 2.6276 240.07 2.77344C239.919 2.91406 239.74 2.98438 239.531 2.98438C239.312 2.98438 239.13 2.91406 238.984 2.77344C238.839 2.6276 238.766 2.40885 238.766 2.11719ZM246.344 13.1562C245.104 13.1562 244.143 12.776 243.461 12.0156C242.784 11.25 242.445 10.1693 242.445 8.77344C242.445 7.34115 242.789 6.23438 243.477 5.45312C244.169 4.67188 245.154 4.28125 246.43 4.28125C246.841 4.28125 247.253 4.32552 247.664 4.41406C248.076 4.5026 248.398 4.60677 248.633 4.72656L248.234 5.82812C247.948 5.71354 247.635 5.61979 247.297 5.54688C246.958 5.46875 246.659 5.42969 246.398 5.42969C244.659 5.42969 243.789 6.53906 243.789 8.75781C243.789 9.8099 244 10.6172 244.422 11.1797C244.849 11.7422 245.479 12.0234 246.312 12.0234C247.026 12.0234 247.758 11.8698 248.508 11.5625V12.7109C247.935 13.0078 247.214 13.1562 246.344 13.1562ZM254.164 13.1562C252.898 13.1562 251.898 12.7708 251.164 12C250.435 11.2292 250.07 10.1589 250.07 8.78906C250.07 7.40885 250.409 6.3125 251.086 5.5C251.768 4.6875 252.682 4.28125 253.828 4.28125C254.901 4.28125 255.75 4.63542 256.375 5.34375C257 6.04688 257.312 6.97656 257.312 8.13281V8.95312H251.414C251.44 9.95833 251.693 10.7214 252.172 11.2422C252.656 11.763 253.336 12.0234 254.211 12.0234C255.133 12.0234 256.044 11.8307 256.945 11.4453V12.6016C256.487 12.7995 256.052 12.9401 255.641 13.0234C255.234 13.112 254.742 13.1562 254.164 13.1562ZM253.812 5.36719C253.125 5.36719 252.576 5.59115 252.164 6.03906C251.758 6.48698 251.518 7.10677 251.445 7.89844H255.922C255.922 7.08073 255.74 6.45573 255.375 6.02344C255.01 5.58594 254.49 5.36719 253.812 5.36719ZM265.055 10.6641C265.055 11.4609 264.758 12.0755 264.164 12.5078C263.57 12.9401 262.737 13.1562 261.664 13.1562C260.529 13.1562 259.643 12.9766 259.008 12.6172V11.4141C259.419 11.6224 259.859 11.7865 260.328 11.9062C260.802 12.026 261.258 12.0859 261.695 12.0859C262.372 12.0859 262.893 11.9792 263.258 11.7656C263.622 11.5469 263.805 11.2161 263.805 10.7734C263.805 10.4401 263.659 10.1562 263.367 9.92188C263.081 9.68229 262.518 9.40104 261.68 9.07812C260.883 8.78125 260.315 8.52344 259.977 8.30469C259.643 8.08073 259.393 7.82812 259.227 7.54688C259.065 7.26562 258.984 6.92969 258.984 6.53906C258.984 5.84115 259.268 5.29167 259.836 4.89062C260.404 4.48438 261.182 4.28125 262.172 4.28125C263.094 4.28125 263.995 4.46875 264.875 4.84375L264.414 5.89844C263.555 5.54427 262.776 5.36719 262.078 5.36719C261.464 5.36719 261 5.46354 260.688 5.65625C260.375 5.84896 260.219 6.11458 260.219 6.45312C260.219 6.68229 260.276 6.8776 260.391 7.03906C260.51 7.20052 260.701 7.35417 260.961 7.5C261.221 7.64583 261.721 7.85677 262.461 8.13281C263.477 8.5026 264.161 8.875 264.516 9.25C264.875 9.625 265.055 10.0964 265.055 10.6641ZM266.984 12.1719C266.984 11.8229 267.062 11.5599 267.219 11.3828C267.38 11.2005 267.609 11.1094 267.906 11.1094C268.208 11.1094 268.443 11.2005 268.609 11.3828C268.781 11.5599 268.867 11.8229 268.867 12.1719C268.867 12.5104 268.781 12.7708 268.609 12.9531C268.438 13.1354 268.203 13.2266 267.906 13.2266C267.641 13.2266 267.419 13.1458 267.242 12.9844C267.07 12.8177 266.984 12.5469 266.984 12.1719ZM284.906 7.17969C284.906 9.0651 284.393 10.5078 283.367 11.5078C282.346 12.5026 280.875 13 278.953 13H275.789V1.57812H279.289C281.065 1.57812 282.445 2.07031 283.43 3.05469C284.414 4.03906 284.906 5.41406 284.906 7.17969ZM283.5 7.22656C283.5 5.73698 283.125 4.61458 282.375 3.85938C281.63 3.10417 280.521 2.72656 279.047 2.72656H277.117V11.8516H278.734C280.318 11.8516 281.508 11.4635 282.305 10.6875C283.102 9.90625 283.5 8.7526 283.5 7.22656ZM288.484 4.4375V9.99219C288.484 10.6901 288.643 11.2109 288.961 11.5547C289.279 11.8984 289.776 12.0703 290.453 12.0703C291.349 12.0703 292.003 11.8255 292.414 11.3359C292.831 10.8464 293.039 10.0469 293.039 8.9375V4.4375H294.336V13H293.266L293.078 11.8516H293.008C292.742 12.2734 292.372 12.5964 291.898 12.8203C291.43 13.0443 290.893 13.1562 290.289 13.1562C289.247 13.1562 288.466 12.9089 287.945 12.4141C287.43 11.9193 287.172 11.1276 287.172 10.0391V4.4375H288.484ZM298.391 13H297.094V4.4375H298.391V13ZM296.984 2.11719C296.984 1.82031 297.057 1.60417 297.203 1.46875C297.349 1.32812 297.531 1.25781 297.75 1.25781C297.958 1.25781 298.138 1.32812 298.289 1.46875C298.44 1.60938 298.516 1.82552 298.516 2.11719C298.516 2.40885 298.44 2.6276 298.289 2.77344C298.138 2.91406 297.958 2.98438 297.75 2.98438C297.531 2.98438 297.349 2.91406 297.203 2.77344C297.057 2.6276 296.984 2.40885 296.984 2.11719ZM306.664 10.6641C306.664 11.4609 306.367 12.0755 305.773 12.5078C305.18 12.9401 304.346 13.1562 303.273 13.1562C302.138 13.1562 301.253 12.9766 300.617 12.6172V11.4141C301.029 11.6224 301.469 11.7865 301.938 11.9062C302.411 12.026 302.867 12.0859 303.305 12.0859C303.982 12.0859 304.503 11.9792 304.867 11.7656C305.232 11.5469 305.414 11.2161 305.414 10.7734C305.414 10.4401 305.268 10.1562 304.977 9.92188C304.69 9.68229 304.128 9.40104 303.289 9.07812C302.492 8.78125 301.924 8.52344 301.586 8.30469C301.253 8.08073 301.003 7.82812 300.836 7.54688C300.674 7.26562 300.594 6.92969 300.594 6.53906C300.594 5.84115 300.878 5.29167 301.445 4.89062C302.013 4.48438 302.792 4.28125 303.781 4.28125C304.703 4.28125 305.604 4.46875 306.484 4.84375L306.023 5.89844C305.164 5.54427 304.385 5.36719 303.688 5.36719C303.073 5.36719 302.609 5.46354 302.297 5.65625C301.984 5.84896 301.828 6.11458 301.828 6.45312C301.828 6.68229 301.885 6.8776 302 7.03906C302.12 7.20052 302.31 7.35417 302.57 7.5C302.831 7.64583 303.331 7.85677 304.07 8.13281C305.086 8.5026 305.771 8.875 306.125 9.25C306.484 9.625 306.664 10.0964 306.664 10.6641ZM318.461 10.6641C318.461 11.4609 318.164 12.0755 317.57 12.5078C316.977 12.9401 316.143 13.1562 315.07 13.1562C313.935 13.1562 313.049 12.9766 312.414 12.6172V11.4141C312.826 11.6224 313.266 11.7865 313.734 11.9062C314.208 12.026 314.664 12.0859 315.102 12.0859C315.779 12.0859 316.299 11.9792 316.664 11.7656C317.029 11.5469 317.211 11.2161 317.211 10.7734C317.211 10.4401 317.065 10.1562 316.773 9.92188C316.487 9.68229 315.924 9.40104 315.086 9.07812C314.289 8.78125 313.721 8.52344 313.383 8.30469C313.049 8.08073 312.799 7.82812 312.633 7.54688C312.471 7.26562 312.391 6.92969 312.391 6.53906C312.391 5.84115 312.674 5.29167 313.242 4.89062C313.81 4.48438 314.589 4.28125 315.578 4.28125C316.5 4.28125 317.401 4.46875 318.281 4.84375L317.82 5.89844C316.961 5.54427 316.182 5.36719 315.484 5.36719C314.87 5.36719 314.406 5.46354 314.094 5.65625C313.781 5.84896 313.625 6.11458 313.625 6.45312C313.625 6.68229 313.682 6.8776 313.797 7.03906C313.917 7.20052 314.107 7.35417 314.367 7.5C314.628 7.64583 315.128 7.85677 315.867 8.13281C316.883 8.5026 317.568 8.875 317.922 9.25C318.281 9.625 318.461 10.0964 318.461 10.6641ZM321.875 13H320.578V4.4375H321.875V13ZM320.469 2.11719C320.469 1.82031 320.542 1.60417 320.688 1.46875C320.833 1.32812 321.016 1.25781 321.234 1.25781C321.443 1.25781 321.622 1.32812 321.773 1.46875C321.924 1.60938 322 1.82552 322 2.11719C322 2.40885 321.924 2.6276 321.773 2.77344C321.622 2.91406 321.443 2.98438 321.234 2.98438C321.016 2.98438 320.833 2.91406 320.688 2.77344C320.542 2.6276 320.469 2.40885 320.469 2.11719ZM327.391 12.0859C327.62 12.0859 327.841 12.0703 328.055 12.0391C328.268 12.0026 328.438 11.9661 328.562 11.9297V12.9219C328.422 12.9896 328.214 13.0443 327.938 13.0859C327.667 13.1328 327.422 13.1562 327.203 13.1562C325.547 13.1562 324.719 12.2839 324.719 10.5391V5.44531H323.492V4.82031L324.719 4.28125L325.266 2.45312H326.016V4.4375H328.5V5.44531H326.016V10.4844C326.016 11 326.138 11.3958 326.383 11.6719C326.628 11.9479 326.964 12.0859 327.391 12.0859ZM339.703 13L339.445 11.7812H339.383C338.956 12.3177 338.529 12.6823 338.102 12.875C337.68 13.0625 337.151 13.1562 336.516 13.1562C335.667 13.1562 335 12.9375 334.516 12.5C334.036 12.0625 333.797 11.4401 333.797 10.6328C333.797 8.90365 335.18 7.9974 337.945 7.91406L339.398 7.86719V7.33594C339.398 6.66406 339.253 6.16927 338.961 5.85156C338.674 5.52865 338.214 5.36719 337.578 5.36719C336.865 5.36719 336.057 5.58594 335.156 6.02344L334.758 5.03125C335.18 4.80208 335.641 4.6224 336.141 4.49219C336.646 4.36198 337.151 4.29688 337.656 4.29688C338.677 4.29688 339.432 4.52344 339.922 4.97656C340.417 5.42969 340.664 6.15625 340.664 7.15625V13H339.703ZM336.773 12.0859C337.581 12.0859 338.214 11.8646 338.672 11.4219C339.135 10.9792 339.367 10.3594 339.367 9.5625V8.78906L338.07 8.84375C337.039 8.88021 336.294 9.04167 335.836 9.32812C335.383 9.60938 335.156 10.0495 335.156 10.6484C335.156 11.1172 335.297 11.474 335.578 11.7188C335.865 11.9635 336.263 12.0859 336.773 12.0859ZM354.258 13V7.42969C354.258 6.7474 354.112 6.23698 353.82 5.89844C353.529 5.55469 353.076 5.38281 352.461 5.38281C351.654 5.38281 351.057 5.61458 350.672 6.07812C350.286 6.54167 350.094 7.25521 350.094 8.21875V13H348.797V7.42969C348.797 6.7474 348.651 6.23698 348.359 5.89844C348.068 5.55469 347.612 5.38281 346.992 5.38281C346.18 5.38281 345.583 5.6276 345.203 6.11719C344.828 6.60156 344.641 7.39844 344.641 8.50781V13H343.344V4.4375H344.398L344.609 5.60938H344.672C344.917 5.19271 345.26 4.86719 345.703 4.63281C346.151 4.39844 346.651 4.28125 347.203 4.28125C348.542 4.28125 349.417 4.76562 349.828 5.73438H349.891C350.146 5.28646 350.516 4.93229 351 4.67188C351.484 4.41146 352.036 4.28125 352.656 4.28125C353.625 4.28125 354.349 4.53125 354.828 5.03125C355.312 5.52604 355.555 6.32031 355.555 7.41406V13H354.258ZM361.852 13.1562C360.586 13.1562 359.586 12.7708 358.852 12C358.122 11.2292 357.758 10.1589 357.758 8.78906C357.758 7.40885 358.096 6.3125 358.773 5.5C359.456 4.6875 360.37 4.28125 361.516 4.28125C362.589 4.28125 363.438 4.63542 364.062 5.34375C364.688 6.04688 365 6.97656 365 8.13281V8.95312H359.102C359.128 9.95833 359.38 10.7214 359.859 11.2422C360.344 11.763 361.023 12.0234 361.898 12.0234C362.82 12.0234 363.732 11.8307 364.633 11.4453V12.6016C364.174 12.7995 363.74 12.9401 363.328 13.0234C362.922 13.112 362.43 13.1562 361.852 13.1562ZM361.5 5.36719C360.812 5.36719 360.263 5.59115 359.852 6.03906C359.445 6.48698 359.206 7.10677 359.133 7.89844H363.609C363.609 7.08073 363.427 6.45573 363.062 6.02344C362.698 5.58594 362.177 5.36719 361.5 5.36719ZM369.984 12.0859C370.214 12.0859 370.435 12.0703 370.648 12.0391C370.862 12.0026 371.031 11.9661 371.156 11.9297V12.9219C371.016 12.9896 370.807 13.0443 370.531 13.0859C370.26 13.1328 370.016 13.1562 369.797 13.1562C368.141 13.1562 367.312 12.2839 367.312 10.5391V5.44531H366.086V4.82031L367.312 4.28125L367.859 2.45312H368.609V4.4375H371.094V5.44531H368.609V10.4844C368.609 11 368.732 11.3958 368.977 11.6719C369.221 11.9479 369.557 12.0859 369.984 12.0859ZM380.266 12.0703C381.13 12.0703 381.76 11.8385 382.156 11.375C382.552 10.9115 382.763 10.1302 382.789 9.03125V8.74219C382.789 7.54427 382.586 6.68229 382.18 6.15625C381.773 5.63021 381.13 5.36719 380.25 5.36719C379.49 5.36719 378.906 5.66406 378.5 6.25781C378.099 6.84635 377.898 7.67969 377.898 8.75781C377.898 9.83594 378.096 10.6589 378.492 11.2266C378.893 11.7891 379.484 12.0703 380.266 12.0703ZM380.07 13.1562C378.966 13.1562 378.104 12.7682 377.484 11.9922C376.865 11.2161 376.555 10.1328 376.555 8.74219C376.555 7.34115 376.867 6.2474 377.492 5.46094C378.117 4.67448 378.987 4.28125 380.102 4.28125C381.273 4.28125 382.174 4.72396 382.805 5.60938H382.875L383.062 4.4375H384.086V16.8438H382.789V13.1797C382.789 12.6589 382.818 12.2161 382.875 11.8516H382.773C382.174 12.7214 381.273 13.1562 380.07 13.1562ZM388.062 4.4375V9.99219C388.062 10.6901 388.221 11.2109 388.539 11.5547C388.857 11.8984 389.354 12.0703 390.031 12.0703C390.927 12.0703 391.581 11.8255 391.992 11.3359C392.409 10.8464 392.617 10.0469 392.617 8.9375V4.4375H393.914V13H392.844L392.656 11.8516H392.586C392.32 12.2734 391.951 12.5964 391.477 12.8203C391.008 13.0443 390.471 13.1562 389.867 13.1562C388.826 13.1562 388.044 12.9089 387.523 12.4141C387.008 11.9193 386.75 11.1276 386.75 10.0391V4.4375H388.062ZM401.938 13L401.68 11.7812H401.617C401.19 12.3177 400.763 12.6823 400.336 12.875C399.914 13.0625 399.385 13.1562 398.75 13.1562C397.901 13.1562 397.234 12.9375 396.75 12.5C396.271 12.0625 396.031 11.4401 396.031 10.6328C396.031 8.90365 397.414 7.9974 400.18 7.91406L401.633 7.86719V7.33594C401.633 6.66406 401.487 6.16927 401.195 5.85156C400.909 5.52865 400.448 5.36719 399.812 5.36719C399.099 5.36719 398.292 5.58594 397.391 6.02344L396.992 5.03125C397.414 4.80208 397.875 4.6224 398.375 4.49219C398.88 4.36198 399.385 4.29688 399.891 4.29688C400.911 4.29688 401.667 4.52344 402.156 4.97656C402.651 5.42969 402.898 6.15625 402.898 7.15625V13H401.938ZM399.008 12.0859C399.815 12.0859 400.448 11.8646 400.906 11.4219C401.37 10.9792 401.602 10.3594 401.602 9.5625V8.78906L400.305 8.84375C399.273 8.88021 398.529 9.04167 398.07 9.32812C397.617 9.60938 397.391 10.0495 397.391 10.6484C397.391 11.1172 397.531 11.474 397.812 11.7188C398.099 11.9635 398.497 12.0859 399.008 12.0859ZM416.492 13V7.42969C416.492 6.7474 416.346 6.23698 416.055 5.89844C415.763 5.55469 415.31 5.38281 414.695 5.38281C413.888 5.38281 413.292 5.61458 412.906 6.07812C412.521 6.54167 412.328 7.25521 412.328 8.21875V13H411.031V7.42969C411.031 6.7474 410.885 6.23698 410.594 5.89844C410.302 5.55469 409.846 5.38281 409.227 5.38281C408.414 5.38281 407.818 5.6276 407.438 6.11719C407.062 6.60156 406.875 7.39844 406.875 8.50781V13H405.578V4.4375H406.633L406.844 5.60938H406.906C407.151 5.19271 407.495 4.86719 407.938 4.63281C408.385 4.39844 408.885 4.28125 409.438 4.28125C410.776 4.28125 411.651 4.76562 412.062 5.73438H412.125C412.38 5.28646 412.75 4.93229 413.234 4.67188C413.719 4.41146 414.271 4.28125 414.891 4.28125C415.859 4.28125 416.583 4.53125 417.062 5.03125C417.547 5.52604 417.789 6.32031 417.789 7.41406V13H416.492ZM429.891 13L429.633 11.7812H429.57C429.143 12.3177 428.716 12.6823 428.289 12.875C427.867 13.0625 427.339 13.1562 426.703 13.1562C425.854 13.1562 425.188 12.9375 424.703 12.5C424.224 12.0625 423.984 11.4401 423.984 10.6328C423.984 8.90365 425.367 7.9974 428.133 7.91406L429.586 7.86719V7.33594C429.586 6.66406 429.44 6.16927 429.148 5.85156C428.862 5.52865 428.401 5.36719 427.766 5.36719C427.052 5.36719 426.245 5.58594 425.344 6.02344L424.945 5.03125C425.367 4.80208 425.828 4.6224 426.328 4.49219C426.833 4.36198 427.339 4.29688 427.844 4.29688C428.865 4.29688 429.62 4.52344 430.109 4.97656C430.604 5.42969 430.852 6.15625 430.852 7.15625V13H429.891ZM426.961 12.0859C427.768 12.0859 428.401 11.8646 428.859 11.4219C429.323 10.9792 429.555 10.3594 429.555 9.5625V8.78906L428.258 8.84375C427.227 8.88021 426.482 9.04167 426.023 9.32812C425.57 9.60938 425.344 10.0495 425.344 10.6484C425.344 11.1172 425.484 11.474 425.766 11.7188C426.052 11.9635 426.451 12.0859 426.961 12.0859ZM437.438 4.28125C437.818 4.28125 438.159 4.3125 438.461 4.375L438.281 5.57812C437.927 5.5 437.615 5.46094 437.344 5.46094C436.651 5.46094 436.057 5.74219 435.562 6.30469C435.073 6.86719 434.828 7.56771 434.828 8.40625V13H433.531V4.4375H434.602L434.75 6.02344H434.812C435.13 5.46615 435.513 5.03646 435.961 4.73438C436.409 4.43229 436.901 4.28125 437.438 4.28125ZM443.484 13.1562C442.245 13.1562 441.284 12.776 440.602 12.0156C439.924 11.25 439.586 10.1693 439.586 8.77344C439.586 7.34115 439.93 6.23438 440.617 5.45312C441.31 4.67188 442.294 4.28125 443.57 4.28125C443.982 4.28125 444.393 4.32552 444.805 4.41406C445.216 4.5026 445.539 4.60677 445.773 4.72656L445.375 5.82812C445.089 5.71354 444.776 5.61979 444.438 5.54688C444.099 5.46875 443.799 5.42969 443.539 5.42969C441.799 5.42969 440.93 6.53906 440.93 8.75781C440.93 9.8099 441.141 10.6172 441.562 11.1797C441.99 11.7422 442.62 12.0234 443.453 12.0234C444.167 12.0234 444.898 11.8698 445.648 11.5625V12.7109C445.076 13.0078 444.354 13.1562 443.484 13.1562ZM448.906 4.4375V9.99219C448.906 10.6901 449.065 11.2109 449.383 11.5547C449.701 11.8984 450.198 12.0703 450.875 12.0703C451.771 12.0703 452.424 11.8255 452.836 11.3359C453.253 10.8464 453.461 10.0469 453.461 8.9375V4.4375H454.758V13H453.688L453.5 11.8516H453.43C453.164 12.2734 452.794 12.5964 452.32 12.8203C451.852 13.0443 451.315 13.1562 450.711 13.1562C449.669 13.1562 448.888 12.9089 448.367 12.4141C447.852 11.9193 447.594 11.1276 447.594 10.0391V4.4375H448.906ZM457.328 12.1719C457.328 11.8229 457.406 11.5599 457.562 11.3828C457.724 11.2005 457.953 11.1094 458.25 11.1094C458.552 11.1094 458.786 11.2005 458.953 11.3828C459.125 11.5599 459.211 11.8229 459.211 12.1719C459.211 12.5104 459.125 12.7708 458.953 12.9531C458.781 13.1354 458.547 13.2266 458.25 13.2266C457.984 13.2266 457.763 13.1458 457.586 12.9844C457.414 12.8177 457.328 12.5469 457.328 12.1719ZM9.99219 37H8.47656L2.23438 27.4141H2.17188C2.25521 28.5391 2.29688 29.5703 2.29688 30.5078V37H1.07031V25.5781H2.57031L8.79688 35.125H8.85938C8.84896 34.9844 8.82552 34.5339 8.78906 33.7734C8.7526 33.0078 8.73958 32.4609 8.75 32.1328V25.5781H9.99219V37ZM18.2031 37L17.9453 35.7812H17.8828C17.4557 36.3177 17.0286 36.6823 16.6016 36.875C16.1797 37.0625 15.651 37.1562 15.0156 37.1562C14.1667 37.1562 13.5 36.9375 13.0156 36.5C12.5365 36.0625 12.2969 35.4401 12.2969 34.6328C12.2969 32.9036 13.6797 31.9974 16.4453 31.9141L17.8984 31.8672V31.3359C17.8984 30.6641 17.7526 30.1693 17.4609 29.8516C17.1745 29.5286 16.7135 29.3672 16.0781 29.3672C15.3646 29.3672 14.5573 29.5859 13.6562 30.0234L13.2578 29.0312C13.6797 28.8021 14.1406 28.6224 14.6406 28.4922C15.1458 28.362 15.651 28.2969 16.1562 28.2969C17.1771 28.2969 17.9323 28.5234 18.4219 28.9766C18.9167 29.4297 19.1641 30.1562 19.1641 31.1562V37H18.2031ZM15.2734 36.0859C16.0807 36.0859 16.7135 35.8646 17.1719 35.4219C17.6354 34.9792 17.8672 34.3594 17.8672 33.5625V32.7891L16.5703 32.8438C15.5391 32.8802 14.7943 33.0417 14.3359 33.3281C13.8828 33.6094 13.6562 34.0495 13.6562 34.6484C13.6562 35.1172 13.7969 35.474 14.0781 35.7188C14.3646 35.9635 14.763 36.0859 15.2734 36.0859ZM32.7578 37V31.4297C32.7578 30.7474 32.612 30.237 32.3203 29.8984C32.0286 29.5547 31.5755 29.3828 30.9609 29.3828C30.1536 29.3828 29.5573 29.6146 29.1719 30.0781C28.7865 30.5417 28.5938 31.2552 28.5938 32.2188V37H27.2969V31.4297C27.2969 30.7474 27.151 30.237 26.8594 29.8984C26.5677 29.5547 26.112 29.3828 25.4922 29.3828C24.6797 29.3828 24.0833 29.6276 23.7031 30.1172C23.3281 30.6016 23.1406 31.3984 23.1406 32.5078V37H21.8438V28.4375H22.8984L23.1094 29.6094H23.1719C23.4167 29.1927 23.7604 28.8672 24.2031 28.6328C24.651 28.3984 25.151 28.2812 25.7031 28.2812C27.0417 28.2812 27.9167 28.7656 28.3281 29.7344H28.3906C28.6458 29.2865 29.0156 28.9323 29.5 28.6719C29.9844 28.4115 30.5365 28.2812 31.1562 28.2812C32.125 28.2812 32.849 28.5312 33.3281 29.0312C33.8125 29.526 34.0547 30.3203 34.0547 31.4141V37H32.7578ZM44.75 29.4453H42.5703V37H41.2734V29.4453H39.7422V28.8594L41.2734 28.3906V27.9141C41.2734 25.8099 42.1927 24.7578 44.0312 24.7578C44.4844 24.7578 45.0156 24.849 45.625 25.0312L45.2891 26.0703C44.7891 25.9089 44.362 25.8281 44.0078 25.8281C43.5182 25.8281 43.1562 25.9922 42.9219 26.3203C42.6875 26.6432 42.5703 27.1641 42.5703 27.8828V28.4375H44.75V29.4453ZM51.5781 37L51.3203 35.7812H51.2578C50.8307 36.3177 50.4036 36.6823 49.9766 36.875C49.5547 37.0625 49.026 37.1562 48.3906 37.1562C47.5417 37.1562 46.875 36.9375 46.3906 36.5C45.9115 36.0625 45.6719 35.4401 45.6719 34.6328C45.6719 32.9036 47.0547 31.9974 49.8203 31.9141L51.2734 31.8672V31.3359C51.2734 30.6641 51.1276 30.1693 50.8359 29.8516C50.5495 29.5286 50.0885 29.3672 49.4531 29.3672C48.7396 29.3672 47.9323 29.5859 47.0312 30.0234L46.6328 29.0312C47.0547 28.8021 47.5156 28.6224 48.0156 28.4922C48.5208 28.362 49.026 28.2969 49.5312 28.2969C50.5521 28.2969 51.3073 28.5234 51.7969 28.9766C52.2917 29.4297 52.5391 30.1562 52.5391 31.1562V37H51.5781ZM48.6484 36.0859C49.4557 36.0859 50.0885 35.8646 50.5469 35.4219C51.0104 34.9792 51.2422 34.3594 51.2422 33.5625V32.7891L49.9453 32.8438C48.9141 32.8802 48.1693 33.0417 47.7109 33.3281C47.2578 33.6094 47.0312 34.0495 47.0312 34.6484C47.0312 35.1172 47.1719 35.474 47.4531 35.7188C47.7396 35.9635 48.138 36.0859 48.6484 36.0859ZM58.6406 37.1562C57.401 37.1562 56.4401 36.776 55.7578 36.0156C55.0807 35.25 54.7422 34.1693 54.7422 32.7734C54.7422 31.3411 55.0859 30.2344 55.7734 29.4531C56.4661 28.6719 57.4505 28.2812 58.7266 28.2812C59.138 28.2812 59.5495 28.3255 59.9609 28.4141C60.3724 28.5026 60.6953 28.6068 60.9297 28.7266L60.5312 29.8281C60.2448 29.7135 59.9323 29.6198 59.5938 29.5469C59.2552 29.4688 58.9557 29.4297 58.6953 29.4297C56.9557 29.4297 56.0859 30.5391 56.0859 32.7578C56.0859 33.8099 56.2969 34.6172 56.7188 35.1797C57.1458 35.7422 57.776 36.0234 58.6094 36.0234C59.3229 36.0234 60.0547 35.8698 60.8047 35.5625V36.7109C60.2318 37.0078 59.5104 37.1562 58.6406 37.1562ZM64.1406 37H62.8438V28.4375H64.1406V37ZM62.7344 26.1172C62.7344 25.8203 62.8073 25.6042 62.9531 25.4688C63.099 25.3281 63.2812 25.2578 63.5 25.2578C63.7083 25.2578 63.888 25.3281 64.0391 25.4688C64.1901 25.6094 64.2656 25.8255 64.2656 26.1172C64.2656 26.4089 64.1901 26.6276 64.0391 26.7734C63.888 26.9141 63.7083 26.9844 63.5 26.9844C63.2812 26.9844 63.099 26.9141 62.9531 26.7734C62.8073 26.6276 62.7344 26.4089 62.7344 26.1172ZM68.1875 37H66.8906V24.8438H68.1875V37ZM72.2344 37H70.9375V28.4375H72.2344V37ZM70.8281 26.1172C70.8281 25.8203 70.901 25.6042 71.0469 25.4688C71.1927 25.3281 71.375 25.2578 71.5938 25.2578C71.8021 25.2578 71.9818 25.3281 72.1328 25.4688C72.2839 25.6094 72.3594 25.8255 72.3594 26.1172C72.3594 26.4089 72.2839 26.6276 72.1328 26.7734C71.9818 26.9141 71.8021 26.9844 71.5938 26.9844C71.375 26.9844 71.1927 26.9141 71.0469 26.7734C70.901 26.6276 70.8281 26.4089 70.8281 26.1172ZM80.5078 34.6641C80.5078 35.4609 80.2109 36.0755 79.6172 36.5078C79.0234 36.9401 78.1901 37.1562 77.1172 37.1562C75.9818 37.1562 75.0964 36.9766 74.4609 36.6172V35.4141C74.8724 35.6224 75.3125 35.7865 75.7812 35.9062C76.2552 36.026 76.7109 36.0859 77.1484 36.0859C77.8255 36.0859 78.3464 35.9792 78.7109 35.7656C79.0755 35.5469 79.2578 35.2161 79.2578 34.7734C79.2578 34.4401 79.112 34.1562 78.8203 33.9219C78.5339 33.6823 77.9714 33.401 77.1328 33.0781C76.3359 32.7812 75.7682 32.5234 75.4297 32.3047C75.0964 32.0807 74.8464 31.8281 74.6797 31.5469C74.5182 31.2656 74.4375 30.9297 74.4375 30.5391C74.4375 29.8411 74.7214 29.2917 75.2891 28.8906C75.8568 28.4844 76.6354 28.2812 77.625 28.2812C78.5469 28.2812 79.4479 28.4688 80.3281 28.8438L79.8672 29.8984C79.0078 29.5443 78.2292 29.3672 77.5312 29.3672C76.9167 29.3672 76.4531 29.4635 76.1406 29.6562C75.8281 29.849 75.6719 30.1146 75.6719 30.4531C75.6719 30.6823 75.7292 30.8776 75.8438 31.0391C75.9635 31.2005 76.1536 31.3542 76.4141 31.5C76.6745 31.6458 77.1745 31.8568 77.9141 32.1328C78.9297 32.5026 79.6146 32.875 79.9688 33.25C80.3281 33.625 80.5078 34.0964 80.5078 34.6641ZM83.9219 37H82.625V28.4375H83.9219V37ZM82.5156 26.1172C82.5156 25.8203 82.5885 25.6042 82.7344 25.4688C82.8802 25.3281 83.0625 25.2578 83.2812 25.2578C83.4896 25.2578 83.6693 25.3281 83.8203 25.4688C83.9714 25.6094 84.0469 25.8255 84.0469 26.1172C84.0469 26.4089 83.9714 26.6276 83.8203 26.7734C83.6693 26.9141 83.4896 26.9844 83.2812 26.9844C83.0625 26.9844 82.8802 26.9141 82.7344 26.7734C82.5885 26.6276 82.5156 26.4089 82.5156 26.1172ZM92.1953 34.6641C92.1953 35.4609 91.8984 36.0755 91.3047 36.5078C90.7109 36.9401 89.8776 37.1562 88.8047 37.1562C87.6693 37.1562 86.7839 36.9766 86.1484 36.6172V35.4141C86.5599 35.6224 87 35.7865 87.4688 35.9062C87.9427 36.026 88.3984 36.0859 88.8359 36.0859C89.513 36.0859 90.0339 35.9792 90.3984 35.7656C90.763 35.5469 90.9453 35.2161 90.9453 34.7734C90.9453 34.4401 90.7995 34.1562 90.5078 33.9219C90.2214 33.6823 89.6589 33.401 88.8203 33.0781C88.0234 32.7812 87.4557 32.5234 87.1172 32.3047C86.7839 32.0807 86.5339 31.8281 86.3672 31.5469C86.2057 31.2656 86.125 30.9297 86.125 30.5391C86.125 29.8411 86.4089 29.2917 86.9766 28.8906C87.5443 28.4844 88.3229 28.2812 89.3125 28.2812C90.2344 28.2812 91.1354 28.4688 92.0156 28.8438L91.5547 29.8984C90.6953 29.5443 89.9167 29.3672 89.2188 29.3672C88.6042 29.3672 88.1406 29.4635 87.8281 29.6562C87.5156 29.849 87.3594 30.1146 87.3594 30.4531C87.3594 30.6823 87.4167 30.8776 87.5312 31.0391C87.651 31.2005 87.8411 31.3542 88.1016 31.5C88.362 31.6458 88.862 31.8568 89.6016 32.1328C90.6172 32.5026 91.3021 32.875 91.6562 33.25C92.0156 33.625 92.1953 34.0964 92.1953 34.6641ZM99.7656 37H98.4688V24.8438H99.7656V37ZM107.781 37L107.523 35.7812H107.461C107.034 36.3177 106.607 36.6823 106.18 36.875C105.758 37.0625 105.229 37.1562 104.594 37.1562C103.745 37.1562 103.078 36.9375 102.594 36.5C102.115 36.0625 101.875 35.4401 101.875 34.6328C101.875 32.9036 103.258 31.9974 106.023 31.9141L107.477 31.8672V31.3359C107.477 30.6641 107.331 30.1693 107.039 29.8516C106.753 29.5286 106.292 29.3672 105.656 29.3672C104.943 29.3672 104.135 29.5859 103.234 30.0234L102.836 29.0312C103.258 28.8021 103.719 28.6224 104.219 28.4922C104.724 28.362 105.229 28.2969 105.734 28.2969C106.755 28.2969 107.51 28.5234 108 28.9766C108.495 29.4297 108.742 30.1562 108.742 31.1562V37H107.781ZM104.852 36.0859C105.659 36.0859 106.292 35.8646 106.75 35.4219C107.214 34.9792 107.445 34.3594 107.445 33.5625V32.7891L106.148 32.8438C105.117 32.8802 104.372 33.0417 103.914 33.3281C103.461 33.6094 103.234 34.0495 103.234 34.6484C103.234 35.1172 103.375 35.474 103.656 35.7188C103.943 35.9635 104.341 36.0859 104.852 36.0859ZM114.844 37.1562C113.604 37.1562 112.643 36.776 111.961 36.0156C111.284 35.25 110.945 34.1693 110.945 32.7734C110.945 31.3411 111.289 30.2344 111.977 29.4531C112.669 28.6719 113.654 28.2812 114.93 28.2812C115.341 28.2812 115.753 28.3255 116.164 28.4141C116.576 28.5026 116.898 28.6068 117.133 28.7266L116.734 29.8281C116.448 29.7135 116.135 29.6198 115.797 29.5469C115.458 29.4688 115.159 29.4297 114.898 29.4297C113.159 29.4297 112.289 30.5391 112.289 32.7578C112.289 33.8099 112.5 34.6172 112.922 35.1797C113.349 35.7422 113.979 36.0234 114.812 36.0234C115.526 36.0234 116.258 35.8698 117.008 35.5625V36.7109C116.435 37.0078 115.714 37.1562 114.844 37.1562ZM120.344 37H119.047V28.4375H120.344V37ZM118.938 26.1172C118.938 25.8203 119.01 25.6042 119.156 25.4688C119.302 25.3281 119.484 25.2578 119.703 25.2578C119.911 25.2578 120.091 25.3281 120.242 25.4688C120.393 25.6094 120.469 25.8255 120.469 26.1172C120.469 26.4089 120.393 26.6276 120.242 26.7734C120.091 26.9141 119.911 26.9844 119.703 26.9844C119.484 26.9844 119.302 26.9141 119.156 26.7734C119.01 26.6276 118.938 26.4089 118.938 26.1172ZM128.953 37V31.4609C128.953 30.763 128.794 30.2422 128.477 29.8984C128.159 29.5547 127.661 29.3828 126.984 29.3828C126.089 29.3828 125.432 29.625 125.016 30.1094C124.599 30.5938 124.391 31.3932 124.391 32.5078V37H123.094V28.4375H124.148L124.359 29.6094H124.422C124.688 29.1875 125.06 28.862 125.539 28.6328C126.018 28.3984 126.552 28.2812 127.141 28.2812C128.172 28.2812 128.948 28.5312 129.469 29.0312C129.99 29.526 130.25 30.3203 130.25 31.4141V37H128.953ZM134.219 37H132.922V28.4375H134.219V37ZM132.812 26.1172C132.812 25.8203 132.885 25.6042 133.031 25.4688C133.177 25.3281 133.359 25.2578 133.578 25.2578C133.786 25.2578 133.966 25.3281 134.117 25.4688C134.268 25.6094 134.344 25.8255 134.344 26.1172C134.344 26.4089 134.268 26.6276 134.117 26.7734C133.966 26.9141 133.786 26.9844 133.578 26.9844C133.359 26.9844 133.177 26.9141 133.031 26.7734C132.885 26.6276 132.812 26.4089 132.812 26.1172ZM142.234 37L141.977 35.7812H141.914C141.487 36.3177 141.06 36.6823 140.633 36.875C140.211 37.0625 139.682 37.1562 139.047 37.1562C138.198 37.1562 137.531 36.9375 137.047 36.5C136.568 36.0625 136.328 35.4401 136.328 34.6328C136.328 32.9036 137.711 31.9974 140.477 31.9141L141.93 31.8672V31.3359C141.93 30.6641 141.784 30.1693 141.492 29.8516C141.206 29.5286 140.745 29.3672 140.109 29.3672C139.396 29.3672 138.589 29.5859 137.688 30.0234L137.289 29.0312C137.711 28.8021 138.172 28.6224 138.672 28.4922C139.177 28.362 139.682 28.2969 140.188 28.2969C141.208 28.2969 141.964 28.5234 142.453 28.9766C142.948 29.4297 143.195 30.1562 143.195 31.1562V37H142.234ZM139.305 36.0859C140.112 36.0859 140.745 35.8646 141.203 35.4219C141.667 34.9792 141.898 34.3594 141.898 33.5625V32.7891L140.602 32.8438C139.57 32.8802 138.826 33.0417 138.367 33.3281C137.914 33.6094 137.688 34.0495 137.688 34.6484C137.688 35.1172 137.828 35.474 138.109 35.7188C138.396 35.9635 138.794 36.0859 139.305 36.0859ZM153.648 37.1562C152.383 37.1562 151.383 36.7708 150.648 36C149.919 35.2292 149.555 34.1589 149.555 32.7891C149.555 31.4089 149.893 30.3125 150.57 29.5C151.253 28.6875 152.167 28.2812 153.312 28.2812C154.385 28.2812 155.234 28.6354 155.859 29.3438C156.484 30.0469 156.797 30.9766 156.797 32.1328V32.9531H150.898C150.924 33.9583 151.177 34.7214 151.656 35.2422C152.141 35.763 152.82 36.0234 153.695 36.0234C154.617 36.0234 155.529 35.8307 156.43 35.4453V36.6016C155.971 36.7995 155.536 36.9401 155.125 37.0234C154.719 37.112 154.227 37.1562 153.648 37.1562ZM153.297 29.3672C152.609 29.3672 152.06 29.5911 151.648 30.0391C151.242 30.487 151.003 31.1068 150.93 31.8984H155.406C155.406 31.0807 155.224 30.4557 154.859 30.0234C154.495 29.5859 153.974 29.3672 153.297 29.3672ZM161.078 32.6172L158.102 28.4375H159.578L161.836 31.7188L164.086 28.4375H165.547L162.57 32.6172L165.703 37H164.234L161.836 33.5312L159.414 37H157.945L161.078 32.6172ZM168.766 35.1406L168.883 35.3203C168.747 35.8411 168.552 36.4453 168.297 37.1328C168.042 37.8255 167.776 38.4688 167.5 39.0625H166.523C166.664 38.5208 166.818 37.8516 166.984 37.0547C167.156 36.2578 167.276 35.6198 167.344 35.1406H168.766ZM179.102 37.1562C177.836 37.1562 176.836 36.7708 176.102 36C175.372 35.2292 175.008 34.1589 175.008 32.7891C175.008 31.4089 175.346 30.3125 176.023 29.5C176.706 28.6875 177.62 28.2812 178.766 28.2812C179.839 28.2812 180.688 28.6354 181.312 29.3438C181.938 30.0469 182.25 30.9766 182.25 32.1328V32.9531H176.352C176.378 33.9583 176.63 34.7214 177.109 35.2422C177.594 35.763 178.273 36.0234 179.148 36.0234C180.07 36.0234 180.982 35.8307 181.883 35.4453V36.6016C181.424 36.7995 180.99 36.9401 180.578 37.0234C180.172 37.112 179.68 37.1562 179.102 37.1562ZM178.75 29.3672C178.062 29.3672 177.513 29.5911 177.102 30.0391C176.695 30.487 176.456 31.1068 176.383 31.8984H180.859C180.859 31.0807 180.677 30.4557 180.312 30.0234C179.948 29.5859 179.427 29.3672 178.75 29.3672ZM191.477 28.4375V29.2578L189.891 29.4453C190.036 29.6276 190.167 29.8672 190.281 30.1641C190.396 30.4557 190.453 30.7865 190.453 31.1562C190.453 31.9948 190.167 32.6641 189.594 33.1641C189.021 33.6641 188.234 33.9141 187.234 33.9141C186.979 33.9141 186.74 33.8932 186.516 33.8516C185.964 34.1432 185.688 34.5104 185.688 34.9531C185.688 35.1875 185.784 35.362 185.977 35.4766C186.169 35.5859 186.5 35.6406 186.969 35.6406H188.484C189.411 35.6406 190.122 35.8359 190.617 36.2266C191.117 36.6172 191.367 37.1849 191.367 37.9297C191.367 38.8776 190.987 39.599 190.227 40.0938C189.466 40.5938 188.357 40.8438 186.898 40.8438C185.779 40.8438 184.914 40.6354 184.305 40.2188C183.701 39.8021 183.398 39.2135 183.398 38.4531C183.398 37.9323 183.565 37.4818 183.898 37.1016C184.232 36.7214 184.701 36.4635 185.305 36.3281C185.086 36.2292 184.901 36.0755 184.75 35.8672C184.604 35.6589 184.531 35.4167 184.531 35.1406C184.531 34.8281 184.615 34.5547 184.781 34.3203C184.948 34.0859 185.211 33.8594 185.57 33.6406C185.128 33.4583 184.766 33.1484 184.484 32.7109C184.208 32.2734 184.07 31.7734 184.07 31.2109C184.07 30.2734 184.352 29.5521 184.914 29.0469C185.477 28.5365 186.273 28.2812 187.305 28.2812C187.753 28.2812 188.156 28.3333 188.516 28.4375H191.477ZM184.648 38.4375C184.648 38.901 184.844 39.2526 185.234 39.4922C185.625 39.7318 186.185 39.8516 186.914 39.8516C188.003 39.8516 188.807 39.6875 189.328 39.3594C189.854 39.0365 190.117 38.5964 190.117 38.0391C190.117 37.5755 189.974 37.2526 189.688 37.0703C189.401 36.8932 188.862 36.8047 188.07 36.8047H186.516C185.927 36.8047 185.469 36.9453 185.141 37.2266C184.812 37.5078 184.648 37.9115 184.648 38.4375ZM185.352 31.1797C185.352 31.7786 185.521 32.2318 185.859 32.5391C186.198 32.8464 186.669 33 187.273 33C188.539 33 189.172 32.3854 189.172 31.1562C189.172 29.8698 188.531 29.2266 187.25 29.2266C186.641 29.2266 186.172 29.3906 185.844 29.7188C185.516 30.0469 185.352 30.5339 185.352 31.1797ZM196.852 37.1562C195.586 37.1562 194.586 36.7708 193.852 36C193.122 35.2292 192.758 34.1589 192.758 32.7891C192.758 31.4089 193.096 30.3125 193.773 29.5C194.456 28.6875 195.37 28.2812 196.516 28.2812C197.589 28.2812 198.438 28.6354 199.062 29.3438C199.688 30.0469 200 30.9766 200 32.1328V32.9531H194.102C194.128 33.9583 194.38 34.7214 194.859 35.2422C195.344 35.763 196.023 36.0234 196.898 36.0234C197.82 36.0234 198.732 35.8307 199.633 35.4453V36.6016C199.174 36.7995 198.74 36.9401 198.328 37.0234C197.922 37.112 197.43 37.1562 196.852 37.1562ZM196.5 29.3672C195.812 29.3672 195.263 29.5911 194.852 30.0391C194.445 30.487 194.206 31.1068 194.133 31.8984H198.609C198.609 31.0807 198.427 30.4557 198.062 30.0234C197.698 29.5859 197.177 29.3672 196.5 29.3672ZM204.984 36.0859C205.214 36.0859 205.435 36.0703 205.648 36.0391C205.862 36.0026 206.031 35.9661 206.156 35.9297V36.9219C206.016 36.9896 205.807 37.0443 205.531 37.0859C205.26 37.1328 205.016 37.1562 204.797 37.1562C203.141 37.1562 202.312 36.2839 202.312 34.5391V29.4453H201.086V28.8203L202.312 28.2812L202.859 26.4531H203.609V28.4375H206.094V29.4453H203.609V34.4844C203.609 35 203.732 35.3958 203.977 35.6719C204.221 35.9479 204.557 36.0859 204.984 36.0859ZM217.555 34.6641C217.555 35.4609 217.258 36.0755 216.664 36.5078C216.07 36.9401 215.237 37.1562 214.164 37.1562C213.029 37.1562 212.143 36.9766 211.508 36.6172V35.4141C211.919 35.6224 212.359 35.7865 212.828 35.9062C213.302 36.026 213.758 36.0859 214.195 36.0859C214.872 36.0859 215.393 35.9792 215.758 35.7656C216.122 35.5469 216.305 35.2161 216.305 34.7734C216.305 34.4401 216.159 34.1562 215.867 33.9219C215.581 33.6823 215.018 33.401 214.18 33.0781C213.383 32.7812 212.815 32.5234 212.477 32.3047C212.143 32.0807 211.893 31.8281 211.727 31.5469C211.565 31.2656 211.484 30.9297 211.484 30.5391C211.484 29.8411 211.768 29.2917 212.336 28.8906C212.904 28.4844 213.682 28.2812 214.672 28.2812C215.594 28.2812 216.495 28.4688 217.375 28.8438L216.914 29.8984C216.055 29.5443 215.276 29.3672 214.578 29.3672C213.964 29.3672 213.5 29.4635 213.188 29.6562C212.875 29.849 212.719 30.1146 212.719 30.4531C212.719 30.6823 212.776 30.8776 212.891 31.0391C213.01 31.2005 213.201 31.3542 213.461 31.5C213.721 31.6458 214.221 31.8568 214.961 32.1328C215.977 32.5026 216.661 32.875 217.016 33.25C217.375 33.625 217.555 34.0964 217.555 34.6641ZM227.062 32.7109C227.062 34.1068 226.711 35.1979 226.008 35.9844C225.305 36.7656 224.333 37.1562 223.094 37.1562C222.328 37.1562 221.648 36.9766 221.055 36.6172C220.461 36.2578 220.003 35.7422 219.68 35.0703C219.357 34.3984 219.195 33.612 219.195 32.7109C219.195 31.3151 219.544 30.2292 220.242 29.4531C220.94 28.6719 221.909 28.2812 223.148 28.2812C224.346 28.2812 225.297 28.6797 226 29.4766C226.708 30.2734 227.062 31.3516 227.062 32.7109ZM220.539 32.7109C220.539 33.8047 220.758 34.638 221.195 35.2109C221.633 35.7839 222.276 36.0703 223.125 36.0703C223.974 36.0703 224.617 35.7865 225.055 35.2188C225.497 34.6458 225.719 33.8099 225.719 32.7109C225.719 31.6224 225.497 30.7969 225.055 30.2344C224.617 29.6667 223.969 29.3828 223.109 29.3828C222.26 29.3828 221.62 29.6615 221.188 30.2188C220.755 30.776 220.539 31.6068 220.539 32.7109ZM230.641 37H229.344V24.8438H230.641V37ZM234.688 37H233.391V24.8438H234.688V37ZM238.734 37H237.438V28.4375H238.734V37ZM237.328 26.1172C237.328 25.8203 237.401 25.6042 237.547 25.4688C237.693 25.3281 237.875 25.2578 238.094 25.2578C238.302 25.2578 238.482 25.3281 238.633 25.4688C238.784 25.6094 238.859 25.8255 238.859 26.1172C238.859 26.4089 238.784 26.6276 238.633 26.7734C238.482 26.9141 238.302 26.9844 238.094 26.9844C237.875 26.9844 237.693 26.9141 237.547 26.7734C237.401 26.6276 237.328 26.4089 237.328 26.1172ZM244.906 37.1562C243.667 37.1562 242.706 36.776 242.023 36.0156C241.346 35.25 241.008 34.1693 241.008 32.7734C241.008 31.3411 241.352 30.2344 242.039 29.4531C242.732 28.6719 243.716 28.2812 244.992 28.2812C245.404 28.2812 245.815 28.3255 246.227 28.4141C246.638 28.5026 246.961 28.6068 247.195 28.7266L246.797 29.8281C246.51 29.7135 246.198 29.6198 245.859 29.5469C245.521 29.4688 245.221 29.4297 244.961 29.4297C243.221 29.4297 242.352 30.5391 242.352 32.7578C242.352 33.8099 242.562 34.6172 242.984 35.1797C243.411 35.7422 244.042 36.0234 244.875 36.0234C245.589 36.0234 246.32 35.8698 247.07 35.5625V36.7109C246.497 37.0078 245.776 37.1562 244.906 37.1562ZM250.406 37H249.109V28.4375H250.406V37ZM249 26.1172C249 25.8203 249.073 25.6042 249.219 25.4688C249.365 25.3281 249.547 25.2578 249.766 25.2578C249.974 25.2578 250.154 25.3281 250.305 25.4688C250.456 25.6094 250.531 25.8255 250.531 26.1172C250.531 26.4089 250.456 26.6276 250.305 26.7734C250.154 26.9141 249.974 26.9844 249.766 26.9844C249.547 26.9844 249.365 26.9141 249.219 26.7734C249.073 26.6276 249 26.4089 249 26.1172ZM255.922 36.0859C256.151 36.0859 256.372 36.0703 256.586 36.0391C256.799 36.0026 256.969 35.9661 257.094 35.9297V36.9219C256.953 36.9896 256.745 37.0443 256.469 37.0859C256.198 37.1328 255.953 37.1562 255.734 37.1562C254.078 37.1562 253.25 36.2839 253.25 34.5391V29.4453H252.023V28.8203L253.25 28.2812L253.797 26.4531H254.547V28.4375H257.031V29.4453H254.547V34.4844C254.547 35 254.669 35.3958 254.914 35.6719C255.159 35.9479 255.495 36.0859 255.922 36.0859ZM260.031 28.4375V33.9922C260.031 34.6901 260.19 35.2109 260.508 35.5547C260.826 35.8984 261.323 36.0703 262 36.0703C262.896 36.0703 263.549 35.8255 263.961 35.3359C264.378 34.8464 264.586 34.0469 264.586 32.9375V28.4375H265.883V37H264.812L264.625 35.8516H264.555C264.289 36.2734 263.919 36.5964 263.445 36.8203C262.977 37.0443 262.44 37.1562 261.836 37.1562C260.794 37.1562 260.013 36.9089 259.492 36.4141C258.977 35.9193 258.719 35.1276 258.719 34.0391V28.4375H260.031ZM274.469 35.8516H274.398C273.799 36.7214 272.904 37.1562 271.711 37.1562C270.591 37.1562 269.719 36.7734 269.094 36.0078C268.474 35.2422 268.164 34.1536 268.164 32.7422C268.164 31.3307 268.477 30.2344 269.102 29.4531C269.727 28.6719 270.596 28.2812 271.711 28.2812C272.872 28.2812 273.763 28.7031 274.383 29.5469H274.484L274.43 28.9297L274.398 28.3281V24.8438H275.695V37H274.641L274.469 35.8516ZM271.875 36.0703C272.76 36.0703 273.401 35.8307 273.797 35.3516C274.198 34.8672 274.398 34.0885 274.398 33.0156V32.7422C274.398 31.5286 274.195 30.6641 273.789 30.1484C273.388 29.6276 272.745 29.3672 271.859 29.3672C271.099 29.3672 270.516 29.6641 270.109 30.2578C269.708 30.8464 269.508 31.6797 269.508 32.7578C269.508 33.8516 269.708 34.6771 270.109 35.2344C270.51 35.7917 271.099 36.0703 271.875 36.0703ZM279.75 37H278.453V28.4375H279.75V37ZM278.344 26.1172C278.344 25.8203 278.417 25.6042 278.562 25.4688C278.708 25.3281 278.891 25.2578 279.109 25.2578C279.318 25.2578 279.497 25.3281 279.648 25.4688C279.799 25.6094 279.875 25.8255 279.875 26.1172C279.875 26.4089 279.799 26.6276 279.648 26.7734C279.497 26.9141 279.318 26.9844 279.109 26.9844C278.891 26.9844 278.708 26.9141 278.562 26.7734C278.417 26.6276 278.344 26.4089 278.344 26.1172ZM288.359 37V31.4609C288.359 30.763 288.201 30.2422 287.883 29.8984C287.565 29.5547 287.068 29.3828 286.391 29.3828C285.495 29.3828 284.839 29.625 284.422 30.1094C284.005 30.5938 283.797 31.3932 283.797 32.5078V37H282.5V28.4375H283.555L283.766 29.6094H283.828C284.094 29.1875 284.466 28.862 284.945 28.6328C285.424 28.3984 285.958 28.2812 286.547 28.2812C287.578 28.2812 288.354 28.5312 288.875 29.0312C289.396 29.526 289.656 30.3203 289.656 31.4141V37H288.359ZM307.398 37V31.4297C307.398 30.7474 307.253 30.237 306.961 29.8984C306.669 29.5547 306.216 29.3828 305.602 29.3828C304.794 29.3828 304.198 29.6146 303.812 30.0781C303.427 30.5417 303.234 31.2552 303.234 32.2188V37H301.938V31.4297C301.938 30.7474 301.792 30.237 301.5 29.8984C301.208 29.5547 300.753 29.3828 300.133 29.3828C299.32 29.3828 298.724 29.6276 298.344 30.1172C297.969 30.6016 297.781 31.3984 297.781 32.5078V37H296.484V28.4375H297.539L297.75 29.6094H297.812C298.057 29.1927 298.401 28.8672 298.844 28.6328C299.292 28.3984 299.792 28.2812 300.344 28.2812C301.682 28.2812 302.557 28.7656 302.969 29.7344H303.031C303.286 29.2865 303.656 28.9323 304.141 28.6719C304.625 28.4115 305.177 28.2812 305.797 28.2812C306.766 28.2812 307.49 28.5312 307.969 29.0312C308.453 29.526 308.695 30.3203 308.695 31.4141V37H307.398ZM316.641 37L316.383 35.7812H316.32C315.893 36.3177 315.466 36.6823 315.039 36.875C314.617 37.0625 314.089 37.1562 313.453 37.1562C312.604 37.1562 311.938 36.9375 311.453 36.5C310.974 36.0625 310.734 35.4401 310.734 34.6328C310.734 32.9036 312.117 31.9974 314.883 31.9141L316.336 31.8672V31.3359C316.336 30.6641 316.19 30.1693 315.898 29.8516C315.612 29.5286 315.151 29.3672 314.516 29.3672C313.802 29.3672 312.995 29.5859 312.094 30.0234L311.695 29.0312C312.117 28.8021 312.578 28.6224 313.078 28.4922C313.583 28.362 314.089 28.2969 314.594 28.2969C315.615 28.2969 316.37 28.5234 316.859 28.9766C317.354 29.4297 317.602 30.1562 317.602 31.1562V37H316.641ZM313.711 36.0859C314.518 36.0859 315.151 35.8646 315.609 35.4219C316.073 34.9792 316.305 34.3594 316.305 33.5625V32.7891L315.008 32.8438C313.977 32.8802 313.232 33.0417 312.773 33.3281C312.32 33.6094 312.094 34.0495 312.094 34.6484C312.094 35.1172 312.234 35.474 312.516 35.7188C312.802 35.9635 313.201 36.0859 313.711 36.0859ZM325.805 34.6641C325.805 35.4609 325.508 36.0755 324.914 36.5078C324.32 36.9401 323.487 37.1562 322.414 37.1562C321.279 37.1562 320.393 36.9766 319.758 36.6172V35.4141C320.169 35.6224 320.609 35.7865 321.078 35.9062C321.552 36.026 322.008 36.0859 322.445 36.0859C323.122 36.0859 323.643 35.9792 324.008 35.7656C324.372 35.5469 324.555 35.2161 324.555 34.7734C324.555 34.4401 324.409 34.1562 324.117 33.9219C323.831 33.6823 323.268 33.401 322.43 33.0781C321.633 32.7812 321.065 32.5234 320.727 32.3047C320.393 32.0807 320.143 31.8281 319.977 31.5469C319.815 31.2656 319.734 30.9297 319.734 30.5391C319.734 29.8411 320.018 29.2917 320.586 28.8906C321.154 28.4844 321.932 28.2812 322.922 28.2812C323.844 28.2812 324.745 28.4688 325.625 28.8438L325.164 29.8984C324.305 29.5443 323.526 29.3672 322.828 29.3672C322.214 29.3672 321.75 29.4635 321.438 29.6562C321.125 29.849 320.969 30.1146 320.969 30.4531C320.969 30.6823 321.026 30.8776 321.141 31.0391C321.26 31.2005 321.451 31.3542 321.711 31.5C321.971 31.6458 322.471 31.8568 323.211 32.1328C324.227 32.5026 324.911 32.875 325.266 33.25C325.625 33.625 325.805 34.0964 325.805 34.6641ZM333.445 34.6641C333.445 35.4609 333.148 36.0755 332.555 36.5078C331.961 36.9401 331.128 37.1562 330.055 37.1562C328.919 37.1562 328.034 36.9766 327.398 36.6172V35.4141C327.81 35.6224 328.25 35.7865 328.719 35.9062C329.193 36.026 329.648 36.0859 330.086 36.0859C330.763 36.0859 331.284 35.9792 331.648 35.7656C332.013 35.5469 332.195 35.2161 332.195 34.7734C332.195 34.4401 332.049 34.1562 331.758 33.9219C331.471 33.6823 330.909 33.401 330.07 33.0781C329.273 32.7812 328.706 32.5234 328.367 32.3047C328.034 32.0807 327.784 31.8281 327.617 31.5469C327.456 31.2656 327.375 30.9297 327.375 30.5391C327.375 29.8411 327.659 29.2917 328.227 28.8906C328.794 28.4844 329.573 28.2812 330.562 28.2812C331.484 28.2812 332.385 28.4688 333.266 28.8438L332.805 29.8984C331.945 29.5443 331.167 29.3672 330.469 29.3672C329.854 29.3672 329.391 29.4635 329.078 29.6562C328.766 29.849 328.609 30.1146 328.609 30.4531C328.609 30.6823 328.667 30.8776 328.781 31.0391C328.901 31.2005 329.091 31.3542 329.352 31.5C329.612 31.6458 330.112 31.8568 330.852 32.1328C331.867 32.5026 332.552 32.875 332.906 33.25C333.266 33.625 333.445 34.0964 333.445 34.6641ZM340.828 37L340.57 35.7812H340.508C340.081 36.3177 339.654 36.6823 339.227 36.875C338.805 37.0625 338.276 37.1562 337.641 37.1562C336.792 37.1562 336.125 36.9375 335.641 36.5C335.161 36.0625 334.922 35.4401 334.922 34.6328C334.922 32.9036 336.305 31.9974 339.07 31.9141L340.523 31.8672V31.3359C340.523 30.6641 340.378 30.1693 340.086 29.8516C339.799 29.5286 339.339 29.3672 338.703 29.3672C337.99 29.3672 337.182 29.5859 336.281 30.0234L335.883 29.0312C336.305 28.8021 336.766 28.6224 337.266 28.4922C337.771 28.362 338.276 28.2969 338.781 28.2969C339.802 28.2969 340.557 28.5234 341.047 28.9766C341.542 29.4297 341.789 30.1562 341.789 31.1562V37H340.828ZM337.898 36.0859C338.706 36.0859 339.339 35.8646 339.797 35.4219C340.26 34.9792 340.492 34.3594 340.492 33.5625V32.7891L339.195 32.8438C338.164 32.8802 337.419 33.0417 336.961 33.3281C336.508 33.6094 336.281 34.0495 336.281 34.6484C336.281 35.1172 336.422 35.474 336.703 35.7188C336.99 35.9635 337.388 36.0859 337.898 36.0859ZM352.609 37.1562C352.052 37.1562 351.542 37.0547 351.078 36.8516C350.62 36.6432 350.234 36.3255 349.922 35.8984H349.828C349.891 36.3984 349.922 36.8724 349.922 37.3203V40.8438H348.625V28.4375H349.68L349.859 29.6094H349.922C350.255 29.1406 350.643 28.8021 351.086 28.5938C351.529 28.3854 352.036 28.2812 352.609 28.2812C353.745 28.2812 354.62 28.6693 355.234 29.4453C355.854 30.2214 356.164 31.3099 356.164 32.7109C356.164 34.1172 355.849 35.2109 355.219 35.9922C354.594 36.7682 353.724 37.1562 352.609 37.1562ZM352.422 29.3828C351.547 29.3828 350.914 29.625 350.523 30.1094C350.133 30.5938 349.932 31.3646 349.922 32.4219V32.7109C349.922 33.9141 350.122 34.776 350.523 35.2969C350.924 35.8125 351.568 36.0703 352.453 36.0703C353.193 36.0703 353.771 35.7708 354.188 35.1719C354.609 34.5729 354.82 33.7474 354.82 32.6953C354.82 31.6276 354.609 30.8099 354.188 30.2422C353.771 29.6693 353.182 29.3828 352.422 29.3828ZM362.055 37.1562C360.789 37.1562 359.789 36.7708 359.055 36C358.326 35.2292 357.961 34.1589 357.961 32.7891C357.961 31.4089 358.299 30.3125 358.977 29.5C359.659 28.6875 360.573 28.2812 361.719 28.2812C362.792 28.2812 363.641 28.6354 364.266 29.3438C364.891 30.0469 365.203 30.9766 365.203 32.1328V32.9531H359.305C359.331 33.9583 359.583 34.7214 360.062 35.2422C360.547 35.763 361.227 36.0234 362.102 36.0234C363.023 36.0234 363.935 35.8307 364.836 35.4453V36.6016C364.378 36.7995 363.943 36.9401 363.531 37.0234C363.125 37.112 362.633 37.1562 362.055 37.1562ZM361.703 29.3672C361.016 29.3672 360.466 29.5911 360.055 30.0391C359.648 30.487 359.409 31.1068 359.336 31.8984H363.812C363.812 31.0807 363.63 30.4557 363.266 30.0234C362.901 29.5859 362.38 29.3672 361.703 29.3672ZM368.719 37H367.422V24.8438H368.719V37ZM372.766 37H371.469V24.8438H372.766V37ZM379.133 37.1562C377.867 37.1562 376.867 36.7708 376.133 36C375.404 35.2292 375.039 34.1589 375.039 32.7891C375.039 31.4089 375.378 30.3125 376.055 29.5C376.737 28.6875 377.651 28.2812 378.797 28.2812C379.87 28.2812 380.719 28.6354 381.344 29.3438C381.969 30.0469 382.281 30.9766 382.281 32.1328V32.9531H376.383C376.409 33.9583 376.661 34.7214 377.141 35.2422C377.625 35.763 378.305 36.0234 379.18 36.0234C380.102 36.0234 381.013 35.8307 381.914 35.4453V36.6016C381.456 36.7995 381.021 36.9401 380.609 37.0234C380.203 37.112 379.711 37.1562 379.133 37.1562ZM378.781 29.3672C378.094 29.3672 377.544 29.5911 377.133 30.0391C376.727 30.487 376.487 31.1068 376.414 31.8984H380.891C380.891 31.0807 380.708 30.4557 380.344 30.0234C379.979 29.5859 379.458 29.3672 378.781 29.3672ZM390.359 37V31.4609C390.359 30.763 390.201 30.2422 389.883 29.8984C389.565 29.5547 389.068 29.3828 388.391 29.3828C387.495 29.3828 386.839 29.625 386.422 30.1094C386.005 30.5938 385.797 31.3932 385.797 32.5078V37H384.5V28.4375H385.555L385.766 29.6094H385.828C386.094 29.1875 386.466 28.862 386.945 28.6328C387.424 28.3984 387.958 28.2812 388.547 28.2812C389.578 28.2812 390.354 28.5312 390.875 29.0312C391.396 29.526 391.656 30.3203 391.656 31.4141V37H390.359ZM397.094 36.0859C397.323 36.0859 397.544 36.0703 397.758 36.0391C397.971 36.0026 398.141 35.9661 398.266 35.9297V36.9219C398.125 36.9896 397.917 37.0443 397.641 37.0859C397.37 37.1328 397.125 37.1562 396.906 37.1562C395.25 37.1562 394.422 36.2839 394.422 34.5391V29.4453H393.195V28.8203L394.422 28.2812L394.969 26.4531H395.719V28.4375H398.203V29.4453H395.719V34.4844C395.719 35 395.841 35.3958 396.086 35.6719C396.331 35.9479 396.667 36.0859 397.094 36.0859ZM403.602 37.1562C402.336 37.1562 401.336 36.7708 400.602 36C399.872 35.2292 399.508 34.1589 399.508 32.7891C399.508 31.4089 399.846 30.3125 400.523 29.5C401.206 28.6875 402.12 28.2812 403.266 28.2812C404.339 28.2812 405.188 28.6354 405.812 29.3438C406.438 30.0469 406.75 30.9766 406.75 32.1328V32.9531H400.852C400.878 33.9583 401.13 34.7214 401.609 35.2422C402.094 35.763 402.773 36.0234 403.648 36.0234C404.57 36.0234 405.482 35.8307 406.383 35.4453V36.6016C405.924 36.7995 405.49 36.9401 405.078 37.0234C404.672 37.112 404.18 37.1562 403.602 37.1562ZM403.25 29.3672C402.562 29.3672 402.013 29.5911 401.602 30.0391C401.195 30.487 400.956 31.1068 400.883 31.8984H405.359C405.359 31.0807 405.177 30.4557 404.812 30.0234C404.448 29.5859 403.927 29.3672 403.25 29.3672ZM414.492 34.6641C414.492 35.4609 414.195 36.0755 413.602 36.5078C413.008 36.9401 412.174 37.1562 411.102 37.1562C409.966 37.1562 409.081 36.9766 408.445 36.6172V35.4141C408.857 35.6224 409.297 35.7865 409.766 35.9062C410.24 36.026 410.695 36.0859 411.133 36.0859C411.81 36.0859 412.331 35.9792 412.695 35.7656C413.06 35.5469 413.242 35.2161 413.242 34.7734C413.242 34.4401 413.096 34.1562 412.805 33.9219C412.518 33.6823 411.956 33.401 411.117 33.0781C410.32 32.7812 409.753 32.5234 409.414 32.3047C409.081 32.0807 408.831 31.8281 408.664 31.5469C408.503 31.2656 408.422 30.9297 408.422 30.5391C408.422 29.8411 408.706 29.2917 409.273 28.8906C409.841 28.4844 410.62 28.2812 411.609 28.2812C412.531 28.2812 413.432 28.4688 414.312 28.8438L413.852 29.8984C412.992 29.5443 412.214 29.3672 411.516 29.3672C410.901 29.3672 410.438 29.4635 410.125 29.6562C409.812 29.849 409.656 30.1146 409.656 30.4531C409.656 30.6823 409.714 30.8776 409.828 31.0391C409.948 31.2005 410.138 31.3542 410.398 31.5C410.659 31.6458 411.159 31.8568 411.898 32.1328C412.914 32.5026 413.599 32.875 413.953 33.25C414.312 33.625 414.492 34.0964 414.492 34.6641ZM419.844 36.0703C420.708 36.0703 421.339 35.8385 421.734 35.375C422.13 34.9115 422.341 34.1302 422.367 33.0312V32.7422C422.367 31.5443 422.164 30.6823 421.758 30.1562C421.352 29.6302 420.708 29.3672 419.828 29.3672C419.068 29.3672 418.484 29.6641 418.078 30.2578C417.677 30.8464 417.477 31.6797 417.477 32.7578C417.477 33.8359 417.674 34.6589 418.07 35.2266C418.471 35.7891 419.062 36.0703 419.844 36.0703ZM419.648 37.1562C418.544 37.1562 417.682 36.7682 417.062 35.9922C416.443 35.2161 416.133 34.1328 416.133 32.7422C416.133 31.3411 416.445 30.2474 417.07 29.4609C417.695 28.6745 418.565 28.2812 419.68 28.2812C420.852 28.2812 421.753 28.724 422.383 29.6094H422.453L422.641 28.4375H423.664V40.8438H422.367V37.1797C422.367 36.6589 422.396 36.2161 422.453 35.8516H422.352C421.753 36.7214 420.852 37.1562 419.648 37.1562ZM427.641 28.4375V33.9922C427.641 34.6901 427.799 35.2109 428.117 35.5547C428.435 35.8984 428.932 36.0703 429.609 36.0703C430.505 36.0703 431.159 35.8255 431.57 35.3359C431.987 34.8464 432.195 34.0469 432.195 32.9375V28.4375H433.492V37H432.422L432.234 35.8516H432.164C431.898 36.2734 431.529 36.5964 431.055 36.8203C430.586 37.0443 430.049 37.1562 429.445 37.1562C428.404 37.1562 427.622 36.9089 427.102 36.4141C426.586 35.9193 426.328 35.1276 426.328 34.0391V28.4375H427.641ZM439.867 37.1562C438.602 37.1562 437.602 36.7708 436.867 36C436.138 35.2292 435.773 34.1589 435.773 32.7891C435.773 31.4089 436.112 30.3125 436.789 29.5C437.471 28.6875 438.385 28.2812 439.531 28.2812C440.604 28.2812 441.453 28.6354 442.078 29.3438C442.703 30.0469 443.016 30.9766 443.016 32.1328V32.9531H437.117C437.143 33.9583 437.396 34.7214 437.875 35.2422C438.359 35.763 439.039 36.0234 439.914 36.0234C440.836 36.0234 441.747 35.8307 442.648 35.4453V36.6016C442.19 36.7995 441.755 36.9401 441.344 37.0234C440.938 37.112 440.445 37.1562 439.867 37.1562ZM439.516 29.3672C438.828 29.3672 438.279 29.5911 437.867 30.0391C437.461 30.487 437.221 31.1068 437.148 31.8984H441.625C441.625 31.0807 441.443 30.4557 441.078 30.0234C440.714 29.5859 440.193 29.3672 439.516 29.3672ZM2.17188 61H0.875V52.4375H2.17188V61ZM0.765625 50.1172C0.765625 49.8203 0.838542 49.6042 0.984375 49.4688C1.13021 49.3281 1.3125 49.2578 1.53125 49.2578C1.73958 49.2578 1.91927 49.3281 2.07031 49.4688C2.22135 49.6094 2.29688 49.8255 2.29688 50.1172C2.29688 50.4089 2.22135 50.6276 2.07031 50.7734C1.91927 50.9141 1.73958 50.9844 1.53125 50.9844C1.3125 50.9844 1.13021 50.9141 0.984375 50.7734C0.838542 50.6276 0.765625 50.4089 0.765625 50.1172ZM10.7812 61V55.4609C10.7812 54.763 10.6224 54.2422 10.3047 53.8984C9.98698 53.5547 9.48958 53.3828 8.8125 53.3828C7.91667 53.3828 7.26042 53.625 6.84375 54.1094C6.42708 54.5938 6.21875 55.3932 6.21875 56.5078V61H4.92188V52.4375H5.97656L6.1875 53.6094H6.25C6.51562 53.1875 6.88802 52.862 7.36719 52.6328C7.84635 52.3984 8.38021 52.2812 8.96875 52.2812C10 52.2812 10.776 52.5312 11.2969 53.0312C11.8177 53.526 12.0781 54.3203 12.0781 55.4141V61H10.7812ZM14.5625 60.1719C14.5625 59.8229 14.6406 59.5599 14.7969 59.3828C14.9583 59.2005 15.1875 59.1094 15.4844 59.1094C15.7865 59.1094 16.0208 59.2005 16.1875 59.3828C16.3594 59.5599 16.4453 59.8229 16.4453 60.1719C16.4453 60.5104 16.3594 60.7708 16.1875 60.9531C16.0156 61.1354 15.7812 61.2266 15.4844 61.2266C15.2188 61.2266 14.9974 61.1458 14.8203 60.9844C14.6484 60.8177 14.5625 60.5469 14.5625 60.1719ZM29.8906 49.5781H31.3203L27.2031 61H25.8906L21.7969 49.5781H23.2031L25.8281 56.9688C26.1302 57.8177 26.3698 58.6432 26.5469 59.4453C26.7344 58.6016 26.9792 57.7604 27.2812 56.9219L29.8906 49.5781ZM34 61H32.7031V52.4375H34V61ZM32.5938 50.1172C32.5938 49.8203 32.6667 49.6042 32.8125 49.4688C32.9583 49.3281 33.1406 49.2578 33.3594 49.2578C33.5677 49.2578 33.7474 49.3281 33.8984 49.4688C34.0495 49.6094 34.125 49.8255 34.125 50.1172C34.125 50.4089 34.0495 50.6276 33.8984 50.7734C33.7474 50.9141 33.5677 50.9844 33.3594 50.9844C33.1406 50.9844 32.9583 50.9141 32.8125 50.7734C32.6667 50.6276 32.5938 50.4089 32.5938 50.1172ZM38.625 61L35.375 52.4375H36.7656L38.6094 57.5156C39.026 58.7031 39.2708 59.474 39.3438 59.8281H39.4062C39.4635 59.5521 39.6432 58.9818 39.9453 58.1172C40.2526 57.2474 40.9375 55.3542 42 52.4375H43.3906L40.1406 61H38.625ZM50.0312 61L49.7734 59.7812H49.7109C49.2839 60.3177 48.8568 60.6823 48.4297 60.875C48.0078 61.0625 47.4792 61.1562 46.8438 61.1562C45.9948 61.1562 45.3281 60.9375 44.8438 60.5C44.3646 60.0625 44.125 59.4401 44.125 58.6328C44.125 56.9036 45.5078 55.9974 48.2734 55.9141L49.7266 55.8672V55.3359C49.7266 54.6641 49.5807 54.1693 49.2891 53.8516C49.0026 53.5286 48.5417 53.3672 47.9062 53.3672C47.1927 53.3672 46.3854 53.5859 45.4844 54.0234L45.0859 53.0312C45.5078 52.8021 45.9688 52.6224 46.4688 52.4922C46.974 52.362 47.4792 52.2969 47.9844 52.2969C49.0052 52.2969 49.7604 52.5234 50.25 52.9766C50.7448 53.4297 50.9922 54.1562 50.9922 55.1562V61H50.0312ZM47.1016 60.0859C47.9089 60.0859 48.5417 59.8646 49 59.4219C49.4635 58.9792 49.6953 58.3594 49.6953 57.5625V56.7891L48.3984 56.8438C47.3672 56.8802 46.6224 57.0417 46.1641 57.3281C45.7109 57.6094 45.4844 58.0495 45.4844 58.6484C45.4844 59.1172 45.625 59.474 45.9062 59.7188C46.1927 59.9635 46.5911 60.0859 47.1016 60.0859ZM64.5859 61V55.4297C64.5859 54.7474 64.4401 54.237 64.1484 53.8984C63.8568 53.5547 63.4036 53.3828 62.7891 53.3828C61.9818 53.3828 61.3854 53.6146 61 54.0781C60.6146 54.5417 60.4219 55.2552 60.4219 56.2188V61H59.125V55.4297C59.125 54.7474 58.9792 54.237 58.6875 53.8984C58.3958 53.5547 57.9401 53.3828 57.3203 53.3828C56.5078 53.3828 55.9115 53.6276 55.5312 54.1172C55.1562 54.6016 54.9688 55.3984 54.9688 56.5078V61H53.6719V52.4375H54.7266L54.9375 53.6094H55C55.2448 53.1927 55.5885 52.8672 56.0312 52.6328C56.4792 52.3984 56.9792 52.2812 57.5312 52.2812C58.8698 52.2812 59.7448 52.7656 60.1562 53.7344H60.2188C60.474 53.2865 60.8438 52.9323 61.3281 52.6719C61.8125 52.4115 62.3646 52.2812 62.9844 52.2812C63.9531 52.2812 64.6771 52.5312 65.1562 53.0312C65.6406 53.526 65.8828 54.3203 65.8828 55.4141V61H64.5859ZM69.7812 52.4375V57.9922C69.7812 58.6901 69.9401 59.2109 70.2578 59.5547C70.5755 59.8984 71.0729 60.0703 71.75 60.0703C72.6458 60.0703 73.2995 59.8255 73.7109 59.3359C74.1276 58.8464 74.3359 58.0469 74.3359 56.9375V52.4375H75.6328V61H74.5625L74.375 59.8516H74.3047C74.0391 60.2734 73.6693 60.5964 73.1953 60.8203C72.7266 61.0443 72.1901 61.1562 71.5859 61.1562C70.5443 61.1562 69.763 60.9089 69.2422 60.4141C68.7266 59.9193 68.4688 59.1276 68.4688 58.0391V52.4375H69.7812ZM83.9141 58.6641C83.9141 59.4609 83.6172 60.0755 83.0234 60.5078C82.4297 60.9401 81.5964 61.1562 80.5234 61.1562C79.388 61.1562 78.5026 60.9766 77.8672 60.6172V59.4141C78.2786 59.6224 78.7188 59.7865 79.1875 59.9062C79.6615 60.026 80.1172 60.0859 80.5547 60.0859C81.2318 60.0859 81.7526 59.9792 82.1172 59.7656C82.4818 59.5469 82.6641 59.2161 82.6641 58.7734C82.6641 58.4401 82.5182 58.1562 82.2266 57.9219C81.9401 57.6823 81.3776 57.401 80.5391 57.0781C79.7422 56.7812 79.1745 56.5234 78.8359 56.3047C78.5026 56.0807 78.2526 55.8281 78.0859 55.5469C77.9245 55.2656 77.8438 54.9297 77.8438 54.5391C77.8438 53.8411 78.1276 53.2917 78.6953 52.8906C79.263 52.4844 80.0417 52.2812 81.0312 52.2812C81.9531 52.2812 82.8542 52.4688 83.7344 52.8438L83.2734 53.8984C82.4141 53.5443 81.6354 53.3672 80.9375 53.3672C80.3229 53.3672 79.8594 53.4635 79.5469 53.6562C79.2344 53.849 79.0781 54.1146 79.0781 54.4531C79.0781 54.6823 79.1354 54.8776 79.25 55.0391C79.3698 55.2005 79.5599 55.3542 79.8203 55.5C80.0807 55.6458 80.5807 55.8568 81.3203 56.1328C82.3359 56.5026 83.0208 56.875 83.375 57.25C83.7344 57.625 83.9141 58.0964 83.9141 58.6641ZM101.102 61V55.4297C101.102 54.7474 100.956 54.237 100.664 53.8984C100.372 53.5547 99.9193 53.3828 99.3047 53.3828C98.4974 53.3828 97.901 53.6146 97.5156 54.0781C97.1302 54.5417 96.9375 55.2552 96.9375 56.2188V61H95.6406V55.4297C95.6406 54.7474 95.4948 54.237 95.2031 53.8984C94.9115 53.5547 94.4557 53.3828 93.8359 53.3828C93.0234 53.3828 92.4271 53.6276 92.0469 54.1172C91.6719 54.6016 91.4844 55.3984 91.4844 56.5078V61H90.1875V52.4375H91.2422L91.4531 53.6094H91.5156C91.7604 53.1927 92.1042 52.8672 92.5469 52.6328C92.9948 52.3984 93.4948 52.2812 94.0469 52.2812C95.3854 52.2812 96.2604 52.7656 96.6719 53.7344H96.7344C96.9896 53.2865 97.3594 52.9323 97.8438 52.6719C98.3281 52.4115 98.8802 52.2812 99.5 52.2812C100.469 52.2812 101.193 52.5312 101.672 53.0312C102.156 53.526 102.398 54.3203 102.398 55.4141V61H101.102ZM110.344 61L110.086 59.7812H110.023C109.596 60.3177 109.169 60.6823 108.742 60.875C108.32 61.0625 107.792 61.1562 107.156 61.1562C106.307 61.1562 105.641 60.9375 105.156 60.5C104.677 60.0625 104.438 59.4401 104.438 58.6328C104.438 56.9036 105.82 55.9974 108.586 55.9141L110.039 55.8672V55.3359C110.039 54.6641 109.893 54.1693 109.602 53.8516C109.315 53.5286 108.854 53.3672 108.219 53.3672C107.505 53.3672 106.698 53.5859 105.797 54.0234L105.398 53.0312C105.82 52.8021 106.281 52.6224 106.781 52.4922C107.286 52.362 107.792 52.2969 108.297 52.2969C109.318 52.2969 110.073 52.5234 110.562 52.9766C111.057 53.4297 111.305 54.1562 111.305 55.1562V61H110.344ZM107.414 60.0859C108.221 60.0859 108.854 59.8646 109.312 59.4219C109.776 58.9792 110.008 58.3594 110.008 57.5625V56.7891L108.711 56.8438C107.68 56.8802 106.935 57.0417 106.477 57.3281C106.023 57.6094 105.797 58.0495 105.797 58.6484C105.797 59.1172 105.938 59.474 106.219 59.7188C106.505 59.9635 106.904 60.0859 107.414 60.0859ZM116.75 60.0859C116.979 60.0859 117.201 60.0703 117.414 60.0391C117.628 60.0026 117.797 59.9661 117.922 59.9297V60.9219C117.781 60.9896 117.573 61.0443 117.297 61.0859C117.026 61.1328 116.781 61.1562 116.562 61.1562C114.906 61.1562 114.078 60.2839 114.078 58.5391V53.4453H112.852V52.8203L114.078 52.2812L114.625 50.4531H115.375V52.4375H117.859V53.4453H115.375V58.4844C115.375 59 115.497 59.3958 115.742 59.6719C115.987 59.9479 116.323 60.0859 116.75 60.0859ZM122.406 60.0859C122.635 60.0859 122.857 60.0703 123.07 60.0391C123.284 60.0026 123.453 59.9661 123.578 59.9297V60.9219C123.438 60.9896 123.229 61.0443 122.953 61.0859C122.682 61.1328 122.438 61.1562 122.219 61.1562C120.562 61.1562 119.734 60.2839 119.734 58.5391V53.4453H118.508V52.8203L119.734 52.2812L120.281 50.4531H121.031V52.4375H123.516V53.4453H121.031V58.4844C121.031 59 121.154 59.3958 121.398 59.6719C121.643 59.9479 121.979 60.0859 122.406 60.0859ZM126.594 61H125.297V52.4375H126.594V61ZM125.188 50.1172C125.188 49.8203 125.26 49.6042 125.406 49.4688C125.552 49.3281 125.734 49.2578 125.953 49.2578C126.161 49.2578 126.341 49.3281 126.492 49.4688C126.643 49.6094 126.719 49.8255 126.719 50.1172C126.719 50.4089 126.643 50.6276 126.492 50.7734C126.341 50.9141 126.161 50.9844 125.953 50.9844C125.734 50.9844 125.552 50.9141 125.406 50.7734C125.26 50.6276 125.188 50.4089 125.188 50.1172ZM134.867 58.6641C134.867 59.4609 134.57 60.0755 133.977 60.5078C133.383 60.9401 132.549 61.1562 131.477 61.1562C130.341 61.1562 129.456 60.9766 128.82 60.6172V59.4141C129.232 59.6224 129.672 59.7865 130.141 59.9062C130.615 60.026 131.07 60.0859 131.508 60.0859C132.185 60.0859 132.706 59.9792 133.07 59.7656C133.435 59.5469 133.617 59.2161 133.617 58.7734C133.617 58.4401 133.471 58.1562 133.18 57.9219C132.893 57.6823 132.331 57.401 131.492 57.0781C130.695 56.7812 130.128 56.5234 129.789 56.3047C129.456 56.0807 129.206 55.8281 129.039 55.5469C128.878 55.2656 128.797 54.9297 128.797 54.5391C128.797 53.8411 129.081 53.2917 129.648 52.8906C130.216 52.4844 130.995 52.2812 131.984 52.2812C132.906 52.2812 133.807 52.4688 134.688 52.8438L134.227 53.8984C133.367 53.5443 132.589 53.3672 131.891 53.3672C131.276 53.3672 130.812 53.4635 130.5 53.6562C130.188 53.849 130.031 54.1146 130.031 54.4531C130.031 54.6823 130.089 54.8776 130.203 55.0391C130.323 55.2005 130.513 55.3542 130.773 55.5C131.034 55.6458 131.534 55.8568 132.273 56.1328C133.289 56.5026 133.974 56.875 134.328 57.25C134.688 57.625 134.867 58.0964 134.867 58.6641ZM144.758 61.1562C143.492 61.1562 142.492 60.7708 141.758 60C141.029 59.2292 140.664 58.1589 140.664 56.7891C140.664 55.4089 141.003 54.3125 141.68 53.5C142.362 52.6875 143.276 52.2812 144.422 52.2812C145.495 52.2812 146.344 52.6354 146.969 53.3438C147.594 54.0469 147.906 54.9766 147.906 56.1328V56.9531H142.008C142.034 57.9583 142.286 58.7214 142.766 59.2422C143.25 59.763 143.93 60.0234 144.805 60.0234C145.727 60.0234 146.638 59.8307 147.539 59.4453V60.6016C147.081 60.7995 146.646 60.9401 146.234 61.0234C145.828 61.112 145.336 61.1562 144.758 61.1562ZM144.406 53.3672C143.719 53.3672 143.169 53.5911 142.758 54.0391C142.352 54.487 142.112 55.1068 142.039 55.8984H146.516C146.516 55.0807 146.333 54.4557 145.969 54.0234C145.604 53.5859 145.083 53.3672 144.406 53.3672ZM154.031 52.2812C154.411 52.2812 154.753 52.3125 155.055 52.375L154.875 53.5781C154.521 53.5 154.208 53.4609 153.938 53.4609C153.245 53.4609 152.651 53.7422 152.156 54.3047C151.667 54.8672 151.422 55.5677 151.422 56.4062V61H150.125V52.4375H151.195L151.344 54.0234H151.406C151.724 53.4661 152.107 53.0365 152.555 52.7344C153.003 52.4323 153.495 52.2812 154.031 52.2812ZM164.047 56.7109C164.047 58.1068 163.695 59.1979 162.992 59.9844C162.289 60.7656 161.318 61.1562 160.078 61.1562C159.312 61.1562 158.633 60.9766 158.039 60.6172C157.445 60.2578 156.987 59.7422 156.664 59.0703C156.341 58.3984 156.18 57.612 156.18 56.7109C156.18 55.3151 156.529 54.2292 157.227 53.4531C157.924 52.6719 158.893 52.2812 160.133 52.2812C161.331 52.2812 162.281 52.6797 162.984 53.4766C163.693 54.2734 164.047 55.3516 164.047 56.7109ZM157.523 56.7109C157.523 57.8047 157.742 58.638 158.18 59.2109C158.617 59.7839 159.26 60.0703 160.109 60.0703C160.958 60.0703 161.602 59.7865 162.039 59.2188C162.482 58.6458 162.703 57.8099 162.703 56.7109C162.703 55.6224 162.482 54.7969 162.039 54.2344C161.602 53.6667 160.953 53.3828 160.094 53.3828C159.245 53.3828 158.604 53.6615 158.172 54.2188C157.74 54.776 157.523 55.6068 157.523 56.7109ZM171.852 58.6641C171.852 59.4609 171.555 60.0755 170.961 60.5078C170.367 60.9401 169.534 61.1562 168.461 61.1562C167.326 61.1562 166.44 60.9766 165.805 60.6172V59.4141C166.216 59.6224 166.656 59.7865 167.125 59.9062C167.599 60.026 168.055 60.0859 168.492 60.0859C169.169 60.0859 169.69 59.9792 170.055 59.7656C170.419 59.5469 170.602 59.2161 170.602 58.7734C170.602 58.4401 170.456 58.1562 170.164 57.9219C169.878 57.6823 169.315 57.401 168.477 57.0781C167.68 56.7812 167.112 56.5234 166.773 56.3047C166.44 56.0807 166.19 55.8281 166.023 55.5469C165.862 55.2656 165.781 54.9297 165.781 54.5391C165.781 53.8411 166.065 53.2917 166.633 52.8906C167.201 52.4844 167.979 52.2812 168.969 52.2812C169.891 52.2812 170.792 52.4688 171.672 52.8438L171.211 53.8984C170.352 53.5443 169.573 53.3672 168.875 53.3672C168.26 53.3672 167.797 53.4635 167.484 53.6562C167.172 53.849 167.016 54.1146 167.016 54.4531C167.016 54.6823 167.073 54.8776 167.188 55.0391C167.307 55.2005 167.497 55.3542 167.758 55.5C168.018 55.6458 168.518 55.8568 169.258 56.1328C170.273 56.5026 170.958 56.875 171.312 57.25C171.672 57.625 171.852 58.0964 171.852 58.6641ZM183.391 61L183.133 59.7812H183.07C182.643 60.3177 182.216 60.6823 181.789 60.875C181.367 61.0625 180.839 61.1562 180.203 61.1562C179.354 61.1562 178.688 60.9375 178.203 60.5C177.724 60.0625 177.484 59.4401 177.484 58.6328C177.484 56.9036 178.867 55.9974 181.633 55.9141L183.086 55.8672V55.3359C183.086 54.6641 182.94 54.1693 182.648 53.8516C182.362 53.5286 181.901 53.3672 181.266 53.3672C180.552 53.3672 179.745 53.5859 178.844 54.0234L178.445 53.0312C178.867 52.8021 179.328 52.6224 179.828 52.4922C180.333 52.362 180.839 52.2969 181.344 52.2969C182.365 52.2969 183.12 52.5234 183.609 52.9766C184.104 53.4297 184.352 54.1562 184.352 55.1562V61H183.391ZM180.461 60.0859C181.268 60.0859 181.901 59.8646 182.359 59.4219C182.823 58.9792 183.055 58.3594 183.055 57.5625V56.7891L181.758 56.8438C180.727 56.8802 179.982 57.0417 179.523 57.3281C179.07 57.6094 178.844 58.0495 178.844 58.6484C178.844 59.1172 178.984 59.474 179.266 59.7188C179.552 59.9635 179.951 60.0859 180.461 60.0859ZM189.797 60.0859C190.026 60.0859 190.247 60.0703 190.461 60.0391C190.674 60.0026 190.844 59.9661 190.969 59.9297V60.9219C190.828 60.9896 190.62 61.0443 190.344 61.0859C190.073 61.1328 189.828 61.1562 189.609 61.1562C187.953 61.1562 187.125 60.2839 187.125 58.5391V53.4453H185.898V52.8203L187.125 52.2812L187.672 50.4531H188.422V52.4375H190.906V53.4453H188.422V58.4844C188.422 59 188.544 59.3958 188.789 59.6719C189.034 59.9479 189.37 60.0859 189.797 60.0859ZM202.367 58.6641C202.367 59.4609 202.07 60.0755 201.477 60.5078C200.883 60.9401 200.049 61.1562 198.977 61.1562C197.841 61.1562 196.956 60.9766 196.32 60.6172V59.4141C196.732 59.6224 197.172 59.7865 197.641 59.9062C198.115 60.026 198.57 60.0859 199.008 60.0859C199.685 60.0859 200.206 59.9792 200.57 59.7656C200.935 59.5469 201.117 59.2161 201.117 58.7734C201.117 58.4401 200.971 58.1562 200.68 57.9219C200.393 57.6823 199.831 57.401 198.992 57.0781C198.195 56.7812 197.628 56.5234 197.289 56.3047C196.956 56.0807 196.706 55.8281 196.539 55.5469C196.378 55.2656 196.297 54.9297 196.297 54.5391C196.297 53.8411 196.581 53.2917 197.148 52.8906C197.716 52.4844 198.495 52.2812 199.484 52.2812C200.406 52.2812 201.307 52.4688 202.188 52.8438L201.727 53.8984C200.867 53.5443 200.089 53.3672 199.391 53.3672C198.776 53.3672 198.312 53.4635 198 53.6562C197.688 53.849 197.531 54.1146 197.531 54.4531C197.531 54.6823 197.589 54.8776 197.703 55.0391C197.823 55.2005 198.013 55.3542 198.273 55.5C198.534 55.6458 199.034 55.8568 199.773 56.1328C200.789 56.5026 201.474 56.875 201.828 57.25C202.188 57.625 202.367 58.0964 202.367 58.6641ZM208.102 61.1562C206.836 61.1562 205.836 60.7708 205.102 60C204.372 59.2292 204.008 58.1589 204.008 56.7891C204.008 55.4089 204.346 54.3125 205.023 53.5C205.706 52.6875 206.62 52.2812 207.766 52.2812C208.839 52.2812 209.688 52.6354 210.312 53.3438C210.938 54.0469 211.25 54.9766 211.25 56.1328V56.9531H205.352C205.378 57.9583 205.63 58.7214 206.109 59.2422C206.594 59.763 207.273 60.0234 208.148 60.0234C209.07 60.0234 209.982 59.8307 210.883 59.4453V60.6016C210.424 60.7995 209.99 60.9401 209.578 61.0234C209.172 61.112 208.68 61.1562 208.102 61.1562ZM207.75 53.3672C207.062 53.3672 206.513 53.5911 206.102 54.0391C205.695 54.487 205.456 55.1068 205.383 55.8984H209.859C209.859 55.0807 209.677 54.4557 209.312 54.0234C208.948 53.5859 208.427 53.3672 207.75 53.3672ZM224.383 61V55.4297C224.383 54.7474 224.237 54.237 223.945 53.8984C223.654 53.5547 223.201 53.3828 222.586 53.3828C221.779 53.3828 221.182 53.6146 220.797 54.0781C220.411 54.5417 220.219 55.2552 220.219 56.2188V61H218.922V55.4297C218.922 54.7474 218.776 54.237 218.484 53.8984C218.193 53.5547 217.737 53.3828 217.117 53.3828C216.305 53.3828 215.708 53.6276 215.328 54.1172C214.953 54.6016 214.766 55.3984 214.766 56.5078V61H213.469V52.4375H214.523L214.734 53.6094H214.797C215.042 53.1927 215.385 52.8672 215.828 52.6328C216.276 52.3984 216.776 52.2812 217.328 52.2812C218.667 52.2812 219.542 52.7656 219.953 53.7344H220.016C220.271 53.2865 220.641 52.9323 221.125 52.6719C221.609 52.4115 222.161 52.2812 222.781 52.2812C223.75 52.2812 224.474 52.5312 224.953 53.0312C225.438 53.526 225.68 54.3203 225.68 55.4141V61H224.383ZM236.5 61.1562C235.943 61.1562 235.432 61.0547 234.969 60.8516C234.51 60.6432 234.125 60.3255 233.812 59.8984H233.719C233.781 60.3984 233.812 60.8724 233.812 61.3203V64.8438H232.516V52.4375H233.57L233.75 53.6094H233.812C234.146 53.1406 234.534 52.8021 234.977 52.5938C235.419 52.3854 235.927 52.2812 236.5 52.2812C237.635 52.2812 238.51 52.6693 239.125 53.4453C239.745 54.2214 240.055 55.3099 240.055 56.7109C240.055 58.1172 239.74 59.2109 239.109 59.9922C238.484 60.7682 237.615 61.1562 236.5 61.1562ZM236.312 53.3828C235.438 53.3828 234.805 53.625 234.414 54.1094C234.023 54.5938 233.823 55.3646 233.812 56.4219V56.7109C233.812 57.9141 234.013 58.776 234.414 59.2969C234.815 59.8125 235.458 60.0703 236.344 60.0703C237.083 60.0703 237.661 59.7708 238.078 59.1719C238.5 58.5729 238.711 57.7474 238.711 56.6953C238.711 55.6276 238.5 54.8099 238.078 54.2422C237.661 53.6693 237.073 53.3828 236.312 53.3828ZM243.547 52.4375V57.9922C243.547 58.6901 243.706 59.2109 244.023 59.5547C244.341 59.8984 244.839 60.0703 245.516 60.0703C246.411 60.0703 247.065 59.8255 247.477 59.3359C247.893 58.8464 248.102 58.0469 248.102 56.9375V52.4375H249.398V61H248.328L248.141 59.8516H248.07C247.805 60.2734 247.435 60.5964 246.961 60.8203C246.492 61.0443 245.956 61.1562 245.352 61.1562C244.31 61.1562 243.529 60.9089 243.008 60.4141C242.492 59.9193 242.234 59.1276 242.234 58.0391V52.4375H243.547ZM253.453 61H252.156V48.8438H253.453V61ZM258.078 61L254.828 52.4375H256.219L258.062 57.5156C258.479 58.7031 258.724 59.474 258.797 59.8281H258.859C258.917 59.5521 259.096 58.9818 259.398 58.1172C259.706 57.2474 260.391 55.3542 261.453 52.4375H262.844L259.594 61H258.078ZM265.516 61H264.219V52.4375H265.516V61ZM264.109 50.1172C264.109 49.8203 264.182 49.6042 264.328 49.4688C264.474 49.3281 264.656 49.2578 264.875 49.2578C265.083 49.2578 265.263 49.3281 265.414 49.4688C265.565 49.6094 265.641 49.8255 265.641 50.1172C265.641 50.4089 265.565 50.6276 265.414 50.7734C265.263 50.9141 265.083 50.9844 264.875 50.9844C264.656 50.9844 264.474 50.9141 264.328 50.7734C264.182 50.6276 264.109 50.4089 264.109 50.1172ZM274.125 61V55.4609C274.125 54.763 273.966 54.2422 273.648 53.8984C273.331 53.5547 272.833 53.3828 272.156 53.3828C271.26 53.3828 270.604 53.625 270.188 54.1094C269.771 54.5938 269.562 55.3932 269.562 56.5078V61H268.266V52.4375H269.32L269.531 53.6094H269.594C269.859 53.1875 270.232 52.862 270.711 52.6328C271.19 52.3984 271.724 52.2812 272.312 52.2812C273.344 52.2812 274.12 52.5312 274.641 53.0312C275.161 53.526 275.422 54.3203 275.422 55.4141V61H274.125ZM283.359 61L283.102 59.7812H283.039C282.612 60.3177 282.185 60.6823 281.758 60.875C281.336 61.0625 280.807 61.1562 280.172 61.1562C279.323 61.1562 278.656 60.9375 278.172 60.5C277.693 60.0625 277.453 59.4401 277.453 58.6328C277.453 56.9036 278.836 55.9974 281.602 55.9141L283.055 55.8672V55.3359C283.055 54.6641 282.909 54.1693 282.617 53.8516C282.331 53.5286 281.87 53.3672 281.234 53.3672C280.521 53.3672 279.714 53.5859 278.812 54.0234L278.414 53.0312C278.836 52.8021 279.297 52.6224 279.797 52.4922C280.302 52.362 280.807 52.2969 281.312 52.2969C282.333 52.2969 283.089 52.5234 283.578 52.9766C284.073 53.4297 284.32 54.1562 284.32 55.1562V61H283.359ZM280.43 60.0859C281.237 60.0859 281.87 59.8646 282.328 59.4219C282.792 58.9792 283.023 58.3594 283.023 57.5625V56.7891L281.727 56.8438C280.695 56.8802 279.951 57.0417 279.492 57.3281C279.039 57.6094 278.812 58.0495 278.812 58.6484C278.812 59.1172 278.953 59.474 279.234 59.7188C279.521 59.9635 279.919 60.0859 280.43 60.0859ZM290.906 52.2812C291.286 52.2812 291.628 52.3125 291.93 52.375L291.75 53.5781C291.396 53.5 291.083 53.4609 290.812 53.4609C290.12 53.4609 289.526 53.7422 289.031 54.3047C288.542 54.8672 288.297 55.5677 288.297 56.4062V61H287V52.4375H288.07L288.219 54.0234H288.281C288.599 53.4661 288.982 53.0365 289.43 52.7344C289.878 52.4323 290.37 52.2812 290.906 52.2812Z" fill="black"/>
</svg>
