<svg width="384" height="136" viewBox="0 0 384 136" fill="none" xmlns="http://www.w3.org/2000/svg">
<path d="M1.40909 12H5.61364C8.36364 12 9.5 10.6591 9.5 8.90909C9.5 7.06818 8.22727 6.06818 7.15909 6V5.88636C8.15909 5.61364 9.04545 4.95455 9.04545 3.45455C9.04545 1.75 7.90909 0.363636 5.47727 0.363636H1.40909V12ZM2.81818 10.75V6.70455H5.68182C7.20455 6.70455 8.15909 7.72727 8.15909 8.90909C8.15909 9.93182 7.45455 10.75 5.61364 10.75H2.81818ZM2.81818 5.47727V1.61364H5.47727C7.02273 1.61364 7.70455 2.43182 7.70455 3.45455C7.70455 4.68182 6.70455 5.47727 5.43182 5.47727H2.81818ZM17.1335 8.43182C17.1335 10.0682 15.8835 10.8182 14.8835 10.8182C13.7699 10.8182 12.9744 10 12.9744 8.72727V3.27273H11.6335V8.81818C11.6335 11.0455 12.8153 12.1136 14.4517 12.1136C15.7699 12.1136 16.6335 11.4091 17.0426 10.5227H17.1335V12H18.4744V3.27273H17.1335V8.43182ZM24.7259 3.27273H22.8622V1.18182H21.5213V3.27273H20.2031V4.40909H21.5213V9.86364C21.5213 11.3864 22.7486 12.1136 23.8849 12.1136C24.3849 12.1136 24.7031 12.0227 24.8849 11.9545L24.6122 10.75C24.4986 10.7727 24.3168 10.8182 24.0213 10.8182C23.4304 10.8182 22.8622 10.6364 22.8622 9.5V4.40909H24.7259V3.27273ZM32.8338 0.363636H31.4247V12H32.8338V0.363636ZM39.9773 12H41.3182V6.54545C41.3182 5.26705 42.25 4.36364 43.2955 4.36364C44.3125 4.36364 45.0227 5.02841 45.0227 6.02273V12H46.3864V6.31818C46.3864 5.19318 47.0909 4.36364 48.3182 4.36364C49.2727 4.36364 50.0909 4.86932 50.0909 6.15909V12H51.4318V6.15909C51.4318 4.10795 50.3295 3.15909 48.7727 3.15909C47.5227 3.15909 46.608 3.73295 46.1591 4.63636H46.0682C45.6364 3.70455 44.875 3.15909 43.7273 3.15909C42.5909 3.15909 41.75 3.70455 41.3864 4.63636H41.2727V3.27273H39.9773V12ZM59.3835 8.43182C59.3835 10.0682 58.1335 10.8182 57.1335 10.8182C56.0199 10.8182 55.2244 10 55.2244 8.72727V3.27273H53.8835V8.81818C53.8835 11.0455 55.0653 12.1136 56.7017 12.1136C58.0199 12.1136 58.8835 11.4091 59.2926 10.5227H59.3835V12H60.7244V3.27273H59.3835V8.43182ZM69.3622 5.22727C68.9418 3.98864 67.9986 3.15909 66.2713 3.15909C64.4304 3.15909 63.0668 4.20455 63.0668 5.68182C63.0668 6.88636 63.7827 7.69318 65.3849 8.06818L66.8395 8.40909C67.7202 8.61364 68.1349 9.03409 68.1349 9.63636C68.1349 10.3864 67.3395 11 66.0895 11C64.9929 11 64.3054 10.5284 64.0668 9.59091L62.794 9.90909C63.1065 11.392 64.3281 12.1818 66.1122 12.1818C68.1406 12.1818 69.5213 11.0739 69.5213 9.56818C69.5213 8.35227 68.7599 7.58523 67.2031 7.20455L65.9077 6.88636C64.8736 6.63068 64.4077 6.28409 64.4077 5.61364C64.4077 4.86364 65.2031 4.31818 66.2713 4.31818C67.4418 4.31818 67.9247 4.96591 68.1577 5.56818L69.3622 5.22727ZM75.3352 3.27273H73.4716V1.18182H72.1307V3.27273H70.8125V4.40909H72.1307V9.86364C72.1307 11.3864 73.358 12.1136 74.4943 12.1136C74.9943 12.1136 75.3125 12.0227 75.4943 11.9545L75.2216 10.75C75.108 10.7727 74.9261 10.8182 74.6307 10.8182C74.0398 10.8182 73.4716 10.6364 73.4716 9.5V4.40909H75.3352V3.27273ZM85.5114 12.1818C87.2841 12.1818 88.5795 11.2955 88.9886 9.97727L87.6932 9.61364C87.3523 10.5227 86.5625 10.9773 85.5114 10.9773C83.9375 10.9773 82.8523 9.96023 82.7898 8.09091H89.125V7.52273C89.125 4.27273 87.1932 3.15909 85.375 3.15909C83.0114 3.15909 81.4432 5.02273 81.4432 7.70455C81.4432 10.3864 82.9886 12.1818 85.5114 12.1818ZM82.7898 6.93182C82.8807 5.57386 83.8409 4.36364 85.375 4.36364C86.8295 4.36364 87.7614 5.45455 87.7614 6.93182H82.7898ZM91.9304 3.27273H90.3849L93.1577 7.63636L90.3849 12H91.9304L94.0213 8.61364L96.1122 12H97.6577L94.8395 7.63636L97.6577 3.27273H96.1122L94.0213 6.84091L91.9304 3.27273ZM99.571 15.2727H100.912V10.6591H101.026C101.321 11.1364 101.889 12.1818 103.571 12.1818C105.753 12.1818 107.276 10.4318 107.276 7.65909C107.276 4.90909 105.753 3.15909 103.548 3.15909C101.844 3.15909 101.321 4.20455 101.026 4.65909H100.866V3.27273H99.571V15.2727ZM100.889 7.63636C100.889 5.68182 101.753 4.36364 103.389 4.36364C105.094 4.36364 105.935 5.79545 105.935 7.63636C105.935 9.5 105.071 10.9773 103.389 10.9773C101.776 10.9773 100.889 9.61364 100.889 7.63636ZM110.662 0.363636H109.321V12H110.662V0.363636ZM115.686 12.2045C117.209 12.2045 118.004 11.3864 118.277 10.8182H118.345V12H119.686V6.25C119.686 3.47727 117.572 3.15909 116.459 3.15909C115.141 3.15909 113.641 3.61364 112.959 5.20455L114.232 5.65909C114.527 5.02273 115.226 4.34091 116.504 4.34091C117.737 4.34091 118.345 4.99432 118.345 6.11364V6.15909C118.345 6.80682 117.686 6.75 116.095 6.95455C114.476 7.16477 112.709 7.52273 112.709 9.52273C112.709 11.2273 114.027 12.2045 115.686 12.2045ZM115.891 11C114.822 11 114.05 10.5227 114.05 9.59091C114.05 8.56818 114.982 8.25 116.027 8.11364C116.595 8.04545 118.118 7.88636 118.345 7.61364V8.84091C118.345 9.93182 117.482 11 115.891 11ZM122.134 12H123.474V3.27273H122.134V12ZM122.815 1.81818C123.338 1.81818 123.77 1.40909 123.77 0.909091C123.77 0.409091 123.338 0 122.815 0C122.293 0 121.861 0.409091 121.861 0.909091C121.861 1.40909 122.293 1.81818 122.815 1.81818ZM127.271 6.75C127.271 5.22727 128.214 4.36364 129.499 4.36364C130.743 4.36364 131.499 5.17614 131.499 6.54545V12H132.839V6.45455C132.839 4.22727 131.652 3.15909 129.885 3.15909C128.567 3.15909 127.749 3.75 127.339 4.63636H127.226V3.27273H125.93V12H127.271V6.75ZM143.585 3.27273H141.722V1.18182H140.381V3.27273H139.062V4.40909H140.381V9.86364C140.381 11.3864 141.608 12.1136 142.744 12.1136C143.244 12.1136 143.562 12.0227 143.744 11.9545L143.472 10.75C143.358 10.7727 143.176 10.8182 142.881 10.8182C142.29 10.8182 141.722 10.6364 141.722 9.5V4.40909H143.585V3.27273ZM149.054 12.1818C151.418 12.1818 153.009 10.3864 153.009 7.68182C153.009 4.95455 151.418 3.15909 149.054 3.15909C146.69 3.15909 145.099 4.95455 145.099 7.68182C145.099 10.3864 146.69 12.1818 149.054 12.1818ZM149.054 10.9773C147.259 10.9773 146.44 9.43182 146.44 7.68182C146.44 5.93182 147.259 4.36364 149.054 4.36364C150.849 4.36364 151.668 5.93182 151.668 7.68182C151.668 9.43182 150.849 10.9773 149.054 10.9773ZM160.419 15.25C161.629 15.25 162.487 14.608 162.987 13.2727L166.703 3.29545L165.237 3.27273L162.828 10.2273H162.737L160.328 3.27273H158.874L162.101 12.0455L161.851 12.7273C161.374 14.0341 160.76 14.1591 159.783 13.9091L159.442 15.0909C159.578 15.1591 159.964 15.25 160.419 15.25ZM171.71 12.1818C174.074 12.1818 175.665 10.3864 175.665 7.68182C175.665 4.95455 174.074 3.15909 171.71 3.15909C169.347 3.15909 167.756 4.95455 167.756 7.68182C167.756 10.3864 169.347 12.1818 171.71 12.1818ZM171.71 10.9773C169.915 10.9773 169.097 9.43182 169.097 7.68182C169.097 5.93182 169.915 4.36364 171.71 4.36364C173.506 4.36364 174.324 5.93182 174.324 7.68182C174.324 9.43182 173.506 10.9773 171.71 10.9773ZM183.212 8.43182C183.212 10.0682 181.962 10.8182 180.962 10.8182C179.848 10.8182 179.053 10 179.053 8.72727V3.27273H177.712V8.81818C177.712 11.0455 178.893 12.1136 180.53 12.1136C181.848 12.1136 182.712 11.4091 183.121 10.5227H183.212V12H184.553V3.27273H183.212V8.43182ZM192.849 6.75C192.849 5.22727 193.821 4.36364 195.145 4.36364C196.406 4.36364 197.168 5.15909 197.168 6.54545V12H198.509V6.45455C198.509 4.21023 197.315 3.15909 195.531 3.15909C194.156 3.15909 193.372 3.73295 192.963 4.63636H192.849V0.363636H191.509V12H192.849V6.75ZM204.507 12.1818C206.871 12.1818 208.462 10.3864 208.462 7.68182C208.462 4.95455 206.871 3.15909 204.507 3.15909C202.143 3.15909 200.553 4.95455 200.553 7.68182C200.553 10.3864 202.143 12.1818 204.507 12.1818ZM204.507 10.9773C202.712 10.9773 201.893 9.43182 201.893 7.68182C201.893 5.93182 202.712 4.36364 204.507 4.36364C206.303 4.36364 207.121 5.93182 207.121 7.68182C207.121 9.43182 206.303 10.9773 204.507 10.9773ZM212.189 12H213.507L215.416 5.29545H215.553L217.462 12H218.78L221.439 3.27273H220.03L218.143 9.93182H218.053L216.212 3.27273H214.78L212.916 9.95455H212.825L210.939 3.27273H209.53L212.189 12ZM230.28 12.2045C231.803 12.2045 232.598 11.3864 232.871 10.8182H232.939V12H234.28V6.25C234.28 3.47727 232.166 3.15909 231.053 3.15909C229.734 3.15909 228.234 3.61364 227.553 5.20455L228.825 5.65909C229.121 5.02273 229.82 4.34091 231.098 4.34091C232.331 4.34091 232.939 4.99432 232.939 6.11364V6.15909C232.939 6.80682 232.28 6.75 230.689 6.95455C229.07 7.16477 227.303 7.52273 227.303 9.52273C227.303 11.2273 228.621 12.2045 230.28 12.2045ZM230.484 11C229.416 11 228.643 10.5227 228.643 9.59091C228.643 8.56818 229.575 8.25 230.621 8.11364C231.189 8.04545 232.712 7.88636 232.939 7.61364V8.84091C232.939 9.93182 232.075 11 230.484 11ZM238.068 0.363636H236.727V12H238.068V0.363636ZM241.865 0.363636H240.524V12H241.865V0.363636ZM252.616 3.27273H250.753V1.18182H249.412V3.27273H248.094V4.40909H249.412V9.86364C249.412 11.3864 250.639 12.1136 251.776 12.1136C252.276 12.1136 252.594 12.0227 252.776 11.9545L252.503 10.75C252.389 10.7727 252.207 10.8182 251.912 10.8182C251.321 10.8182 250.753 10.6364 250.753 9.5V4.40909H252.616V3.27273ZM256.162 6.75C256.162 5.22727 257.134 4.36364 258.457 4.36364C259.719 4.36364 260.48 5.15909 260.48 6.54545V12H261.821V6.45455C261.821 4.21023 260.628 3.15909 258.844 3.15909C257.469 3.15909 256.685 3.73295 256.276 4.63636H256.162V0.363636H254.821V12H256.162V6.75ZM264.274 12H265.615V3.27273H264.274V12ZM264.956 1.81818C265.479 1.81818 265.911 1.40909 265.911 0.909091C265.911 0.409091 265.479 0 264.956 0C264.433 0 264.001 0.409091 264.001 0.909091C264.001 1.40909 264.433 1.81818 264.956 1.81818ZM274.253 5.22727C273.832 3.98864 272.889 3.15909 271.162 3.15909C269.321 3.15909 267.957 4.20455 267.957 5.68182C267.957 6.88636 268.673 7.69318 270.276 8.06818L271.73 8.40909C272.611 8.61364 273.026 9.03409 273.026 9.63636C273.026 10.3864 272.23 11 270.98 11C269.884 11 269.196 10.5284 268.957 9.59091L267.685 9.90909C267.997 11.392 269.219 12.1818 271.003 12.1818C273.031 12.1818 274.412 11.0739 274.412 9.56818C274.412 8.35227 273.651 7.58523 272.094 7.20455L270.798 6.88636C269.764 6.63068 269.298 6.28409 269.298 5.61364C269.298 4.86364 270.094 4.31818 271.162 4.31818C272.332 4.31818 272.815 4.96591 273.048 5.56818L274.253 5.22727ZM280.93 12H282.271V6.54545C282.271 5.26705 283.203 4.36364 284.249 4.36364C285.266 4.36364 285.976 5.02841 285.976 6.02273V12H287.339V6.31818C287.339 5.19318 288.044 4.36364 289.271 4.36364C290.226 4.36364 291.044 4.86932 291.044 6.15909V12H292.385V6.15909C292.385 4.10795 291.283 3.15909 289.726 3.15909C288.476 3.15909 287.561 3.73295 287.112 4.63636H287.021C286.589 3.70455 285.828 3.15909 284.68 3.15909C283.544 3.15909 282.703 3.70455 282.339 4.63636H282.226V3.27273H280.93V12ZM294.837 12H296.178V3.27273H294.837V12ZM295.518 1.81818C296.041 1.81818 296.473 1.40909 296.473 0.909091C296.473 0.409091 296.041 0 295.518 0C294.996 0 294.564 0.409091 294.564 0.909091C294.564 1.40909 294.996 1.81818 295.518 1.81818ZM304.815 5.22727C304.395 3.98864 303.452 3.15909 301.724 3.15909C299.884 3.15909 298.52 4.20455 298.52 5.68182C298.52 6.88636 299.236 7.69318 300.838 8.06818L302.293 8.40909C303.173 8.61364 303.588 9.03409 303.588 9.63636C303.588 10.3864 302.793 11 301.543 11C300.446 11 299.759 10.5284 299.52 9.59091L298.247 9.90909C298.56 11.392 299.781 12.1818 301.565 12.1818C303.594 12.1818 304.974 11.0739 304.974 9.56818C304.974 8.35227 304.213 7.58523 302.656 7.20455L301.361 6.88636C300.327 6.63068 299.861 6.28409 299.861 5.61364C299.861 4.86364 300.656 4.31818 301.724 4.31818C302.895 4.31818 303.378 4.96591 303.611 5.56818L304.815 5.22727ZM310.788 3.27273H308.925V1.18182H307.584V3.27273H306.266V4.40909H307.584V9.86364C307.584 11.3864 308.811 12.1136 309.947 12.1136C310.447 12.1136 310.766 12.0227 310.947 11.9545L310.675 10.75C310.561 10.7727 310.379 10.8182 310.084 10.8182C309.493 10.8182 308.925 10.6364 308.925 9.5V4.40909H310.788V3.27273ZM315.374 12.2045C316.896 12.2045 317.692 11.3864 317.964 10.8182H318.033V12H319.374V6.25C319.374 3.47727 317.26 3.15909 316.146 3.15909C314.828 3.15909 313.328 3.61364 312.646 5.20455L313.919 5.65909C314.214 5.02273 314.913 4.34091 316.192 4.34091C317.425 4.34091 318.033 4.99432 318.033 6.11364V6.15909C318.033 6.80682 317.374 6.75 315.783 6.95455C314.163 7.16477 312.396 7.52273 312.396 9.52273C312.396 11.2273 313.714 12.2045 315.374 12.2045ZM315.578 11C314.51 11 313.737 10.5227 313.737 9.59091C313.737 8.56818 314.669 8.25 315.714 8.11364C316.283 8.04545 317.805 7.88636 318.033 7.61364V8.84091C318.033 9.93182 317.169 11 315.578 11ZM321.821 12H323.162V8.73295L324.099 7.86364L327.366 12H329.071L325.111 7L328.798 3.27273H327.139L323.321 7.15909H323.162V0.363636H321.821V12ZM333.824 12.1818C335.597 12.1818 336.892 11.2955 337.301 9.97727L336.006 9.61364C335.665 10.5227 334.875 10.9773 333.824 10.9773C332.25 10.9773 331.165 9.96023 331.102 8.09091H337.438V7.52273C337.438 4.27273 335.506 3.15909 333.688 3.15909C331.324 3.15909 329.756 5.02273 329.756 7.70455C329.756 10.3864 331.301 12.1818 333.824 12.1818ZM331.102 6.93182C331.193 5.57386 332.153 4.36364 333.688 4.36364C335.142 4.36364 336.074 5.45455 336.074 6.93182H331.102ZM340.818 6.75C340.818 5.22727 341.761 4.36364 343.045 4.36364C344.29 4.36364 345.045 5.17614 345.045 6.54545V12H346.386V6.45455C346.386 4.22727 345.199 3.15909 343.432 3.15909C342.114 3.15909 341.295 3.75 340.886 4.63636H340.773V3.27273H339.477V12H340.818V6.75ZM353.337 12H354.678V3.27273H353.337V12ZM354.018 1.81818C354.541 1.81818 354.973 1.40909 354.973 0.909091C354.973 0.409091 354.541 0 354.018 0C353.496 0 353.064 0.409091 353.064 0.909091C353.064 1.40909 353.496 1.81818 354.018 1.81818ZM360.429 12.1818C362.111 12.1818 362.679 11.1364 362.974 10.6591H363.134V12H364.429V0.363636H363.088V4.65909H362.974C362.679 4.20455 362.156 3.15909 360.452 3.15909C358.247 3.15909 356.724 4.90909 356.724 7.65909C356.724 10.4318 358.247 12.1818 360.429 12.1818ZM360.611 10.9773C358.929 10.9773 358.065 9.5 358.065 7.63636C358.065 5.79545 358.906 4.36364 360.611 4.36364C362.247 4.36364 363.111 5.68182 363.111 7.63636C363.111 9.61364 362.224 10.9773 360.611 10.9773ZM370.73 12.1818C372.503 12.1818 373.798 11.2955 374.207 9.97727L372.912 9.61364C372.571 10.5227 371.781 10.9773 370.73 10.9773C369.156 10.9773 368.071 9.96023 368.009 8.09091H374.344V7.52273C374.344 4.27273 372.412 3.15909 370.594 3.15909C368.23 3.15909 366.662 5.02273 366.662 7.70455C366.662 10.3864 368.207 12.1818 370.73 12.1818ZM368.009 6.93182C368.099 5.57386 369.06 4.36364 370.594 4.36364C372.048 4.36364 372.98 5.45455 372.98 6.93182H368.009ZM378.952 12.2045C380.474 12.2045 381.27 11.3864 381.543 10.8182H381.611V12H382.952V6.25C382.952 3.47727 380.838 3.15909 379.724 3.15909C378.406 3.15909 376.906 3.61364 376.224 5.20455L377.497 5.65909C377.793 5.02273 378.491 4.34091 379.77 4.34091C381.003 4.34091 381.611 4.99432 381.611 6.11364V6.15909C381.611 6.80682 380.952 6.75 379.361 6.95455C377.741 7.16477 375.974 7.52273 375.974 9.52273C375.974 11.2273 377.293 12.2045 378.952 12.2045ZM379.156 11C378.088 11 377.315 10.5227 377.315 9.59091C377.315 8.56818 378.247 8.25 379.293 8.11364C379.861 8.04545 381.384 7.88636 381.611 7.61364V8.84091C381.611 9.93182 380.747 11 379.156 11ZM4.77273 36.1818C7.13636 36.1818 8.72727 34.3864 8.72727 31.6818C8.72727 28.9545 7.13636 27.1591 4.77273 27.1591C2.40909 27.1591 0.818182 28.9545 0.818182 31.6818C0.818182 34.3864 2.40909 36.1818 4.77273 36.1818ZM4.77273 34.9773C2.97727 34.9773 2.15909 33.4318 2.15909 31.6818C2.15909 29.9318 2.97727 28.3636 4.77273 28.3636C6.56818 28.3636 7.38636 29.9318 7.38636 31.6818C7.38636 33.4318 6.56818 34.9773 4.77273 34.9773ZM14.6605 27.2727H12.706V26.3864C12.706 25.5227 13.0696 25.0682 13.956 25.0682C14.3423 25.0682 14.5696 25.1591 14.706 25.2045L15.0923 24.0455C14.8878 23.9545 14.4787 23.8182 13.8196 23.8182C12.5696 23.8182 11.3651 24.5682 11.3651 26.0682V27.2727H9.95597V28.4091H11.3651V36H12.706V28.4091H14.6605V27.2727ZM24.3352 36.1818C26.017 36.1818 26.5852 35.1364 26.8807 34.6591H27.0398V36H28.3352V24.3636H26.9943V28.6591H26.8807C26.5852 28.2045 26.0625 27.1591 24.358 27.1591C22.1534 27.1591 20.6307 28.9091 20.6307 31.6591C20.6307 34.4318 22.1534 36.1818 24.3352 36.1818ZM24.517 34.9773C22.8352 34.9773 21.9716 33.5 21.9716 31.6364C21.9716 29.7955 22.8125 28.3636 24.517 28.3636C26.1534 28.3636 27.017 29.6818 27.017 31.6364C27.017 33.6136 26.1307 34.9773 24.517 34.9773ZM34.6364 36.1818C36.4091 36.1818 37.7045 35.2955 38.1136 33.9773L36.8182 33.6136C36.4773 34.5227 35.6875 34.9773 34.6364 34.9773C33.0625 34.9773 31.9773 33.9602 31.9148 32.0909H38.25V31.5227C38.25 28.2727 36.3182 27.1591 34.5 27.1591C32.1364 27.1591 30.5682 29.0227 30.5682 31.7045C30.5682 34.3864 32.1136 36.1818 34.6364 36.1818ZM31.9148 30.9318C32.0057 29.5739 32.9659 28.3636 34.5 28.3636C35.9545 28.3636 36.8864 29.4545 36.8864 30.9318H31.9148ZM41.6307 30.75C41.6307 29.2273 42.5739 28.3636 43.858 28.3636C45.1023 28.3636 45.858 29.1761 45.858 30.5455V36H47.1989V30.4545C47.1989 28.2273 46.0114 27.1591 44.2443 27.1591C42.9261 27.1591 42.108 27.75 41.6989 28.6364H41.5852V27.2727H40.2898V36H41.6307V30.75ZM53.1946 36.1818C55.5582 36.1818 57.1491 34.3864 57.1491 31.6818C57.1491 28.9545 55.5582 27.1591 53.1946 27.1591C50.831 27.1591 49.2401 28.9545 49.2401 31.6818C49.2401 34.3864 50.831 36.1818 53.1946 36.1818ZM53.1946 34.9773C51.3991 34.9773 50.581 33.4318 50.581 31.6818C50.581 29.9318 51.3991 28.3636 53.1946 28.3636C54.9901 28.3636 55.8082 29.9318 55.8082 31.6818C55.8082 33.4318 54.9901 34.9773 53.1946 34.9773ZM64.696 32.4318C64.696 34.0682 63.446 34.8182 62.446 34.8182C61.3324 34.8182 60.5369 34 60.5369 32.7273V27.2727H59.196V32.8182C59.196 35.0455 60.3778 36.1136 62.0142 36.1136C63.3324 36.1136 64.196 35.4091 64.6051 34.5227H64.696V36H66.0369V27.2727H64.696V32.4318ZM69.8338 30.75C69.8338 29.2273 70.777 28.3636 72.0611 28.3636C73.3054 28.3636 74.0611 29.1761 74.0611 30.5455V36H75.402V30.4545C75.402 28.2273 74.2145 27.1591 72.4474 27.1591C71.1293 27.1591 70.3111 27.75 69.902 28.6364H69.7884V27.2727H68.4929V36H69.8338V30.75ZM81.3977 36.1818C83.3295 36.1818 84.6023 35 84.8295 33.4545H83.4886C83.2386 34.4091 82.4432 34.9773 81.3977 34.9773C79.8068 34.9773 78.7841 33.6591 78.7841 31.6364C78.7841 29.6591 79.8295 28.3636 81.3977 28.3636C82.5795 28.3636 83.2841 29.0909 83.4886 29.8864H84.8295C84.6023 28.25 83.2159 27.1591 81.375 27.1591C79.0114 27.1591 77.4432 29.0227 77.4432 31.6818C77.4432 34.2955 78.9432 36.1818 81.3977 36.1818ZM86.7898 36H88.1307V27.2727H86.7898V36ZM87.4716 25.8182C87.9943 25.8182 88.4261 25.4091 88.4261 24.9091C88.4261 24.4091 87.9943 24 87.4716 24C86.9489 24 86.517 24.4091 86.517 24.9091C86.517 25.4091 86.9489 25.8182 87.4716 25.8182ZM91.9276 30.75C91.9276 29.2273 92.8707 28.3636 94.1548 28.3636C95.3991 28.3636 96.1548 29.1761 96.1548 30.5455V36H97.4957V30.4545C97.4957 28.2273 96.3082 27.1591 94.5412 27.1591C93.223 27.1591 92.4048 27.75 91.9957 28.6364H91.8821V27.2727H90.5866V36H91.9276V30.75ZM103.469 39.4545C105.56 39.4545 107.241 38.5 107.241 36.25V27.2727H105.946V28.6591H105.81C105.514 28.2045 104.969 27.1591 103.264 27.1591C101.06 27.1591 99.5369 28.9091 99.5369 31.5909C99.5369 34.3182 101.128 35.8636 103.241 35.8636C104.946 35.8636 105.491 34.8636 105.787 34.3864H105.901V36.1591C105.901 37.6136 104.878 38.2727 103.469 38.2727C101.884 38.2727 101.327 37.4375 100.969 36.9545L99.9006 37.7045C100.446 38.6193 101.52 39.4545 103.469 39.4545ZM103.423 34.6591C101.741 34.6591 100.878 33.3864 100.878 31.5682C100.878 29.7955 101.719 28.3636 103.423 28.3636C105.06 28.3636 105.923 29.6818 105.923 31.5682C105.923 33.5 105.037 34.6591 103.423 34.6591ZM114.196 39.2727H115.537V34.6591H115.651C115.946 35.1364 116.514 36.1818 118.196 36.1818C120.378 36.1818 121.901 34.4318 121.901 31.6591C121.901 28.9091 120.378 27.1591 118.173 27.1591C116.469 27.1591 115.946 28.2045 115.651 28.6591H115.491V27.2727H114.196V39.2727ZM115.514 31.6364C115.514 29.6818 116.378 28.3636 118.014 28.3636C119.719 28.3636 120.56 29.7955 120.56 31.6364C120.56 33.5 119.696 34.9773 118.014 34.9773C116.401 34.9773 115.514 33.6136 115.514 31.6364ZM125.287 24.3636H123.946V36H125.287V24.3636ZM131.402 36.1818C133.175 36.1818 134.47 35.2955 134.879 33.9773L133.584 33.6136C133.243 34.5227 132.453 34.9773 131.402 34.9773C129.828 34.9773 128.743 33.9602 128.68 32.0909H135.016V31.5227C135.016 28.2727 133.084 27.1591 131.266 27.1591C128.902 27.1591 127.334 29.0227 127.334 31.7045C127.334 34.3864 128.879 36.1818 131.402 36.1818ZM128.68 30.9318C128.771 29.5739 129.732 28.3636 131.266 28.3636C132.72 28.3636 133.652 29.4545 133.652 30.9318H128.68ZM139.624 36.2045C141.146 36.2045 141.942 35.3864 142.214 34.8182H142.283V36H143.624V30.25C143.624 27.4773 141.51 27.1591 140.396 27.1591C139.078 27.1591 137.578 27.6136 136.896 29.2045L138.169 29.6591C138.464 29.0227 139.163 28.3409 140.442 28.3409C141.675 28.3409 142.283 28.9943 142.283 30.1136V30.1591C142.283 30.8068 141.624 30.75 140.033 30.9545C138.413 31.1648 136.646 31.5227 136.646 33.5227C136.646 35.2273 137.964 36.2045 139.624 36.2045ZM139.828 35C138.76 35 137.987 34.5227 137.987 33.5909C137.987 32.5682 138.919 32.25 139.964 32.1136C140.533 32.0455 142.055 31.8864 142.283 31.6136V32.8409C142.283 33.9318 141.419 35 139.828 35ZM152.253 29.2273C151.832 27.9886 150.889 27.1591 149.162 27.1591C147.321 27.1591 145.957 28.2045 145.957 29.6818C145.957 30.8864 146.673 31.6932 148.276 32.0682L149.73 32.4091C150.611 32.6136 151.026 33.0341 151.026 33.6364C151.026 34.3864 150.23 35 148.98 35C147.884 35 147.196 34.5284 146.957 33.5909L145.685 33.9091C145.997 35.392 147.219 36.1818 149.003 36.1818C151.031 36.1818 152.412 35.0739 152.412 33.5682C152.412 32.3523 151.651 31.5852 150.094 31.2045L148.798 30.8864C147.764 30.6307 147.298 30.2841 147.298 29.6136C147.298 28.8636 148.094 28.3182 149.162 28.3182C150.332 28.3182 150.815 28.9659 151.048 29.5682L152.253 29.2273ZM159.93 32.4318C159.93 34.0682 158.68 34.8182 157.68 34.8182C156.567 34.8182 155.771 34 155.771 32.7273V27.2727H154.43V32.8182C154.43 35.0455 155.612 36.1136 157.249 36.1136C158.567 36.1136 159.43 35.4091 159.839 34.5227H159.93V36H161.271V27.2727H159.93V32.4318ZM163.727 36H165.068V30.4773C165.068 29.2955 166 28.4318 167.273 28.4318C167.631 28.4318 168 28.5 168.091 28.5227V27.1591C167.938 27.1477 167.585 27.1364 167.386 27.1364C166.341 27.1364 165.432 27.7273 165.114 28.5909H165.023V27.2727H163.727V36ZM173.074 36.1818C174.847 36.1818 176.142 35.2955 176.551 33.9773L175.256 33.6136C174.915 34.5227 174.125 34.9773 173.074 34.9773C171.5 34.9773 170.415 33.9602 170.352 32.0909H176.688V31.5227C176.688 28.2727 174.756 27.1591 172.938 27.1591C170.574 27.1591 169.006 29.0227 169.006 31.7045C169.006 34.3864 170.551 36.1818 173.074 36.1818ZM170.352 30.9318C170.443 29.5739 171.403 28.3636 172.938 28.3636C174.392 28.3636 175.324 29.4545 175.324 30.9318H170.352ZM185.795 36.2045C187.318 36.2045 188.114 35.3864 188.386 34.8182H188.455V36H189.795V30.25C189.795 27.4773 187.682 27.1591 186.568 27.1591C185.25 27.1591 183.75 27.6136 183.068 29.2045L184.341 29.6591C184.636 29.0227 185.335 28.3409 186.614 28.3409C187.847 28.3409 188.455 28.9943 188.455 30.1136V30.1591C188.455 30.8068 187.795 30.75 186.205 30.9545C184.585 31.1648 182.818 31.5227 182.818 33.5227C182.818 35.2273 184.136 36.2045 185.795 36.2045ZM186 35C184.932 35 184.159 34.5227 184.159 33.5909C184.159 32.5682 185.091 32.25 186.136 32.1136C186.705 32.0455 188.227 31.8864 188.455 31.6136V32.8409C188.455 33.9318 187.591 35 186 35ZM193.584 30.75C193.584 29.2273 194.527 28.3636 195.811 28.3636C197.055 28.3636 197.811 29.1761 197.811 30.5455V36H199.152V30.4545C199.152 28.2273 197.964 27.1591 196.197 27.1591C194.879 27.1591 194.061 27.75 193.652 28.6364H193.538V27.2727H192.243V36H193.584V30.75ZM204.898 36.1818C206.58 36.1818 207.148 35.1364 207.443 34.6591H207.602V36H208.898V24.3636H207.557V28.6591H207.443C207.148 28.2045 206.625 27.1591 204.92 27.1591C202.716 27.1591 201.193 28.9091 201.193 31.6591C201.193 34.4318 202.716 36.1818 204.898 36.1818ZM205.08 34.9773C203.398 34.9773 202.534 33.5 202.534 31.6364C202.534 29.7955 203.375 28.3636 205.08 28.3636C206.716 28.3636 207.58 29.6818 207.58 31.6364C207.58 33.6136 206.693 34.9773 205.08 34.9773ZM216.04 39.2727H217.381V34.6591H217.494C217.79 35.1364 218.358 36.1818 220.04 36.1818C222.222 36.1818 223.744 34.4318 223.744 31.6591C223.744 28.9091 222.222 27.1591 220.017 27.1591C218.312 27.1591 217.79 28.2045 217.494 28.6591H217.335V27.2727H216.04V39.2727ZM217.358 31.6364C217.358 29.6818 218.222 28.3636 219.858 28.3636C221.562 28.3636 222.403 29.7955 222.403 31.6364C222.403 33.5 221.54 34.9773 219.858 34.9773C218.244 34.9773 217.358 33.6136 217.358 31.6364ZM225.79 36H227.131V30.4773C227.131 29.2955 228.062 28.4318 229.335 28.4318C229.693 28.4318 230.062 28.5 230.153 28.5227V27.1591C230 27.1477 229.648 27.1364 229.449 27.1364C228.403 27.1364 227.494 27.7273 227.176 28.5909H227.085V27.2727H225.79V36ZM234.311 36.2045C235.834 36.2045 236.629 35.3864 236.902 34.8182H236.97V36H238.311V30.25C238.311 27.4773 236.197 27.1591 235.084 27.1591C233.766 27.1591 232.266 27.6136 231.584 29.2045L232.857 29.6591C233.152 29.0227 233.851 28.3409 235.129 28.3409C236.362 28.3409 236.97 28.9943 236.97 30.1136V30.1591C236.97 30.8068 236.311 30.75 234.72 30.9545C233.101 31.1648 231.334 31.5227 231.334 33.5227C231.334 35.2273 232.652 36.2045 234.311 36.2045ZM234.516 35C233.447 35 232.675 34.5227 232.675 33.5909C232.675 32.5682 233.607 32.25 234.652 32.1136C235.22 32.0455 236.743 31.8864 236.97 31.6136V32.8409C236.97 33.9318 236.107 35 234.516 35ZM240.759 36H242.099V27.2727H240.759V36ZM241.44 25.8182C241.963 25.8182 242.395 25.4091 242.395 24.9091C242.395 24.4091 241.963 24 241.44 24C240.918 24 240.486 24.4091 240.486 24.9091C240.486 25.4091 240.918 25.8182 241.44 25.8182ZM250.737 29.2273C250.317 27.9886 249.374 27.1591 247.646 27.1591C245.805 27.1591 244.442 28.2045 244.442 29.6818C244.442 30.8864 245.158 31.6932 246.76 32.0682L248.214 32.4091C249.095 32.6136 249.51 33.0341 249.51 33.6364C249.51 34.3864 248.714 35 247.464 35C246.368 35 245.68 34.5284 245.442 33.5909L244.169 33.9091C244.482 35.392 245.703 36.1818 247.487 36.1818C249.516 36.1818 250.896 35.0739 250.896 33.5682C250.896 32.3523 250.135 31.5852 248.578 31.2045L247.283 30.8864C246.249 30.6307 245.783 30.2841 245.783 29.6136C245.783 28.8636 246.578 28.3182 247.646 28.3182C248.817 28.3182 249.3 28.9659 249.533 29.5682L250.737 29.2273ZM252.915 36H254.256V27.2727H252.915V36ZM253.597 25.8182C254.119 25.8182 254.551 25.4091 254.551 24.9091C254.551 24.4091 254.119 24 253.597 24C253.074 24 252.642 24.4091 252.642 24.9091C252.642 25.4091 253.074 25.8182 253.597 25.8182ZM258.053 30.75C258.053 29.2273 258.996 28.3636 260.28 28.3636C261.524 28.3636 262.28 29.1761 262.28 30.5455V36H263.621V30.4545C263.621 28.2273 262.433 27.1591 260.666 27.1591C259.348 27.1591 258.53 27.75 258.121 28.6364H258.007V27.2727H256.712V36H258.053V30.75ZM269.594 39.4545C271.685 39.4545 273.366 38.5 273.366 36.25V27.2727H272.071V28.6591H271.935C271.639 28.2045 271.094 27.1591 269.389 27.1591C267.185 27.1591 265.662 28.9091 265.662 31.5909C265.662 34.3182 267.253 35.8636 269.366 35.8636C271.071 35.8636 271.616 34.8636 271.912 34.3864H272.026V36.1591C272.026 37.6136 271.003 38.2727 269.594 38.2727C268.009 38.2727 267.452 37.4375 267.094 36.9545L266.026 37.7045C266.571 38.6193 267.645 39.4545 269.594 39.4545ZM269.548 34.6591C267.866 34.6591 267.003 33.3864 267.003 31.5682C267.003 29.7955 267.844 28.3636 269.548 28.3636C271.185 28.3636 272.048 29.6818 272.048 31.5682C272.048 33.5 271.162 34.6591 269.548 34.6591ZM280.321 39.2727H281.662V34.6591H281.776C282.071 35.1364 282.639 36.1818 284.321 36.1818C286.503 36.1818 288.026 34.4318 288.026 31.6591C288.026 28.9091 286.503 27.1591 284.298 27.1591C282.594 27.1591 282.071 28.2045 281.776 28.6591H281.616V27.2727H280.321V39.2727ZM281.639 31.6364C281.639 29.6818 282.503 28.3636 284.139 28.3636C285.844 28.3636 286.685 29.7955 286.685 31.6364C286.685 33.5 285.821 34.9773 284.139 34.9773C282.526 34.9773 281.639 33.6136 281.639 31.6364ZM292.639 36.2045C294.162 36.2045 294.957 35.3864 295.23 34.8182H295.298V36H296.639V30.25C296.639 27.4773 294.526 27.1591 293.412 27.1591C292.094 27.1591 290.594 27.6136 289.912 29.2045L291.185 29.6591C291.48 29.0227 292.179 28.3409 293.457 28.3409C294.69 28.3409 295.298 28.9943 295.298 30.1136V30.1591C295.298 30.8068 294.639 30.75 293.048 30.9545C291.429 31.1648 289.662 31.5227 289.662 33.5227C289.662 35.2273 290.98 36.2045 292.639 36.2045ZM292.844 35C291.776 35 291.003 34.5227 291.003 33.5909C291.003 32.5682 291.935 32.25 292.98 32.1136C293.548 32.0455 295.071 31.8864 295.298 31.6136V32.8409C295.298 33.9318 294.435 35 292.844 35ZM299.087 36H300.428V27.2727H299.087V36ZM299.768 25.8182C300.291 25.8182 300.723 25.4091 300.723 24.9091C300.723 24.4091 300.291 24 299.768 24C299.246 24 298.814 24.4091 298.814 24.9091C298.814 25.4091 299.246 25.8182 299.768 25.8182ZM304.224 30.75C304.224 29.2273 305.168 28.3636 306.452 28.3636C307.696 28.3636 308.452 29.1761 308.452 30.5455V36H309.793V30.4545C309.793 28.2273 308.605 27.1591 306.838 27.1591C305.52 27.1591 304.702 27.75 304.293 28.6364H304.179V27.2727H302.884V36H304.224V30.75ZM318.72 36H320.038L321.947 29.2955H322.084L323.993 36H325.311L327.97 27.2727H326.561L324.675 33.9318H324.584L322.743 27.2727H321.311L319.447 33.9545H319.357L317.47 27.2727H316.061L318.72 36ZM332.311 36.2045C333.834 36.2045 334.629 35.3864 334.902 34.8182H334.97V36H336.311V30.25C336.311 27.4773 334.197 27.1591 333.084 27.1591C331.766 27.1591 330.266 27.6136 329.584 29.2045L330.857 29.6591C331.152 29.0227 331.851 28.3409 333.129 28.3409C334.362 28.3409 334.97 28.9943 334.97 30.1136V30.1591C334.97 30.8068 334.311 30.75 332.72 30.9545C331.101 31.1648 329.334 31.5227 329.334 33.5227C329.334 35.2273 330.652 36.2045 332.311 36.2045ZM332.516 35C331.447 35 330.675 34.5227 330.675 33.5909C330.675 32.5682 331.607 32.25 332.652 32.1136C333.22 32.0455 334.743 31.8864 334.97 31.6136V32.8409C334.97 33.9318 334.107 35 332.516 35ZM344.94 29.2273C344.52 27.9886 343.577 27.1591 341.849 27.1591C340.009 27.1591 338.645 28.2045 338.645 29.6818C338.645 30.8864 339.361 31.6932 340.963 32.0682L342.418 32.4091C343.298 32.6136 343.713 33.0341 343.713 33.6364C343.713 34.3864 342.918 35 341.668 35C340.571 35 339.884 34.5284 339.645 33.5909L338.372 33.9091C338.685 35.392 339.906 36.1818 341.69 36.1818C343.719 36.1818 345.099 35.0739 345.099 33.5682C345.099 32.3523 344.338 31.5852 342.781 31.2045L341.486 30.8864C340.452 30.6307 339.986 30.2841 339.986 29.6136C339.986 28.8636 340.781 28.3182 341.849 28.3182C343.02 28.3182 343.503 28.9659 343.736 29.5682L344.94 29.2273ZM351.8 36H353.095V34.6591H353.254C353.55 35.1364 354.118 36.1818 355.8 36.1818C357.982 36.1818 359.504 34.4318 359.504 31.6591C359.504 28.9091 357.982 27.1591 355.777 27.1591C354.072 27.1591 353.55 28.2045 353.254 28.6591H353.141V24.3636H351.8V36ZM353.118 31.6364C353.118 29.6818 353.982 28.3636 355.618 28.3636C357.322 28.3636 358.163 29.7955 358.163 31.6364C358.163 33.5 357.3 34.9773 355.618 34.9773C354.004 34.9773 353.118 33.6136 353.118 31.6364ZM365.101 36.1818C367.464 36.1818 369.055 34.3864 369.055 31.6818C369.055 28.9545 367.464 27.1591 365.101 27.1591C362.737 27.1591 361.146 28.9545 361.146 31.6818C361.146 34.3864 362.737 36.1818 365.101 36.1818ZM365.101 34.9773C363.305 34.9773 362.487 33.4318 362.487 31.6818C362.487 29.9318 363.305 28.3636 365.101 28.3636C366.896 28.3636 367.714 29.9318 367.714 31.6818C367.714 33.4318 366.896 34.9773 365.101 34.9773ZM371.102 36H372.443V30.4773C372.443 29.2955 373.375 28.4318 374.648 28.4318C375.006 28.4318 375.375 28.5 375.466 28.5227V27.1591C375.312 27.1477 374.96 27.1364 374.761 27.1364C373.716 27.1364 372.807 27.7273 372.489 28.5909H372.398V27.2727H371.102V36ZM378.396 30.75C378.396 29.2273 379.339 28.3636 380.624 28.3636C381.868 28.3636 382.624 29.1761 382.624 30.5455V36H383.964V30.4545C383.964 28.2273 382.777 27.1591 381.01 27.1591C379.692 27.1591 378.874 27.75 378.464 28.6364H378.351V27.2727H377.055V36H378.396V30.75ZM3.79545 60.2045C5.31818 60.2045 6.11364 59.3864 6.38636 58.8182H6.45455V60H7.79545V54.25C7.79545 51.4773 5.68182 51.1591 4.56818 51.1591C3.25 51.1591 1.75 51.6136 1.06818 53.2045L2.34091 53.6591C2.63636 53.0227 3.33523 52.3409 4.61364 52.3409C5.84659 52.3409 6.45455 52.9943 6.45455 54.1136V54.1591C6.45455 54.8068 5.79545 54.75 4.20455 54.9545C2.58523 55.1648 0.818182 55.5227 0.818182 57.5227C0.818182 59.2273 2.13636 60.2045 3.79545 60.2045ZM4 59C2.93182 59 2.15909 58.5227 2.15909 57.5909C2.15909 56.5682 3.09091 56.25 4.13636 56.1136C4.70455 56.0455 6.22727 55.8864 6.45455 55.6136V56.8409C6.45455 57.9318 5.59091 59 4 59ZM11.5838 54.75C11.5838 53.2273 12.527 52.3636 13.8111 52.3636C15.0554 52.3636 15.8111 53.1761 15.8111 54.5455V60H17.152V54.4545C17.152 52.2273 15.9645 51.1591 14.1974 51.1591C12.8793 51.1591 12.0611 51.75 11.652 52.6364H11.5384V51.2727H10.2429V60H11.5838V54.75ZM22.8977 60.1818C24.5795 60.1818 25.1477 59.1364 25.4432 58.6591H25.6023V60H26.8977V48.3636H25.5568V52.6591H25.4432C25.1477 52.2045 24.625 51.1591 22.9205 51.1591C20.7159 51.1591 19.1932 52.9091 19.1932 55.6591C19.1932 58.4318 20.7159 60.1818 22.8977 60.1818ZM23.0795 58.9773C21.3977 58.9773 20.5341 57.5 20.5341 55.6364C20.5341 53.7955 21.375 52.3636 23.0795 52.3636C24.7159 52.3636 25.5795 53.6818 25.5795 55.6364C25.5795 57.6136 24.6932 58.9773 23.0795 58.9773ZM35.6307 48.3636H34.2216V60H35.6307V48.3636ZM44.7514 60H46.0696L47.9787 53.2955H48.1151L50.0241 60H51.3423L54.0014 51.2727H52.5923L50.706 57.9318H50.6151L48.7741 51.2727H47.3423L45.4787 57.9545H45.3878L43.5014 51.2727H42.0923L44.7514 60ZM55.7741 60H57.1151V51.2727H55.7741V60ZM56.456 49.8182C56.9787 49.8182 57.4105 49.4091 57.4105 48.9091C57.4105 48.4091 56.9787 48 56.456 48C55.9332 48 55.5014 48.4091 55.5014 48.9091C55.5014 49.4091 55.9332 49.8182 56.456 49.8182ZM60.9119 48.3636H59.571V60H60.9119V48.3636ZM64.7088 48.3636H63.3679V60H64.7088V48.3636ZM75.1875 63.4545C77.2784 63.4545 78.9602 62.5 78.9602 60.25V51.2727H77.6648V52.6591H77.5284C77.233 52.2045 76.6875 51.1591 74.983 51.1591C72.7784 51.1591 71.2557 52.9091 71.2557 55.5909C71.2557 58.3182 72.8466 59.8636 74.9602 59.8636C76.6648 59.8636 77.2102 58.8636 77.5057 58.3864H77.6193V60.1591C77.6193 61.6136 76.5966 62.2727 75.1875 62.2727C73.6023 62.2727 73.0455 61.4375 72.6875 60.9545L71.6193 61.7045C72.1648 62.6193 73.2386 63.4545 75.1875 63.4545ZM75.142 58.6591C73.4602 58.6591 72.5966 57.3864 72.5966 55.5682C72.5966 53.7955 73.4375 52.3636 75.142 52.3636C76.7784 52.3636 77.642 53.6818 77.642 55.5682C77.642 57.5 76.7557 58.6591 75.142 58.6591ZM81.4148 60H82.7557V51.2727H81.4148V60ZM82.0966 49.8182C82.6193 49.8182 83.0511 49.4091 83.0511 48.9091C83.0511 48.4091 82.6193 48 82.0966 48C81.5739 48 81.142 48.4091 81.142 48.9091C81.142 49.4091 81.5739 49.8182 82.0966 49.8182ZM92.348 51.2727H90.8935L88.4844 58.2273H88.3935L85.9844 51.2727H84.5298L87.7571 60H89.1207L92.348 51.2727ZM97.4645 60.1818C99.2372 60.1818 100.533 59.2955 100.942 57.9773L99.6463 57.6136C99.3054 58.5227 98.5156 58.9773 97.4645 58.9773C95.8906 58.9773 94.8054 57.9602 94.7429 56.0909H101.078V55.5227C101.078 52.2727 99.1463 51.1591 97.3281 51.1591C94.9645 51.1591 93.3963 53.0227 93.3963 55.7045C93.3963 58.3864 94.9418 60.1818 97.4645 60.1818ZM94.7429 54.9318C94.8338 53.5739 95.794 52.3636 97.3281 52.3636C98.7827 52.3636 99.7145 53.4545 99.7145 54.9318H94.7429ZM108.482 63.25C109.692 63.25 110.55 62.608 111.05 61.2727L114.766 51.2955L113.3 51.2727L110.891 58.2273H110.8L108.391 51.2727H106.936L110.163 60.0455L109.913 60.7273C109.436 62.0341 108.822 62.1591 107.845 61.9091L107.504 63.0909C107.641 63.1591 108.027 63.25 108.482 63.25ZM119.773 60.1818C122.136 60.1818 123.727 58.3864 123.727 55.6818C123.727 52.9545 122.136 51.1591 119.773 51.1591C117.409 51.1591 115.818 52.9545 115.818 55.6818C115.818 58.3864 117.409 60.1818 119.773 60.1818ZM119.773 58.9773C117.977 58.9773 117.159 57.4318 117.159 55.6818C117.159 53.9318 117.977 52.3636 119.773 52.3636C121.568 52.3636 122.386 53.9318 122.386 55.6818C122.386 57.4318 121.568 58.9773 119.773 58.9773ZM131.274 56.4318C131.274 58.0682 130.024 58.8182 129.024 58.8182C127.911 58.8182 127.115 58 127.115 56.7273V51.2727H125.774V56.8182C125.774 59.0455 126.956 60.1136 128.592 60.1136C129.911 60.1136 130.774 59.4091 131.183 58.5227H131.274V60H132.615V51.2727H131.274V56.4318ZM142.139 60.2045C143.662 60.2045 144.457 59.3864 144.73 58.8182H144.798V60H146.139V54.25C146.139 51.4773 144.026 51.1591 142.912 51.1591C141.594 51.1591 140.094 51.6136 139.412 53.2045L140.685 53.6591C140.98 53.0227 141.679 52.3409 142.957 52.3409C144.19 52.3409 144.798 52.9943 144.798 54.1136V54.1591C144.798 54.8068 144.139 54.75 142.548 54.9545C140.929 55.1648 139.162 55.5227 139.162 57.5227C139.162 59.2273 140.48 60.2045 142.139 60.2045ZM142.344 59C141.276 59 140.503 58.5227 140.503 57.5909C140.503 56.5682 141.435 56.25 142.48 56.1136C143.048 56.0455 144.571 55.8864 144.798 55.6136V56.8409C144.798 57.9318 143.935 59 142.344 59ZM156.632 60.1818C158.564 60.1818 159.837 59 160.064 57.4545H158.723C158.473 58.4091 157.678 58.9773 156.632 58.9773C155.041 58.9773 154.018 57.6591 154.018 55.6364C154.018 53.6591 155.064 52.3636 156.632 52.3636C157.814 52.3636 158.518 53.0909 158.723 53.8864H160.064C159.837 52.25 158.45 51.1591 156.609 51.1591C154.246 51.1591 152.678 53.0227 152.678 55.6818C152.678 58.2955 154.178 60.1818 156.632 60.1818ZM165.57 60.1818C167.933 60.1818 169.524 58.3864 169.524 55.6818C169.524 52.9545 167.933 51.1591 165.57 51.1591C163.206 51.1591 161.615 52.9545 161.615 55.6818C161.615 58.3864 163.206 60.1818 165.57 60.1818ZM165.57 58.9773C163.774 58.9773 162.956 57.4318 162.956 55.6818C162.956 53.9318 163.774 52.3636 165.57 52.3636C167.365 52.3636 168.183 53.9318 168.183 55.6818C168.183 57.4318 167.365 58.9773 165.57 58.9773ZM171.571 60H172.912V54.5455C172.912 53.267 173.844 52.3636 174.889 52.3636C175.906 52.3636 176.616 53.0284 176.616 54.0227V60H177.98V54.3182C177.98 53.1932 178.685 52.3636 179.912 52.3636C180.866 52.3636 181.685 52.8693 181.685 54.1591V60H183.026V54.1591C183.026 52.108 181.923 51.1591 180.366 51.1591C179.116 51.1591 178.202 51.733 177.753 52.6364H177.662C177.23 51.7045 176.469 51.1591 175.321 51.1591C174.185 51.1591 173.344 51.7045 172.98 52.6364H172.866V51.2727H171.571V60ZM185.477 63.2727H186.818V58.6591H186.932C187.227 59.1364 187.795 60.1818 189.477 60.1818C191.659 60.1818 193.182 58.4318 193.182 55.6591C193.182 52.9091 191.659 51.1591 189.455 51.1591C187.75 51.1591 187.227 52.2045 186.932 52.6591H186.773V51.2727H185.477V63.2727ZM186.795 55.6364C186.795 53.6818 187.659 52.3636 189.295 52.3636C191 52.3636 191.841 53.7955 191.841 55.6364C191.841 57.5 190.977 58.9773 189.295 58.9773C187.682 58.9773 186.795 57.6136 186.795 55.6364ZM196.568 48.3636H195.227V60H196.568V48.3636ZM202.683 60.1818C204.456 60.1818 205.751 59.2955 206.161 57.9773L204.865 57.6136C204.524 58.5227 203.734 58.9773 202.683 58.9773C201.109 58.9773 200.024 57.9602 199.962 56.0909H206.297V55.5227C206.297 52.2727 204.365 51.1591 202.547 51.1591C200.183 51.1591 198.615 53.0227 198.615 55.7045C198.615 58.3864 200.161 60.1818 202.683 60.1818ZM199.962 54.9318C200.053 53.5739 201.013 52.3636 202.547 52.3636C204.001 52.3636 204.933 53.4545 204.933 54.9318H199.962ZM212.132 51.2727H210.268V49.1818H208.928V51.2727H207.609V52.4091H208.928V57.8636C208.928 59.3864 210.155 60.1136 211.291 60.1136C211.791 60.1136 212.109 60.0227 212.291 59.9545L212.018 58.75C211.905 58.7727 211.723 58.8182 211.428 58.8182C210.837 58.8182 210.268 58.6364 210.268 57.5V52.4091H212.132V51.2727ZM217.714 60.1818C219.487 60.1818 220.783 59.2955 221.192 57.9773L219.896 57.6136C219.555 58.5227 218.766 58.9773 217.714 58.9773C216.141 58.9773 215.055 57.9602 214.993 56.0909H221.328V55.5227C221.328 52.2727 219.396 51.1591 217.578 51.1591C215.214 51.1591 213.646 53.0227 213.646 55.7045C213.646 58.3864 215.192 60.1818 217.714 60.1818ZM214.993 54.9318C215.084 53.5739 216.044 52.3636 217.578 52.3636C219.033 52.3636 219.964 53.4545 219.964 54.9318H214.993ZM230.436 60.2045C231.959 60.2045 232.754 59.3864 233.027 58.8182H233.095V60H234.436V54.25C234.436 51.4773 232.322 51.1591 231.209 51.1591C229.891 51.1591 228.391 51.6136 227.709 53.2045L228.982 53.6591C229.277 53.0227 229.976 52.3409 231.254 52.3409C232.487 52.3409 233.095 52.9943 233.095 54.1136V54.1591C233.095 54.8068 232.436 54.75 230.845 54.9545C229.226 55.1648 227.459 55.5227 227.459 57.5227C227.459 59.2273 228.777 60.2045 230.436 60.2045ZM230.641 59C229.572 59 228.8 58.5227 228.8 57.5909C228.8 56.5682 229.732 56.25 230.777 56.1136C231.345 56.0455 232.868 55.8864 233.095 55.6136V56.8409C233.095 57.9318 232.232 59 230.641 59ZM240.429 60.1818C242.361 60.1818 243.634 59 243.861 57.4545H242.52C242.27 58.4091 241.474 58.9773 240.429 58.9773C238.838 58.9773 237.815 57.6591 237.815 55.6364C237.815 53.6591 238.861 52.3636 240.429 52.3636C241.611 52.3636 242.315 53.0909 242.52 53.8864H243.861C243.634 52.25 242.247 51.1591 240.406 51.1591C238.043 51.1591 236.474 53.0227 236.474 55.6818C236.474 58.2955 237.974 60.1818 240.429 60.1818ZM249.366 60.1818C251.298 60.1818 252.571 59 252.798 57.4545H251.457C251.207 58.4091 250.412 58.9773 249.366 58.9773C247.776 58.9773 246.753 57.6591 246.753 55.6364C246.753 53.6591 247.798 52.3636 249.366 52.3636C250.548 52.3636 251.253 53.0909 251.457 53.8864H252.798C252.571 52.25 251.185 51.1591 249.344 51.1591C246.98 51.1591 245.412 53.0227 245.412 55.6818C245.412 58.2955 246.912 60.1818 249.366 60.1818ZM258.304 60.1818C260.668 60.1818 262.259 58.3864 262.259 55.6818C262.259 52.9545 260.668 51.1591 258.304 51.1591C255.94 51.1591 254.349 52.9545 254.349 55.6818C254.349 58.3864 255.94 60.1818 258.304 60.1818ZM258.304 58.9773C256.509 58.9773 255.69 57.4318 255.69 55.6818C255.69 53.9318 256.509 52.3636 258.304 52.3636C260.099 52.3636 260.918 53.9318 260.918 55.6818C260.918 57.4318 260.099 58.9773 258.304 58.9773ZM269.805 56.4318C269.805 58.0682 268.555 58.8182 267.555 58.8182C266.442 58.8182 265.646 58 265.646 56.7273V51.2727H264.305V56.8182C264.305 59.0455 265.487 60.1136 267.124 60.1136C268.442 60.1136 269.305 59.4091 269.714 58.5227H269.805V60H271.146V51.2727H269.805V56.4318ZM274.943 54.75C274.943 53.2273 275.886 52.3636 277.17 52.3636C278.415 52.3636 279.17 53.1761 279.17 54.5455V60H280.511V54.4545C280.511 52.2273 279.324 51.1591 277.557 51.1591C276.239 51.1591 275.42 51.75 275.011 52.6364H274.898V51.2727H273.602V60H274.943V54.75ZM286.757 51.2727H284.893V49.1818H283.553V51.2727H282.234V52.4091H283.553V57.8636C283.553 59.3864 284.78 60.1136 285.916 60.1136C286.416 60.1136 286.734 60.0227 286.916 59.9545L286.643 58.75C286.53 58.7727 286.348 58.8182 286.053 58.8182C285.462 58.8182 284.893 58.6364 284.893 57.5V52.4091H286.757V51.2727ZM296.82 60.1818C299.183 60.1818 300.774 58.3864 300.774 55.6818C300.774 52.9545 299.183 51.1591 296.82 51.1591C294.456 51.1591 292.865 52.9545 292.865 55.6818C292.865 58.3864 294.456 60.1818 296.82 60.1818ZM296.82 58.9773C295.024 58.9773 294.206 57.4318 294.206 55.6818C294.206 53.9318 295.024 52.3636 296.82 52.3636C298.615 52.3636 299.433 53.9318 299.433 55.6818C299.433 57.4318 298.615 58.9773 296.82 58.9773ZM306.707 51.2727H304.753V50.3864C304.753 49.5227 305.116 49.0682 306.003 49.0682C306.389 49.0682 306.616 49.1591 306.753 49.2045L307.139 48.0455C306.935 47.9545 306.526 47.8182 305.866 47.8182C304.616 47.8182 303.412 48.5682 303.412 50.0682V51.2727H302.003V52.4091H303.412V60H304.753V52.4091H306.707V51.2727ZM316.882 51.2727H315.018V49.1818H313.678V51.2727H312.359V52.4091H313.678V57.8636C313.678 59.3864 314.905 60.1136 316.041 60.1136C316.541 60.1136 316.859 60.0227 317.041 59.9545L316.768 58.75C316.655 58.7727 316.473 58.8182 316.178 58.8182C315.587 58.8182 315.018 58.6364 315.018 57.5V52.4091H316.882V51.2727ZM320.428 54.75C320.428 53.2273 321.399 52.3636 322.723 52.3636C323.984 52.3636 324.746 53.1591 324.746 54.5455V60H326.087V54.4545C326.087 52.2102 324.893 51.1591 323.109 51.1591C321.734 51.1591 320.95 51.733 320.541 52.6364H320.428V48.3636H319.087V60H320.428V54.75ZM332.199 60.1818C333.972 60.1818 335.267 59.2955 335.676 57.9773L334.381 57.6136C334.04 58.5227 333.25 58.9773 332.199 58.9773C330.625 58.9773 329.54 57.9602 329.477 56.0909H335.812V55.5227C335.812 52.2727 333.881 51.1591 332.062 51.1591C329.699 51.1591 328.131 53.0227 328.131 55.7045C328.131 58.3864 329.676 60.1818 332.199 60.1818ZM329.477 54.9318C329.568 53.5739 330.528 52.3636 332.062 52.3636C333.517 52.3636 334.449 53.4545 334.449 54.9318H329.477ZM7.40909 77.2273C6.98864 75.9886 6.04545 75.1591 4.31818 75.1591C2.47727 75.1591 1.11364 76.2045 1.11364 77.6818C1.11364 78.8864 1.82955 79.6932 3.43182 80.0682L4.88636 80.4091C5.76705 80.6136 6.18182 81.0341 6.18182 81.6364C6.18182 82.3864 5.38636 83 4.13636 83C3.03977 83 2.35227 82.5284 2.11364 81.5909L0.840909 81.9091C1.15341 83.392 2.375 84.1818 4.15909 84.1818C6.1875 84.1818 7.56818 83.0739 7.56818 81.5682C7.56818 80.3523 6.80682 79.5852 5.25 79.2045L3.95455 78.8864C2.92045 78.6307 2.45455 78.2841 2.45455 77.6136C2.45455 76.8636 3.25 76.3182 4.31818 76.3182C5.48864 76.3182 5.97159 76.9659 6.20455 77.5682L7.40909 77.2273ZM10.4503 87.25C11.6605 87.25 12.5185 86.608 13.0185 85.2727L16.7344 75.2955L15.2685 75.2727L12.8594 82.2273H12.7685L10.3594 75.2727H8.90483L12.1321 84.0455L11.8821 84.7273C11.4048 86.0341 10.7912 86.1591 9.81392 85.9091L9.47301 87.0909C9.60938 87.1591 9.99574 87.25 10.4503 87.25ZM24.6903 77.2273C24.2699 75.9886 23.3267 75.1591 21.5994 75.1591C19.7585 75.1591 18.3949 76.2045 18.3949 77.6818C18.3949 78.8864 19.1108 79.6932 20.7131 80.0682L22.1676 80.4091C23.0483 80.6136 23.4631 81.0341 23.4631 81.6364C23.4631 82.3864 22.6676 83 21.4176 83C20.321 83 19.6335 82.5284 19.3949 81.5909L18.1222 81.9091C18.4347 83.392 19.6562 84.1818 21.4403 84.1818C23.4688 84.1818 24.8494 83.0739 24.8494 81.5682C24.8494 80.3523 24.0881 79.5852 22.5312 79.2045L21.2358 78.8864C20.2017 78.6307 19.7358 78.2841 19.7358 77.6136C19.7358 76.8636 20.5312 76.3182 21.5994 76.3182C22.7699 76.3182 23.2528 76.9659 23.4858 77.5682L24.6903 77.2273ZM30.6634 75.2727H28.7997V73.1818H27.4588V75.2727H26.1406V76.4091H27.4588V81.8636C27.4588 83.3864 28.6861 84.1136 29.8224 84.1136C30.3224 84.1136 30.6406 84.0227 30.8224 83.9545L30.5497 82.75C30.4361 82.7727 30.2543 82.8182 29.9588 82.8182C29.3679 82.8182 28.7997 82.6364 28.7997 81.5V76.4091H30.6634V75.2727ZM36.2457 84.1818C38.0185 84.1818 39.3139 83.2955 39.723 81.9773L38.4276 81.6136C38.0866 82.5227 37.2969 82.9773 36.2457 82.9773C34.6719 82.9773 33.5866 81.9602 33.5241 80.0909H39.8594V79.5227C39.8594 76.2727 37.9276 75.1591 36.1094 75.1591C33.7457 75.1591 32.1776 77.0227 32.1776 79.7045C32.1776 82.3864 33.723 84.1818 36.2457 84.1818ZM33.5241 78.9318C33.6151 77.5739 34.5753 76.3636 36.1094 76.3636C37.5639 76.3636 38.4957 77.4545 38.4957 78.9318H33.5241ZM41.8991 84H43.2401V78.5455C43.2401 77.267 44.1719 76.3636 45.2173 76.3636C46.2344 76.3636 46.9446 77.0284 46.9446 78.0227V84H48.3082V78.3182C48.3082 77.1932 49.0128 76.3636 50.2401 76.3636C51.1946 76.3636 52.0128 76.8693 52.0128 78.1591V84H53.3537V78.1591C53.3537 76.108 52.2514 75.1591 50.6946 75.1591C49.4446 75.1591 48.5298 75.733 48.081 76.6364H47.9901C47.5582 75.7045 46.7969 75.1591 45.6491 75.1591C44.5128 75.1591 43.6719 75.7045 43.3082 76.6364H43.1946V75.2727H41.8991V84ZM57.8054 82.4091H56.3509L56.2827 83.0455C56.1179 84.5852 55.794 86.1193 55.6463 86.8409H56.669C56.9418 86.0682 57.5213 84.3182 57.7145 83.0227L57.8054 82.4091ZM67.358 84.2045C68.8807 84.2045 69.6761 83.3864 69.9489 82.8182H70.017V84H71.358V78.25C71.358 75.4773 69.2443 75.1591 68.1307 75.1591C66.8125 75.1591 65.3125 75.6136 64.6307 77.2045L65.9034 77.6591C66.1989 77.0227 66.8977 76.3409 68.1761 76.3409C69.4091 76.3409 70.017 76.9943 70.017 78.1136V78.1591C70.017 78.8068 69.358 78.75 67.767 78.9545C66.1477 79.1648 64.3807 79.5227 64.3807 81.5227C64.3807 83.2273 65.6989 84.2045 67.358 84.2045ZM67.5625 83C66.4943 83 65.7216 82.5227 65.7216 81.5909C65.7216 80.5682 66.6534 80.25 67.6989 80.1136C68.267 80.0455 69.7898 79.8864 70.017 79.6136V80.8409C70.017 81.9318 69.1534 83 67.5625 83ZM75.1463 78.75C75.1463 77.2273 76.0895 76.3636 77.3736 76.3636C78.6179 76.3636 79.3736 77.1761 79.3736 78.5455V84H80.7145V78.4545C80.7145 76.2273 79.527 75.1591 77.7599 75.1591C76.4418 75.1591 75.6236 75.75 75.2145 76.6364H75.1009V75.2727H73.8054V84H75.1463V78.75ZM86.4602 84.1818C88.142 84.1818 88.7102 83.1364 89.0057 82.6591H89.1648V84H90.4602V72.3636H89.1193V76.6591H89.0057C88.7102 76.2045 88.1875 75.1591 86.483 75.1591C84.2784 75.1591 82.7557 76.9091 82.7557 79.6591C82.7557 82.4318 84.2784 84.1818 86.4602 84.1818ZM86.642 82.9773C84.9602 82.9773 84.0966 81.5 84.0966 79.6364C84.0966 77.7955 84.9375 76.3636 86.642 76.3636C88.2784 76.3636 89.142 77.6818 89.142 79.6364C89.142 81.6136 88.2557 82.9773 86.642 82.9773ZM101.261 84.1818C103.034 84.1818 104.33 83.2955 104.739 81.9773L103.443 81.6136C103.102 82.5227 102.312 82.9773 101.261 82.9773C99.6875 82.9773 98.6023 81.9602 98.5398 80.0909H104.875V79.5227C104.875 76.2727 102.943 75.1591 101.125 75.1591C98.7614 75.1591 97.1932 77.0227 97.1932 79.7045C97.1932 82.3864 98.7386 84.1818 101.261 84.1818ZM98.5398 78.9318C98.6307 77.5739 99.5909 76.3636 101.125 76.3636C102.58 76.3636 103.511 77.4545 103.511 78.9318H98.5398ZM107.68 75.2727H106.135L108.908 79.6364L106.135 84H107.68L109.771 80.6136L111.862 84H113.408L110.589 79.6364L113.408 75.2727H111.862L109.771 78.8409L107.68 75.2727ZM115.321 87.2727H116.662V82.6591H116.776C117.071 83.1364 117.639 84.1818 119.321 84.1818C121.503 84.1818 123.026 82.4318 123.026 79.6591C123.026 76.9091 121.503 75.1591 119.298 75.1591C117.594 75.1591 117.071 76.2045 116.776 76.6591H116.616V75.2727H115.321V87.2727ZM116.639 79.6364C116.639 77.6818 117.503 76.3636 119.139 76.3636C120.844 76.3636 121.685 77.7955 121.685 79.6364C121.685 81.5 120.821 82.9773 119.139 82.9773C117.526 82.9773 116.639 81.6136 116.639 79.6364ZM128.616 84.1818C130.98 84.1818 132.571 82.3864 132.571 79.6818C132.571 76.9545 130.98 75.1591 128.616 75.1591C126.253 75.1591 124.662 76.9545 124.662 79.6818C124.662 82.3864 126.253 84.1818 128.616 84.1818ZM128.616 82.9773C126.821 82.9773 126.003 81.4318 126.003 79.6818C126.003 77.9318 126.821 76.3636 128.616 76.3636C130.412 76.3636 131.23 77.9318 131.23 79.6818C131.23 81.4318 130.412 82.9773 128.616 82.9773ZM140.118 80.4318C140.118 82.0682 138.868 82.8182 137.868 82.8182C136.754 82.8182 135.959 82 135.959 80.7273V75.2727H134.618V80.8182C134.618 83.0455 135.8 84.1136 137.436 84.1136C138.754 84.1136 139.618 83.4091 140.027 82.5227H140.118V84H141.459V75.2727H140.118V80.4318ZM145.256 78.75C145.256 77.2273 146.199 76.3636 147.483 76.3636C148.727 76.3636 149.483 77.1761 149.483 78.5455V84H150.824V78.4545C150.824 76.2273 149.636 75.1591 147.869 75.1591C146.551 75.1591 145.733 75.75 145.324 76.6364H145.21V75.2727H143.915V84H145.256V78.75ZM156.57 84.1818C158.251 84.1818 158.82 83.1364 159.115 82.6591H159.274V84H160.57V72.3636H159.229V76.6591H159.115C158.82 76.2045 158.297 75.1591 156.592 75.1591C154.388 75.1591 152.865 76.9091 152.865 79.6591C152.865 82.4318 154.388 84.1818 156.57 84.1818ZM156.751 82.9773C155.07 82.9773 154.206 81.5 154.206 79.6364C154.206 77.7955 155.047 76.3636 156.751 76.3636C158.388 76.3636 159.251 77.6818 159.251 79.6364C159.251 81.6136 158.365 82.9773 156.751 82.9773ZM171.507 75.2727H169.643V73.1818H168.303V75.2727H166.984V76.4091H168.303V81.8636C168.303 83.3864 169.53 84.1136 170.666 84.1136C171.166 84.1136 171.484 84.0227 171.666 83.9545L171.393 82.75C171.28 82.7727 171.098 82.8182 170.803 82.8182C170.212 82.8182 169.643 82.6364 169.643 81.5V76.4091H171.507V75.2727ZM175.053 78.75C175.053 77.2273 176.024 76.3636 177.348 76.3636C178.609 76.3636 179.371 77.1591 179.371 78.5455V84H180.712V78.4545C180.712 76.2102 179.518 75.1591 177.734 75.1591C176.359 75.1591 175.575 75.733 175.166 76.6364H175.053V72.3636H173.712V84H175.053V78.75ZM186.824 84.1818C188.597 84.1818 189.892 83.2955 190.301 81.9773L189.006 81.6136C188.665 82.5227 187.875 82.9773 186.824 82.9773C185.25 82.9773 184.165 81.9602 184.102 80.0909H190.438V79.5227C190.438 76.2727 188.506 75.1591 186.688 75.1591C184.324 75.1591 182.756 77.0227 182.756 79.7045C182.756 82.3864 184.301 84.1818 186.824 84.1818ZM184.102 78.9318C184.193 77.5739 185.153 76.3636 186.688 76.3636C188.142 76.3636 189.074 77.4545 189.074 78.9318H184.102ZM199.545 84.2045C201.068 84.2045 201.864 83.3864 202.136 82.8182H202.205V84H203.545V78.25C203.545 75.4773 201.432 75.1591 200.318 75.1591C199 75.1591 197.5 75.6136 196.818 77.2045L198.091 77.6591C198.386 77.0227 199.085 76.3409 200.364 76.3409C201.597 76.3409 202.205 76.9943 202.205 78.1136V78.1591C202.205 78.8068 201.545 78.75 199.955 78.9545C198.335 79.1648 196.568 79.5227 196.568 81.5227C196.568 83.2273 197.886 84.2045 199.545 84.2045ZM199.75 83C198.682 83 197.909 82.5227 197.909 81.5909C197.909 80.5682 198.841 80.25 199.886 80.1136C200.455 80.0455 201.977 79.8864 202.205 79.6136V80.8409C202.205 81.9318 201.341 83 199.75 83ZM209.538 84.1818C211.47 84.1818 212.743 83 212.97 81.4545H211.629C211.379 82.4091 210.584 82.9773 209.538 82.9773C207.947 82.9773 206.925 81.6591 206.925 79.6364C206.925 77.6591 207.97 76.3636 209.538 76.3636C210.72 76.3636 211.425 77.0909 211.629 77.8864H212.97C212.743 76.25 211.357 75.1591 209.516 75.1591C207.152 75.1591 205.584 77.0227 205.584 79.6818C205.584 82.2955 207.084 84.1818 209.538 84.1818ZM218.726 75.2727H216.862V73.1818H215.521V75.2727H214.203V76.4091H215.521V81.8636C215.521 83.3864 216.749 84.1136 217.885 84.1136C218.385 84.1136 218.703 84.0227 218.885 83.9545L218.612 82.75C218.499 82.7727 218.317 82.8182 218.021 82.8182C217.43 82.8182 216.862 82.6364 216.862 81.5V76.4091H218.726V75.2727ZM226.243 80.4318C226.243 82.0682 224.993 82.8182 223.993 82.8182C222.879 82.8182 222.084 82 222.084 80.7273V75.2727H220.743V80.8182C220.743 83.0455 221.925 84.1136 223.561 84.1136C224.879 84.1136 225.743 83.4091 226.152 82.5227H226.243V84H227.584V75.2727H226.243V80.4318ZM232.608 84.2045C234.131 84.2045 234.926 83.3864 235.199 82.8182H235.267V84H236.608V78.25C236.608 75.4773 234.494 75.1591 233.381 75.1591C232.062 75.1591 230.562 75.6136 229.881 77.2045L231.153 77.6591C231.449 77.0227 232.148 76.3409 233.426 76.3409C234.659 76.3409 235.267 76.9943 235.267 78.1136V78.1591C235.267 78.8068 234.608 78.75 233.017 78.9545C231.398 79.1648 229.631 79.5227 229.631 81.5227C229.631 83.2273 230.949 84.2045 232.608 84.2045ZM232.812 83C231.744 83 230.972 82.5227 230.972 81.5909C230.972 80.5682 231.903 80.25 232.949 80.1136C233.517 80.0455 235.04 79.8864 235.267 79.6136V80.8409C235.267 81.9318 234.403 83 232.812 83ZM240.396 72.3636H239.055V84H240.396V72.3636ZM251.148 75.2727H249.284V73.1818H247.943V75.2727H246.625V76.4091H247.943V81.8636C247.943 83.3864 249.17 84.1136 250.307 84.1136C250.807 84.1136 251.125 84.0227 251.307 83.9545L251.034 82.75C250.92 82.7727 250.739 82.8182 250.443 82.8182C249.852 82.8182 249.284 82.6364 249.284 81.5V76.4091H251.148V75.2727ZM256.73 84.1818C258.503 84.1818 259.798 83.2955 260.207 81.9773L258.912 81.6136C258.571 82.5227 257.781 82.9773 256.73 82.9773C255.156 82.9773 254.071 81.9602 254.009 80.0909H260.344V79.5227C260.344 76.2727 258.412 75.1591 256.594 75.1591C254.23 75.1591 252.662 77.0227 252.662 79.7045C252.662 82.3864 254.207 84.1818 256.73 84.1818ZM254.009 78.9318C254.099 77.5739 255.06 76.3636 256.594 76.3636C258.048 76.3636 258.98 77.4545 258.98 78.9318H254.009ZM264.952 84.2045C266.474 84.2045 267.27 83.3864 267.543 82.8182H267.611V84H268.952V78.25C268.952 75.4773 266.838 75.1591 265.724 75.1591C264.406 75.1591 262.906 75.6136 262.224 77.2045L263.497 77.6591C263.793 77.0227 264.491 76.3409 265.77 76.3409C267.003 76.3409 267.611 76.9943 267.611 78.1136V78.1591C267.611 78.8068 266.952 78.75 265.361 78.9545C263.741 79.1648 261.974 79.5227 261.974 81.5227C261.974 83.2273 263.293 84.2045 264.952 84.2045ZM265.156 83C264.088 83 263.315 82.5227 263.315 81.5909C263.315 80.5682 264.247 80.25 265.293 80.1136C265.861 80.0455 267.384 79.8864 267.611 79.6136V80.8409C267.611 81.9318 266.747 83 265.156 83ZM274.945 84.1818C276.876 84.1818 278.149 83 278.376 81.4545H277.036C276.786 82.4091 275.99 82.9773 274.945 82.9773C273.354 82.9773 272.331 81.6591 272.331 79.6364C272.331 77.6591 273.376 76.3636 274.945 76.3636C276.126 76.3636 276.831 77.0909 277.036 77.8864H278.376C278.149 76.25 276.763 75.1591 274.922 75.1591C272.558 75.1591 270.99 77.0227 270.99 79.6818C270.99 82.2955 272.49 84.1818 274.945 84.1818ZM281.678 78.75C281.678 77.2273 282.649 76.3636 283.973 76.3636C285.234 76.3636 285.996 77.1591 285.996 78.5455V84H287.337V78.4545C287.337 76.2102 286.143 75.1591 284.359 75.1591C282.984 75.1591 282.2 75.733 281.791 76.6364H281.678V72.3636H280.337V84H281.678V78.75ZM289.79 84H291.131V75.2727H289.79V84ZM290.472 73.8182C290.994 73.8182 291.426 73.4091 291.426 72.9091C291.426 72.4091 290.994 72 290.472 72C289.949 72 289.517 72.4091 289.517 72.9091C289.517 73.4091 289.949 73.8182 290.472 73.8182ZM294.928 78.75C294.928 77.2273 295.871 76.3636 297.155 76.3636C298.399 76.3636 299.155 77.1761 299.155 78.5455V84H300.496V78.4545C300.496 76.2273 299.308 75.1591 297.541 75.1591C296.223 75.1591 295.405 75.75 294.996 76.6364H294.882V75.2727H293.587V84H294.928V78.75ZM306.469 87.4545C308.56 87.4545 310.241 86.5 310.241 84.25V75.2727H308.946V76.6591H308.81C308.514 76.2045 307.969 75.1591 306.264 75.1591C304.06 75.1591 302.537 76.9091 302.537 79.5909C302.537 82.3182 304.128 83.8636 306.241 83.8636C307.946 83.8636 308.491 82.8636 308.787 82.3864H308.901V84.1591C308.901 85.6136 307.878 86.2727 306.469 86.2727C304.884 86.2727 304.327 85.4375 303.969 84.9545L302.901 85.7045C303.446 86.6193 304.52 87.4545 306.469 87.4545ZM306.423 82.6591C304.741 82.6591 303.878 81.3864 303.878 79.5682C303.878 77.7955 304.719 76.3636 306.423 76.3636C308.06 76.3636 308.923 77.6818 308.923 79.5682C308.923 81.5 308.037 82.6591 306.423 82.6591ZM318.878 77.2273C318.457 75.9886 317.514 75.1591 315.787 75.1591C313.946 75.1591 312.582 76.2045 312.582 77.6818C312.582 78.8864 313.298 79.6932 314.901 80.0682L316.355 80.4091C317.236 80.6136 317.651 81.0341 317.651 81.6364C317.651 82.3864 316.855 83 315.605 83C314.509 83 313.821 82.5284 313.582 81.5909L312.31 81.9091C312.622 83.392 313.844 84.1818 315.628 84.1818C317.656 84.1818 319.037 83.0739 319.037 81.5682C319.037 80.3523 318.276 79.5852 316.719 79.2045L315.423 78.8864C314.389 78.6307 313.923 78.2841 313.923 77.6136C313.923 76.8636 314.719 76.3182 315.787 76.3182C316.957 76.3182 317.44 76.9659 317.673 77.5682L318.878 77.2273ZM329.101 84.1818C331.464 84.1818 333.055 82.3864 333.055 79.6818C333.055 76.9545 331.464 75.1591 329.101 75.1591C326.737 75.1591 325.146 76.9545 325.146 79.6818C325.146 82.3864 326.737 84.1818 329.101 84.1818ZM329.101 82.9773C327.305 82.9773 326.487 81.4318 326.487 79.6818C326.487 77.9318 327.305 76.3636 329.101 76.3636C330.896 76.3636 331.714 77.9318 331.714 79.6818C331.714 81.4318 330.896 82.9773 329.101 82.9773ZM338.989 75.2727H337.034V74.3864C337.034 73.5227 337.398 73.0682 338.284 73.0682C338.67 73.0682 338.898 73.1591 339.034 73.2045L339.42 72.0455C339.216 71.9545 338.807 71.8182 338.148 71.8182C336.898 71.8182 335.693 72.5682 335.693 74.0682V75.2727H334.284V76.4091H335.693V84H337.034V76.4091H338.989V75.2727ZM349.163 75.2727H347.3V73.1818H345.959V75.2727H344.641V76.4091H345.959V81.8636C345.959 83.3864 347.186 84.1136 348.322 84.1136C348.822 84.1136 349.141 84.0227 349.322 83.9545L349.05 82.75C348.936 82.7727 348.754 82.8182 348.459 82.8182C347.868 82.8182 347.3 82.6364 347.3 81.5V76.4091H349.163V75.2727ZM352.709 78.75C352.709 77.2273 353.68 76.3636 355.004 76.3636C356.266 76.3636 357.027 77.1591 357.027 78.5455V84H358.368V78.4545C358.368 76.2102 357.175 75.1591 355.391 75.1591C354.016 75.1591 353.232 75.733 352.822 76.6364H352.709V72.3636H351.368V84H352.709V78.75ZM364.48 84.1818C366.253 84.1818 367.548 83.2955 367.957 81.9773L366.662 81.6136C366.321 82.5227 365.531 82.9773 364.48 82.9773C362.906 82.9773 361.821 81.9602 361.759 80.0909H368.094V79.5227C368.094 76.2727 366.162 75.1591 364.344 75.1591C361.98 75.1591 360.412 77.0227 360.412 79.7045C360.412 82.3864 361.957 84.1818 364.48 84.1818ZM361.759 78.9318C361.849 77.5739 362.81 76.3636 364.344 76.3636C365.798 76.3636 366.73 77.4545 366.73 78.9318H361.759ZM4.75 111.455C6.84091 111.455 8.52273 110.5 8.52273 108.25V99.2727H7.22727V100.659H7.09091C6.79545 100.205 6.25 99.1591 4.54545 99.1591C2.34091 99.1591 0.818182 100.909 0.818182 103.591C0.818182 106.318 2.40909 107.864 4.52273 107.864C6.22727 107.864 6.77273 106.864 7.06818 106.386H7.18182V108.159C7.18182 109.614 6.15909 110.273 4.75 110.273C3.16477 110.273 2.60795 109.438 2.25 108.955L1.18182 109.705C1.72727 110.619 2.80114 111.455 4.75 111.455ZM4.70455 106.659C3.02273 106.659 2.15909 105.386 2.15909 103.568C2.15909 101.795 3 100.364 4.70455 100.364C6.34091 100.364 7.20455 101.682 7.20455 103.568C7.20455 105.5 6.31818 106.659 4.70455 106.659ZM10.9773 108H12.3182V102.477C12.3182 101.295 13.25 100.432 14.5227 100.432C14.8807 100.432 15.25 100.5 15.3409 100.523V99.1591C15.1875 99.1477 14.8352 99.1364 14.6364 99.1364C13.5909 99.1364 12.6818 99.7273 12.3636 100.591H12.2727V99.2727H10.9773V108ZM20.3239 108.182C22.0966 108.182 23.392 107.295 23.8011 105.977L22.5057 105.614C22.1648 106.523 21.375 106.977 20.3239 106.977C18.75 106.977 17.6648 105.96 17.6023 104.091H23.9375V103.523C23.9375 100.273 22.0057 99.1591 20.1875 99.1591C17.8239 99.1591 16.2557 101.023 16.2557 103.705C16.2557 106.386 17.8011 108.182 20.3239 108.182ZM17.6023 102.932C17.6932 101.574 18.6534 100.364 20.1875 100.364C21.642 100.364 22.5739 101.455 22.5739 102.932H17.6023ZM28.5455 108.205C30.0682 108.205 30.8636 107.386 31.1364 106.818H31.2045V108H32.5455V102.25C32.5455 99.4773 30.4318 99.1591 29.3182 99.1591C28 99.1591 26.5 99.6136 25.8182 101.205L27.0909 101.659C27.3864 101.023 28.0852 100.341 29.3636 100.341C30.5966 100.341 31.2045 100.994 31.2045 102.114V102.159C31.2045 102.807 30.5455 102.75 28.9545 102.955C27.3352 103.165 25.5682 103.523 25.5682 105.523C25.5682 107.227 26.8864 108.205 28.5455 108.205ZM28.75 107C27.6818 107 26.9091 106.523 26.9091 105.591C26.9091 104.568 27.8409 104.25 28.8864 104.114C29.4545 104.045 30.9773 103.886 31.2045 103.614V104.841C31.2045 105.932 30.3409 107 28.75 107ZM38.7884 99.2727H36.9247V97.1818H35.5838V99.2727H34.2656V100.409H35.5838V105.864C35.5838 107.386 36.8111 108.114 37.9474 108.114C38.4474 108.114 38.7656 108.023 38.9474 107.955L38.6747 106.75C38.5611 106.773 38.3793 106.818 38.0838 106.818C37.4929 106.818 36.9247 106.636 36.9247 105.5V100.409H38.7884V99.2727ZM48.9645 108.182C50.7372 108.182 52.0327 107.295 52.4418 105.977L51.1463 105.614C50.8054 106.523 50.0156 106.977 48.9645 106.977C47.3906 106.977 46.3054 105.96 46.2429 104.091H52.5781V103.523C52.5781 100.273 50.6463 99.1591 48.8281 99.1591C46.4645 99.1591 44.8963 101.023 44.8963 103.705C44.8963 106.386 46.4418 108.182 48.9645 108.182ZM46.2429 102.932C46.3338 101.574 47.294 100.364 48.8281 100.364C50.2827 100.364 51.2145 101.455 51.2145 102.932H46.2429ZM55.3835 99.2727H53.8381L56.6108 103.636L53.8381 108H55.3835L57.4744 104.614L59.5653 108H61.1108L58.2926 103.636L61.1108 99.2727H59.5653L57.4744 102.841L55.3835 99.2727ZM63.0241 111.273H64.3651V106.659H64.4787C64.7741 107.136 65.3423 108.182 67.0241 108.182C69.206 108.182 70.7287 106.432 70.7287 103.659C70.7287 100.909 69.206 99.1591 67.0014 99.1591C65.2969 99.1591 64.7741 100.205 64.4787 100.659H64.3196V99.2727H63.0241V111.273ZM64.3423 103.636C64.3423 101.682 65.206 100.364 66.8423 100.364C68.5469 100.364 69.3878 101.795 69.3878 103.636C69.3878 105.5 68.5241 106.977 66.8423 106.977C65.2287 106.977 64.3423 105.614 64.3423 103.636ZM74.1151 96.3636H72.7741V108H74.1151V96.3636ZM80.1165 108.182C82.4801 108.182 84.071 106.386 84.071 103.682C84.071 100.955 82.4801 99.1591 80.1165 99.1591C77.7528 99.1591 76.1619 100.955 76.1619 103.682C76.1619 106.386 77.7528 108.182 80.1165 108.182ZM80.1165 106.977C78.321 106.977 77.5028 105.432 77.5028 103.682C77.5028 101.932 78.321 100.364 80.1165 100.364C81.9119 100.364 82.7301 101.932 82.7301 103.682C82.7301 105.432 81.9119 106.977 80.1165 106.977ZM86.1179 108H87.4588V102.477C87.4588 101.295 88.3906 100.432 89.6634 100.432C90.0213 100.432 90.3906 100.5 90.4815 100.523V99.1591C90.3281 99.1477 89.9759 99.1364 89.777 99.1364C88.7315 99.1364 87.8224 99.7273 87.5043 100.591H87.4134V99.2727H86.1179V108ZM95.4645 108.182C97.2372 108.182 98.5327 107.295 98.9418 105.977L97.6463 105.614C97.3054 106.523 96.5156 106.977 95.4645 106.977C93.8906 106.977 92.8054 105.96 92.7429 104.091H99.0781V103.523C99.0781 100.273 97.1463 99.1591 95.3281 99.1591C92.9645 99.1591 91.3963 101.023 91.3963 103.705C91.3963 106.386 92.9418 108.182 95.4645 108.182ZM92.7429 102.932C92.8338 101.574 93.794 100.364 95.3281 100.364C96.7827 100.364 97.7145 101.455 97.7145 102.932H92.7429ZM101.118 108H102.459V102.477C102.459 101.295 103.391 100.432 104.663 100.432C105.021 100.432 105.391 100.5 105.482 100.523V99.1591C105.328 99.1477 104.976 99.1364 104.777 99.1364C103.732 99.1364 102.822 99.7273 102.504 100.591H102.413V99.2727H101.118V108ZM115.116 108.182C117.48 108.182 119.071 106.386 119.071 103.682C119.071 100.955 117.48 99.1591 115.116 99.1591C112.753 99.1591 111.162 100.955 111.162 103.682C111.162 106.386 112.753 108.182 115.116 108.182ZM115.116 106.977C113.321 106.977 112.503 105.432 112.503 103.682C112.503 101.932 113.321 100.364 115.116 100.364C116.912 100.364 117.73 101.932 117.73 103.682C117.73 105.432 116.912 106.977 115.116 106.977ZM125.004 99.2727H123.05V98.3864C123.05 97.5227 123.413 97.0682 124.3 97.0682C124.686 97.0682 124.913 97.1591 125.05 97.2045L125.436 96.0455C125.232 95.9545 124.822 95.8182 124.163 95.8182C122.913 95.8182 121.709 96.5682 121.709 98.0682V99.2727H120.3V100.409H121.709V108H123.05V100.409H125.004V99.2727ZM135.179 99.2727H133.315V97.1818H131.974V99.2727H130.656V100.409H131.974V105.864C131.974 107.386 133.202 108.114 134.338 108.114C134.838 108.114 135.156 108.023 135.338 107.955L135.065 106.75C134.952 106.773 134.77 106.818 134.474 106.818C133.884 106.818 133.315 106.636 133.315 105.5V100.409H135.179V99.2727ZM138.724 102.75C138.724 101.227 139.696 100.364 141.02 100.364C142.281 100.364 143.043 101.159 143.043 102.545V108H144.384V102.455C144.384 100.21 143.19 99.1591 141.406 99.1591C140.031 99.1591 139.247 99.733 138.838 100.636H138.724V96.3636H137.384V108H138.724V102.75ZM150.496 108.182C152.268 108.182 153.564 107.295 153.973 105.977L152.678 105.614C152.337 106.523 151.547 106.977 150.496 106.977C148.922 106.977 147.837 105.96 147.774 104.091H154.109V103.523C154.109 100.273 152.178 99.1591 150.359 99.1591C147.996 99.1591 146.428 101.023 146.428 103.705C146.428 106.386 147.973 108.182 150.496 108.182ZM147.774 102.932C147.865 101.574 148.825 100.364 150.359 100.364C151.814 100.364 152.746 101.455 152.746 102.932H147.774ZM164.445 99.2727H162.581V97.1818H161.24V99.2727H159.922V100.409H161.24V105.864C161.24 107.386 162.467 108.114 163.604 108.114C164.104 108.114 164.422 108.023 164.604 107.955L164.331 106.75C164.217 106.773 164.036 106.818 163.74 106.818C163.149 106.818 162.581 106.636 162.581 105.5V100.409H164.445V99.2727ZM166.462 108H167.803V102.477C167.803 101.295 168.734 100.432 170.007 100.432C170.365 100.432 170.734 100.5 170.825 100.523V99.1591C170.672 99.1477 170.32 99.1364 170.121 99.1364C169.075 99.1364 168.166 99.7273 167.848 100.591H167.757V99.2727H166.462V108ZM177.915 104.432C177.915 106.068 176.665 106.818 175.665 106.818C174.551 106.818 173.756 106 173.756 104.727V99.2727H172.415V104.818C172.415 107.045 173.597 108.114 175.233 108.114C176.551 108.114 177.415 107.409 177.824 106.523H177.915V108H179.256V99.2727H177.915V104.432ZM185.507 99.2727H183.643V97.1818H182.303V99.2727H180.984V100.409H182.303V105.864C182.303 107.386 183.53 108.114 184.666 108.114C185.166 108.114 185.484 108.023 185.666 107.955L185.393 106.75C185.28 106.773 185.098 106.818 184.803 106.818C184.212 106.818 183.643 106.636 183.643 105.5V100.409H185.507V99.2727ZM189.053 102.75C189.053 101.227 190.024 100.364 191.348 100.364C192.609 100.364 193.371 101.159 193.371 102.545V108H194.712V102.455C194.712 100.21 193.518 99.1591 191.734 99.1591C190.359 99.1591 189.575 99.733 189.166 100.636H189.053V96.3636H187.712V108H189.053V102.75ZM199.165 106.409H197.71L197.642 107.045C197.477 108.585 197.153 110.119 197.006 110.841H198.028C198.301 110.068 198.881 108.318 199.074 107.023L199.165 106.409ZM209.945 99.2727H208.081V97.1818H206.74V99.2727H205.422V100.409H206.74V105.864C206.74 107.386 207.967 108.114 209.104 108.114C209.604 108.114 209.922 108.023 210.104 107.955L209.831 106.75C209.717 106.773 209.536 106.818 209.24 106.818C208.649 106.818 208.081 106.636 208.081 105.5V100.409H209.945V99.2727ZM213.49 102.75C213.49 101.227 214.462 100.364 215.786 100.364C217.047 100.364 217.808 101.159 217.808 102.545V108H219.149V102.455C219.149 100.21 217.956 99.1591 216.172 99.1591C214.797 99.1591 214.013 99.733 213.604 100.636H213.49V96.3636H212.149V108H213.49V102.75ZM225.261 108.182C227.034 108.182 228.33 107.295 228.739 105.977L227.443 105.614C227.102 106.523 226.312 106.977 225.261 106.977C223.688 106.977 222.602 105.96 222.54 104.091H228.875V103.523C228.875 100.273 226.943 99.1591 225.125 99.1591C222.761 99.1591 221.193 101.023 221.193 103.705C221.193 106.386 222.739 108.182 225.261 108.182ZM222.54 102.932C222.631 101.574 223.591 100.364 225.125 100.364C226.58 100.364 227.511 101.455 227.511 102.932H222.54ZM235.415 108H236.756V102.545C236.756 101.267 237.688 100.364 238.733 100.364C239.75 100.364 240.46 101.028 240.46 102.023V108H241.824V102.318C241.824 101.193 242.528 100.364 243.756 100.364C244.71 100.364 245.528 100.869 245.528 102.159V108H246.869V102.159C246.869 100.108 245.767 99.1591 244.21 99.1591C242.96 99.1591 242.045 99.733 241.597 100.636H241.506C241.074 99.7045 240.312 99.1591 239.165 99.1591C238.028 99.1591 237.188 99.7045 236.824 100.636H236.71V99.2727H235.415V108ZM251.889 108.205C253.412 108.205 254.207 107.386 254.48 106.818H254.548V108H255.889V102.25C255.889 99.4773 253.776 99.1591 252.662 99.1591C251.344 99.1591 249.844 99.6136 249.162 101.205L250.435 101.659C250.73 101.023 251.429 100.341 252.707 100.341C253.94 100.341 254.548 100.994 254.548 102.114V102.159C254.548 102.807 253.889 102.75 252.298 102.955C250.679 103.165 248.912 103.523 248.912 105.523C248.912 107.227 250.23 108.205 251.889 108.205ZM252.094 107C251.026 107 250.253 106.523 250.253 105.591C250.253 104.568 251.185 104.25 252.23 104.114C252.798 104.045 254.321 103.886 254.548 103.614V104.841C254.548 105.932 253.685 107 252.094 107ZM264.518 101.227C264.098 99.9886 263.155 99.1591 261.428 99.1591C259.587 99.1591 258.223 100.205 258.223 101.682C258.223 102.886 258.939 103.693 260.541 104.068L261.996 104.409C262.876 104.614 263.291 105.034 263.291 105.636C263.291 106.386 262.496 107 261.246 107C260.149 107 259.462 106.528 259.223 105.591L257.95 105.909C258.263 107.392 259.484 108.182 261.268 108.182C263.297 108.182 264.678 107.074 264.678 105.568C264.678 104.352 263.916 103.585 262.359 103.205L261.064 102.886C260.03 102.631 259.564 102.284 259.564 101.614C259.564 100.864 260.359 100.318 261.428 100.318C262.598 100.318 263.081 100.966 263.314 101.568L264.518 101.227ZM270.491 99.2727H268.628V97.1818H267.287V99.2727H265.969V100.409H267.287V105.864C267.287 107.386 268.514 108.114 269.651 108.114C270.151 108.114 270.469 108.023 270.651 107.955L270.378 106.75C270.264 106.773 270.082 106.818 269.787 106.818C269.196 106.818 268.628 106.636 268.628 105.5V100.409H270.491V99.2727ZM276.074 108.182C277.847 108.182 279.142 107.295 279.551 105.977L278.256 105.614C277.915 106.523 277.125 106.977 276.074 106.977C274.5 106.977 273.415 105.96 273.352 104.091H279.688V103.523C279.688 100.273 277.756 99.1591 275.938 99.1591C273.574 99.1591 272.006 101.023 272.006 103.705C272.006 106.386 273.551 108.182 276.074 108.182ZM273.352 102.932C273.443 101.574 274.403 100.364 275.938 100.364C277.392 100.364 278.324 101.455 278.324 102.932H273.352ZM281.727 108H283.068V102.477C283.068 101.295 284 100.432 285.273 100.432C285.631 100.432 286 100.5 286.091 100.523V99.1591C285.938 99.1477 285.585 99.1364 285.386 99.1364C284.341 99.1364 283.432 99.7273 283.114 100.591H283.023V99.2727H281.727V108ZM292.04 102.386H286.949V103.636H292.04V102.386ZM294.581 108H295.876V106.659H296.036C296.331 107.136 296.899 108.182 298.581 108.182C300.763 108.182 302.286 106.432 302.286 103.659C302.286 100.909 300.763 99.1591 298.558 99.1591C296.854 99.1591 296.331 100.205 296.036 100.659H295.922V96.3636H294.581V108ZM295.899 103.636C295.899 101.682 296.763 100.364 298.399 100.364C300.104 100.364 300.945 101.795 300.945 103.636C300.945 105.5 300.081 106.977 298.399 106.977C296.786 106.977 295.899 105.614 295.899 103.636ZM309.837 104.432C309.837 106.068 308.587 106.818 307.587 106.818C306.473 106.818 305.678 106 305.678 104.727V99.2727H304.337V104.818C304.337 107.045 305.518 108.114 307.155 108.114C308.473 108.114 309.337 107.409 309.746 106.523H309.837V108H311.178V99.2727H309.837V104.432ZM313.634 108H314.974V99.2727H313.634V108ZM314.315 97.8182C314.838 97.8182 315.27 97.4091 315.27 96.9091C315.27 96.4091 314.838 96 314.315 96C313.793 96 313.361 96.4091 313.361 96.9091C313.361 97.4091 313.793 97.8182 314.315 97.8182ZM318.771 96.3636H317.43V108H318.771V96.3636ZM324.523 108.182C326.205 108.182 326.773 107.136 327.068 106.659H327.227V108H328.523V96.3636H327.182V100.659H327.068C326.773 100.205 326.25 99.1591 324.545 99.1591C322.341 99.1591 320.818 100.909 320.818 103.659C320.818 106.432 322.341 108.182 324.523 108.182ZM324.705 106.977C323.023 106.977 322.159 105.5 322.159 103.636C322.159 101.795 323 100.364 324.705 100.364C326.341 100.364 327.205 101.682 327.205 103.636C327.205 105.614 326.318 106.977 324.705 106.977ZM334.824 108.182C336.597 108.182 337.892 107.295 338.301 105.977L337.006 105.614C336.665 106.523 335.875 106.977 334.824 106.977C333.25 106.977 332.165 105.96 332.102 104.091H338.438V103.523C338.438 100.273 336.506 99.1591 334.688 99.1591C332.324 99.1591 330.756 101.023 330.756 103.705C330.756 106.386 332.301 108.182 334.824 108.182ZM332.102 102.932C332.193 101.574 333.153 100.364 334.688 100.364C336.142 100.364 337.074 101.455 337.074 102.932H332.102ZM340.477 108H341.818V102.477C341.818 101.295 342.75 100.432 344.023 100.432C344.381 100.432 344.75 100.5 344.841 100.523V99.1591C344.688 99.1477 344.335 99.1364 344.136 99.1364C343.091 99.1364 342.182 99.7273 341.864 100.591H341.773V99.2727H340.477V108ZM354.476 108.182C356.839 108.182 358.43 106.386 358.43 103.682C358.43 100.955 356.839 99.1591 354.476 99.1591C352.112 99.1591 350.521 100.955 350.521 103.682C350.521 106.386 352.112 108.182 354.476 108.182ZM354.476 106.977C352.68 106.977 351.862 105.432 351.862 103.682C351.862 101.932 352.68 100.364 354.476 100.364C356.271 100.364 357.089 101.932 357.089 103.682C357.089 105.432 356.271 106.977 354.476 106.977ZM364.364 99.2727H362.409V98.3864C362.409 97.5227 362.773 97.0682 363.659 97.0682C364.045 97.0682 364.273 97.1591 364.409 97.2045L364.795 96.0455C364.591 95.9545 364.182 95.8182 363.523 95.8182C362.273 95.8182 361.068 96.5682 361.068 98.0682V99.2727H359.659V100.409H361.068V108H362.409V100.409H364.364V99.2727ZM2.56818 126.75C2.56818 125.227 3.53977 124.364 4.86364 124.364C6.125 124.364 6.88636 125.159 6.88636 126.545V132H8.22727V126.455C8.22727 124.21 7.03409 123.159 5.25 123.159C3.875 123.159 3.09091 123.733 2.68182 124.636H2.56818V120.364H1.22727V132H2.56818V126.75ZM16.1804 128.432C16.1804 130.068 14.9304 130.818 13.9304 130.818C12.8168 130.818 12.0213 130 12.0213 128.727V123.273H10.6804V128.818C10.6804 131.045 11.8622 132.114 13.4986 132.114C14.8168 132.114 15.6804 131.409 16.0895 130.523H16.1804V132H17.5213V123.273H16.1804V128.432ZM19.9773 132H21.3182V126.545C21.3182 125.267 22.25 124.364 23.2955 124.364C24.3125 124.364 25.0227 125.028 25.0227 126.023V132H26.3864V126.318C26.3864 125.193 27.0909 124.364 28.3182 124.364C29.2727 124.364 30.0909 124.869 30.0909 126.159V132H31.4318V126.159C31.4318 124.108 30.3295 123.159 28.7727 123.159C27.5227 123.159 26.608 123.733 26.1591 124.636H26.0682C25.6364 123.705 24.875 123.159 23.7273 123.159C22.5909 123.159 21.75 123.705 21.3864 124.636H21.2727V123.273H19.9773V132ZM36.4517 132.205C37.9744 132.205 38.7699 131.386 39.0426 130.818H39.1108V132H40.4517V126.25C40.4517 123.477 38.3381 123.159 37.2244 123.159C35.9062 123.159 34.4062 123.614 33.7244 125.205L34.9972 125.659C35.2926 125.023 35.9915 124.341 37.2699 124.341C38.5028 124.341 39.1108 124.994 39.1108 126.114V126.159C39.1108 126.807 38.4517 126.75 36.8608 126.955C35.2415 127.165 33.4744 127.523 33.4744 129.523C33.4744 131.227 34.7926 132.205 36.4517 132.205ZM36.6562 131C35.5881 131 34.8153 130.523 34.8153 129.591C34.8153 128.568 35.7472 128.25 36.7926 128.114C37.3608 128.045 38.8835 127.886 39.1108 127.614V128.841C39.1108 129.932 38.2472 131 36.6562 131ZM44.2401 126.75C44.2401 125.227 45.1832 124.364 46.4673 124.364C47.7116 124.364 48.4673 125.176 48.4673 126.545V132H49.8082V126.455C49.8082 124.227 48.6207 123.159 46.8537 123.159C45.5355 123.159 44.7173 123.75 44.3082 124.636H44.1946V123.273H42.8991V132H44.2401V126.75ZM58.0994 126.75C58.0994 125.227 59.071 124.364 60.3949 124.364C61.6562 124.364 62.4176 125.159 62.4176 126.545V132H63.7585V126.455C63.7585 124.21 62.5653 123.159 60.7812 123.159C59.4062 123.159 58.6222 123.733 58.2131 124.636H58.0994V120.364H56.7585V132H58.0994V126.75ZM68.7798 132.205C70.3026 132.205 71.098 131.386 71.3707 130.818H71.4389V132H72.7798V126.25C72.7798 123.477 70.6662 123.159 69.5526 123.159C68.2344 123.159 66.7344 123.614 66.0526 125.205L67.3253 125.659C67.6207 125.023 68.3196 124.341 69.598 124.341C70.831 124.341 71.4389 124.994 71.4389 126.114V126.159C71.4389 126.807 70.7798 126.75 69.1889 126.955C67.5696 127.165 65.8026 127.523 65.8026 129.523C65.8026 131.227 67.1207 132.205 68.7798 132.205ZM68.9844 131C67.9162 131 67.1435 130.523 67.1435 129.591C67.1435 128.568 68.0753 128.25 69.1207 128.114C69.6889 128.045 71.2116 127.886 71.4389 127.614V128.841C71.4389 129.932 70.5753 131 68.9844 131ZM75.2273 135.273H76.5682V130.659H76.6818C76.9773 131.136 77.5455 132.182 79.2273 132.182C81.4091 132.182 82.9318 130.432 82.9318 127.659C82.9318 124.909 81.4091 123.159 79.2045 123.159C77.5 123.159 76.9773 124.205 76.6818 124.659H76.5227V123.273H75.2273V135.273ZM76.5455 127.636C76.5455 125.682 77.4091 124.364 79.0455 124.364C80.75 124.364 81.5909 125.795 81.5909 127.636C81.5909 129.5 80.7273 130.977 79.0455 130.977C77.4318 130.977 76.5455 129.614 76.5455 127.636ZM84.9773 135.273H86.3182V130.659H86.4318C86.7273 131.136 87.2955 132.182 88.9773 132.182C91.1591 132.182 92.6818 130.432 92.6818 127.659C92.6818 124.909 91.1591 123.159 88.9545 123.159C87.25 123.159 86.7273 124.205 86.4318 124.659H86.2727V123.273H84.9773V135.273ZM86.2955 127.636C86.2955 125.682 87.1591 124.364 88.7955 124.364C90.5 124.364 91.3409 125.795 91.3409 127.636C91.3409 129.5 90.4773 130.977 88.7955 130.977C87.1818 130.977 86.2955 129.614 86.2955 127.636ZM94.7273 132H96.0682V123.273H94.7273V132ZM95.4091 121.818C95.9318 121.818 96.3636 121.409 96.3636 120.909C96.3636 120.409 95.9318 120 95.4091 120C94.8864 120 94.4545 120.409 94.4545 120.909C94.4545 121.409 94.8864 121.818 95.4091 121.818ZM99.8651 126.75C99.8651 125.227 100.808 124.364 102.092 124.364C103.337 124.364 104.092 125.176 104.092 126.545V132H105.433V126.455C105.433 124.227 104.246 123.159 102.479 123.159C101.161 123.159 100.342 123.75 99.9332 124.636H99.8196V123.273H98.5241V132H99.8651V126.75ZM111.543 132.182C113.315 132.182 114.611 131.295 115.02 129.977L113.724 129.614C113.384 130.523 112.594 130.977 111.543 130.977C109.969 130.977 108.884 129.96 108.821 128.091H115.156V127.523C115.156 124.273 113.224 123.159 111.406 123.159C109.043 123.159 107.474 125.023 107.474 127.705C107.474 130.386 109.02 132.182 111.543 132.182ZM108.821 126.932C108.912 125.574 109.872 124.364 111.406 124.364C112.861 124.364 113.793 125.455 113.793 126.932H108.821ZM123.378 125.227C122.957 123.989 122.014 123.159 120.287 123.159C118.446 123.159 117.082 124.205 117.082 125.682C117.082 126.886 117.798 127.693 119.401 128.068L120.855 128.409C121.736 128.614 122.151 129.034 122.151 129.636C122.151 130.386 121.355 131 120.105 131C119.009 131 118.321 130.528 118.082 129.591L116.81 129.909C117.122 131.392 118.344 132.182 120.128 132.182C122.156 132.182 123.537 131.074 123.537 129.568C123.537 128.352 122.776 127.585 121.219 127.205L119.923 126.886C118.889 126.631 118.423 126.284 118.423 125.614C118.423 124.864 119.219 124.318 120.287 124.318C121.457 124.318 121.94 124.966 122.173 125.568L123.378 125.227ZM126.533 132.091C127.095 132.091 127.555 131.631 127.555 131.068C127.555 130.506 127.095 130.045 126.533 130.045C125.97 130.045 125.51 130.506 125.51 131.068C125.51 131.631 125.97 132.091 126.533 132.091Z" fill="black" fill-opacity="0.6"/>
</svg>
